<svg viewBox="81.97115384615392 52.85000000000002 687.5000000000001 964.5124999999999" xmlns="http://www.w3.org/2000/svg" xmlns:xlink="http://www.w3.org/1999/xlink" overflow="visible" width="687.5000000000001px" height="964.5124999999999px"><defs><path d="M642.944213,0 L642.944213,1053 L131.02602,1053 L131.02602,902.717955 L39.2422987,906.134272 C31.6560495,906.399443 25.2914211,900.458648 25.0265035,892.865133 L0.265466928,183.122784 C0.000549267379,175.52927 5.93566118,169.158547 13.5219104,168.893376 L25.7990012,0 L642.944213,0 Z" id="mastercompsphone-path-1"/></defs><g id="Master/Comps/Phone" stroke="none" stroke-width="1" fill="none" fill-rule="evenodd"><g id="Small Elements" opacity=".739" transform="translate(510.000000, 281.000000) scale(0.5481481481481482 0.5481481481481482)"><g id="Small Elements/Donut" stroke="none" stroke-width="1" fill="none" fill-rule="evenodd"><path d="M135,0 C209.558441,0 270,60.4415588 270,135 C270,209.558441 209.558441,270 135,270 C60.4415588,270 0,209.558441 0,135 C0,60.4415588 60.4415588,0 135,0 Z M135,64 C95.7877828,64 64,95.7877828 64,135 C64,174.212217 95.7877828,206 135,206 C174.212217,206 206,174.212217 206,135 C206,95.7877828 174.212217,64 135,64 Z" id="Combined-Shape" fill="#ffb485"/></g></g><g id="Small Elements" transform="translate(58.000000, 759.000000) scale(0.9481481481481482 0.9481481481481482)"><g id="Small Elements/Grid" stroke="none" stroke-width="1" fill="none" fill-rule="evenodd"><path d="M61.638852,-1.5 L102.361148,-1.5 C111.276335,-1.5 114.509198,-0.571743889 117.768457,1.17132704 C121.027716,2.91439796 123.585602,5.47228371 125.328673,8.73154296 C127.071744,11.9908022 128,15.2236646 128,24.138852 L128,98.861148 C128,107.776335 127.071744,111.009198 125.328673,114.268457 C123.585602,117.527716 121.027716,120.085602 117.768457,121.828673 C114.509198,123.571744 111.276335,124.5 102.361148,124.5 L61.638852,124.5 C52.7236646,124.5 49.4908022,123.571744 46.231543,121.828673 C42.9722837,120.085602 40.414398,117.527716 38.671327,114.268457 C36.9282561,111.009198 36,107.776335 36,98.861148 L36,24.138852 C36,15.2236646 36.9282561,11.9908022 38.671327,8.73154296 C40.414398,5.47228371 42.9722837,2.91439796 46.231543,1.17132704 C49.4908022,-0.571743889 52.7236646,-1.5 61.638852,-1.5 Z" id="Rectangle-2-Copy-7" fill="#f7ede0" opacity=".906"/><path d="M61.638852,144.5 L102.361148,144.5 C111.276335,144.5 114.509198,145.428256 117.768457,147.171327 C121.027716,148.914398 123.585602,151.472284 125.328673,154.731543 C127.071744,157.990802 128,161.223665 128,170.138852 L128,244.861148 C128,253.776335 127.071744,257.009198 125.328673,260.268457 C123.585602,263.527716 121.027716,266.085602 117.768457,267.828673 C114.509198,269.571744 111.276335,270.5 102.361148,270.5 L61.638852,270.5 C52.7236646,270.5 49.4908022,269.571744 46.231543,267.828673 C42.9722837,266.085602 40.414398,263.527716 38.671327,260.268457 C36.9282561,257.009198 36,253.776335 36,244.861148 L36,170.138852 C36,161.223665 36.9282561,157.990802 38.671327,154.731543 C40.414398,151.472284 42.9722837,148.914398 46.231543,147.171327 C49.4908022,145.428256 52.7236646,144.5 61.638852,144.5 Z" id="Rectangle-2-Copy-10" fill="#f7ede0" opacity=".866"/><path d="M167.638852,105.5 L208.361148,105.5 C217.276335,105.5 220.509198,106.428256 223.768457,108.171327 C227.027716,109.914398 229.585602,112.472284 231.328673,115.731543 C233.071744,118.990802 234,122.223665 234,131.138852 L234,177.861148 C234,186.776335 233.071744,190.009198 231.328673,193.268457 C229.585602,196.527716 227.027716,199.085602 223.768457,200.828673 C220.509198,202.571744 217.276335,203.5 208.361148,203.5 L167.638852,203.5 C158.723665,203.5 155.490802,202.571744 152.231543,200.828673 C148.972284,199.085602 146.414398,196.527716 144.671327,193.268457 C142.928256,190.009198 142,186.776335 142,177.861148 L142,131.138852 C142,122.223665 142.928256,118.990802 144.671327,115.731543 C146.414398,112.472284 148.972284,109.914398 152.231543,108.171327 C155.490802,106.428256 158.723665,105.5 167.638852,105.5 Z" id="Rectangle-2-Copy-11" fill="#f6ecde"/></g></g><path d="M623.765826,605.166321 C638.695353,600.281758 650.273803,592.740736 660.608276,583.080394 C662.404744,581.401153 662.614639,579.966695 661.899664,577.800335 C657.633267,564.877318 651.238559,553.185882 642.000253,543.145002 C632.541894,532.862812 621.251119,525.448433 607.547407,522.20566 C593.848768,518.961238 581.067134,521.15042 569.670133,529.690145 C551.959328,542.960564 547.081271,566.690447 558.227,585.355562 C564.062505,595.127404 572.800653,601.345638 583.424966,604.95213 C597.342341,609.6769 611.288835,609.134775 623.765826,605.166321 Z M716.412404,495.266205 C714.466836,499.506282 712.606032,503.787421 710.562686,507.980865 C703.937201,521.56641 697.477412,535.239521 690.507078,548.647303 C684.396866,560.400768 676.705684,571.146068 667.496669,580.724085 C666.267355,582.003353 666.385921,583.14441 666.704659,584.564279 L666.749256,584.759665 C670.387763,600.466224 670.53222,616.160029 666.52093,631.843271 C661.52229,651.379644 650.892147,667.329017 635.680799,680.367962 C622.303138,691.835273 607.074064,699.940608 590.164502,704.748834 C558.102171,713.867272 525.912268,714.365063 493.761824,705.277903 C475.854412,700.217999 459.009177,692.530895 442.704897,683.616587 C427.153924,675.111338 412.677445,665.008121 398.679016,654.190958 C397.758716,653.479146 396.890966,652.670458 396.145111,651.784362 C395.920543,651.519917 396.061512,650.768489 396.280164,650.376834 C396.4151,650.136984 397.102916,649.969501 397.391692,650.099679 C398.155618,650.442285 398.872626,650.916339 399.54517,651.421642 C413.66535,662.070441 428.112404,672.22102 443.656155,680.734216 C461.270986,690.38474 479.52277,698.482859 498.985643,703.649184 C514.958535,707.888601 531.245138,709.119587 547.711384,708.511343 C558.58566,708.109984 569.349339,706.807929 579.943785,704.342818 C605.844876,698.316926 628.395495,686.358426 645.638618,665.750079 C661.252813,647.089252 667.774603,625.284116 666.179226,601.077634 C665.86492,596.317391 664.901227,591.601541 664.20765,586.867927 C664.133122,586.371325 663.850732,585.90306 663.513338,585.028452 L661.699952,586.560009 C661.47823,586.749021 661.262561,586.935147 661.050581,587.122218 L660.73508,587.404013 C649.744311,597.329949 637.332936,604.780167 622.959069,608.634291 C605.975226,613.188043 589.329356,612.450403 573.665146,603.937145 C558.342776,595.609626 549.772485,582.499536 549.461811,564.975273 C549.148195,547.230759 557.271374,533.595399 572.512173,524.621025 C585.730138,516.838728 599.833405,516.522245 614.114475,521.519976 C630.172809,527.13868 642.476992,537.603307 652.054913,551.461236 C656.852941,558.403516 660.691595,565.836147 663.444666,573.811336 L663.769816,574.770967 C664.099148,575.762998 664.504072,576.729068 665.078325,578.24214 C666.378233,576.962945 667.470735,576.03675 668.39296,574.961474 C674.993462,567.26425 680.763672,558.981375 685.870391,550.221057 C693.33985,537.414125 699.441877,523.92866 705.738604,510.538139 L712.826575,495.52268 C713.307396,494.502622 713.726946,493.45347 714.458889,491.762398 C710.44342,492.791293 707.220941,493.997946 703.997315,495.244172 C701.599985,496.170117 699.165901,497.006889 696.720051,497.801464 L694.648933,498.466839 C693.6843,498.761526 692.588926,498.956183 692.158566,497.78037 C691.627905,496.330036 693.045582,495.958556 694.118168,495.578319 L694.235808,495.535979 C700.534199,493.231899 706.835058,490.935417 713.140443,488.652865 C713.939966,488.363683 714.76437,488.125219 715.597502,487.956722 L715.981218,487.884416 C717.754118,487.580788 718.366181,487.961871 718.86829,489.894281 C719.9111,493.905402 720.821792,497.95385 721.722383,502.001379 C722.460408,505.315836 723.16412,508.637709 723.87514,511.958451 L724.952357,516.937647 C725.199779,518.065497 725.330197,519.182361 723.95241,519.523628 C722.56431,519.868299 722.170072,518.780724 721.939679,517.760294 L721.912765,517.638261 C720.904987,512.959135 719.938124,508.272316 718.970848,503.584231 C718.399514,500.812967 717.856427,498.038125 717.299438,495.2636 L716.412404,495.266205 L716.412404,495.266205 Z" id="arrow" fill="#bba487"/><g id="Phone" transform="translate(153.256932, 151.000000)"><path d="M24.0378358,18.3137908 L349.500243,6.93237522 C362.909824,6.46105422 374.18224,16.8419689 374.865952,30.1924464 L374.88342,30.5979071 C374.883448,30.5987103 374.883476,30.5995134 374.881095,30.6004006 L400.056668,752.550537 C400.526568,766.094842 389.930408,777.457833 376.386317,777.933883 L50.9239098,789.315298 C37.5143289,789.786619 26.241913,779.405704 25.5582017,766.055227 L25.540733,765.649766 C25.5407049,765.648963 25.5406768,765.64816 25.5430582,765.647273 L0.367485065,43.697136 C-0.102414332,30.1528309 10.4937455,18.7898399 24.0378358,18.3137908 Z" id="base" fill="#9a876f"/><path d="M33.2868154,11.5876761 L358.749223,0.206260571 C372.158804,-0.265060427 383.43122,10.1158543 384.114931,23.4663317 L384.1324,23.8717925 C384.132428,23.8725956 384.132456,23.8733988 384.130075,23.874286 L409.305648,745.824423 C409.775547,759.368728 399.179387,770.731719 385.635297,771.207768 L60.1728894,782.589183 C46.7633084,783.060504 35.4908926,772.67959 34.8071813,759.329112 L34.7897126,758.923652 C34.7896845,758.922848 34.7896564,758.922045 34.7920378,758.921158 L9.61646466,36.9710213 C9.14656526,23.4267163 19.7427251,12.0637253 33.2868154,11.5876761 Z" id="base" fill="#142117"/><path d="M105.922433,44.4963838 C106.069881,48.7227923 109.552741,52.0454665 113.750399,52.0182944 L113.975942,52.0136203 L281.6821,46.1515638 C285.904451,46.0039743 289.223935,42.5177666 289.196789,38.3160747 L289.192119,38.0903146 L288.534964,19.2537599 L352.767903,17.0085405 C360.352167,16.7434376 366.71513,22.6826989 366.979978,30.2742519 L391.734535,739.833293 C391.999384,747.424846 386.065825,753.793924 378.481561,754.059027 L65.718232,764.99146 C58.133968,765.256562 51.7710052,759.317301 51.5061569,751.725748 L26.7515999,42.1667072 C26.4867516,34.5751542 32.4203103,28.2060762 40.0045744,27.9409733 L105.265277,25.6598291 L105.922433,44.4963838 Z" id="Path" fill="#1f3324"/></g><g id="Character" transform="translate(180.000000, 10.000000)"><mask id="mastercompsphone-mask-2" fill="#ffffff"><use xlink:href="#mastercompsphone-path-1" fill="#ffffff"/></mask><g id="Mask"/><g mask="url(#mastercompsphone-mask-2)"><g transform="translate(-304.000000, 66.000000) scale(1.081858407079646 1.081490104772992)" id="Master/Character/Standing"><g id="Master/Character/Standing" stroke="none" stroke-width="1" fill="none" fill-rule="evenodd"><g id="Legs" transform="translate(50.000000, 263.000000) scale(1 1)"><g id="Legs/Pants Leg Back" stroke="none" stroke-width="1" fill="none" fill-rule="evenodd"><g id="Right-Leg" transform="translate(179.999200, 0.493900)"><path d="M13.9038,395.1605 L1.2658,329.8845 C0.9008,328.3355 0.6658,326.7345 0.8538,325.2865 C1.5028,321.4465 7.7188,322.1605 11.1908,320.3325 C34.6588,312.6805 57.7488,303.5475 80.8848,294.2645 C127.3888,275.2805 173.7818,255.3815 218.5188,232.6845 C221.2448,230.8845 221.5908,231.8065 226.1268,234.5035 C234.6938,238.2655 264.3858,267.0275 272.4148,273.0165 C276.0698,276.1505 278.0118,280.3305 277.0168,284.9785 C276.2618,291.4195 267.3528,297.2035 260.8798,300.1765 C250.3428,305.7385 239.4918,311.1135 228.7958,316.2235 C176.1328,341.1615 122.7838,363.8285 68.2848,384.4475 C57.4638,388.4785 46.4858,392.4385 35.3568,396.0095 C29.0758,397.4715 17.3558,404.2275 13.9038,395.1605" id="SKIN-DARKER" fill="#cfb696"/><path d="M265.4839,1.0565 L174.9749,24.0355 C172.0499,24.7235 170.4789,28.4415 171.4519,32.3195 C185.3239,88.9225 198.9899,146.0005 210.3559,203.0385 C210.9529,206.3355 212.6999,215.1105 213.2439,218.3175 C213.1579,218.7015 214.2919,221.8725 213.3989,221.8685 C156.6269,250.0095 96.8719,275.2245 37.6199,297.6305 L75.2719,398.0785 C131.7079,376.4375 186.4469,352.9995 240.8449,326.7345 C267.1259,312.4875 303.8069,299.3175 318.3819,271.7825 C318.1889,271.6405 318.7129,271.8425 318.6769,271.7755 C328.8529,244.2505 318.4149,210.6925 313.7179,182.4375 C301.6839,123.9805 285.4758,57.6081 271.0008,0.0061" id="Fill-3" fill="#0b120d"/><path d="M32.4565,396.9261 L8.8985,321.0591 C17.0035,318.5281 25.5995,315.4931 33.8105,312.4941 L61.0835,387.1071 C51.7685,390.5021 42.4235,393.8091 32.4565,396.9261" id="Fill-6" fill="#ffffff"/><path d="M34.375,350.218 C19.202,356.027 10.211,323.529 23.874,320.098 C23.078,317.817 22.62,316.5 22.62,316.5 C14.881,319.152 7.354,321.776 0,323.539 C0.009,323.536 0.051,323.521 0.059,323.52 C1.69,332.659 4.947,428.793 5.234,438.464 C13.275,438.446 21.333,437.085 29.116,435.125 C31.829,434.367 35.219,434.046 36.983,431.584 C44.11,421.081 38.935,399.246 48.771,391.513 C47.6873886,388.404888 36.8065784,357.193676 34.375,350.218 Z" id="Fill-8" fill="#142117"/></g><path d="M243,0 C243,55.228475 289.562386,100 347,100 C404.437614,100 451,55.228475 451,0" id="Waist" fill="#142117"/><g id="Left-Leg" transform="translate(241.149190, -0.007983)"><path d="M178.51651,590.531331 C175.64851,589.552184 105.07451,596.238332 105.99251,590.97064 C104.89751,589.27573 105.24351,586.27194 104.92251,584.350841 C104.55451,581.021338 103.96551,575.605869 103.53651,572.301499 C97.3595095,525.23407 88.9285095,478.699443 80.7165095,431.596829 L62.5165095,330.282229 C60.7285095,320.388218 67.1275095,310.936531 76.8095095,309.168235 L119.91251,301.302888 C129.59351,299.535598 138.89051,306.119207 140.67751,316.009198 L158.92751,417.600251 C165.78751,456.47863 172.66451,495.864678 178.59951,535.169299 C180.80051,550.792428 183.21651,566.503017 184.50451,582.701168 C184.88751,586.303103 182.26251,590.398633 178.51651,590.531331" id="SKIN" fill="#f0dec7"/><path d="M1.85080952,0.016098182 C0.738866484,5.49889779 0.476943295,9.9722216 1.06503995,13.4360696 C2.19177968,31.9286569 4.5374834,50.8361389 6.97741623,69.1510585 C29.2365406,226.400134 63.6542291,391.126396 87.5082315,548.016098 L193.85081,531.940196 C167.94983,364.621599 128.726456,191.477318 106.903392,23.8720305 C106.470339,19.8805632 105.820759,13.3290652 105.575162,9.35475889 C105.49597,5.11193207 105.118051,0.230107054 99.6828347,0.016098182 C37.1393293,0.222031247 4.52865418,0.222031247 1.85080952,0.016098182 Z" id="Fill-15" fill="#142117"/><path d="M183.89051,575.946372 L104.85651,584.016098 C103.89251,574.988896 102.54551,564.511916 101.20251,555.359127 L179.83651,544.016098 C181.35251,554.396627 182.77651,565.473411 183.89051,575.946372" id="Fill-17" fill="#ffffff"/><path d="M181.61711,557.016098 C176.17611,557.730096 156.55511,560.304271 138.26011,562.704179 C140.61411,578.236862 108.58611,582.049828 106.63511,566.85373 C104.23911,567.167411 102.85711,567.348648 102.85711,567.348648 C104.09011,576.688374 105.36411,586.623595 105.74111,596.016098 L221.04211,596.016098 C220.91111,590.572987 220.73511,584.908806 220.21011,579.474657 C216.71911,566.42553 187.98311,569.98556 181.61711,557.016098" id="Fill-19" fill="#142117"/><path d="M53.8603661,1.01609818 L51.8508095,1.02315663 C52.061813,13.1848573 53.3248193,25.9495509 54.744571,38.0215085 C76.6316562,203.370624 114.544955,375.149982 139.863358,540.016098 L141.85081,539.716618 C116.529392,374.829327 78.6341793,203.141728 56.7390558,37.7885798 C55.3313615,25.7972901 54.0713695,13.0971309 53.8603661,1.01609818" id="Fill-21" fill="#ffffff"/></g></g></g><g id="Body" transform="translate(17.000000, -31.000000) scale(1 1)"><g id="Body/Bomber Jacket Stride" stroke="none" stroke-width="1" fill="none" fill-rule="evenodd"><g id="Group-48" transform="translate(103.000000, 107.000000)"><path d="M659.4155,83.3703 C663.1265,85.9903 666.1855,89.3023 668.2455,93.0853 C669.2855,94.9823 670.1025,97.0143 670.6805,99.1553 C671.2665,101.3023 671.6045,103.5533 671.6315,105.8193 C671.9405,115.0073 667.6405,125.1533 659.3175,132.5423 C641.0935,148.7123 620.2485,160.7823 598.6605,169.4883 C576.6465,178.2713 553.7665,183.6083 530.7295,186.0613 C507.6805,188.4643 484.4215,187.9163 461.4015,184.3803 C438.3975,180.8213 415.5775,174.0933 393.8585,163.5583 C383.0285,158.2233 372.5015,151.8923 362.5535,144.4523 C352.5875,137.0513 343.3125,128.3433 335.0055,118.6353 C331.1675,114.1543 328.4975,109.0213 327.0055,103.9083 C325.5515,98.7583 325.2275,93.6573 326.0815,88.9773 C326.8325,84.3473 328.8125,80.1203 331.5055,76.7113 C334.1965,73.2943 337.7695,70.6043 341.9225,68.7133 C346.0625,66.8283 350.3795,65.8893 354.6375,65.5343 C358.8955,65.1853 362.9235,65.5043 366.8005,66.1753 C370.5795,66.9043 374.1515,68.0123 377.2245,69.6103 C380.3495,71.1873 383.0155,73.2413 385.2875,75.8823 C390.2095,81.6063 395.8035,86.9623 402.1785,91.6713 C408.5205,96.4053 415.4765,100.6243 422.8835,104.2823 C437.7745,111.4953 454.3625,116.5273 471.5395,119.1633 C488.7185,121.8033 506.4525,122.2433 523.8545,120.4203 C541.2475,118.5713 558.3295,114.5233 574.1045,108.2263 C589.5755,101.9823 603.7845,93.5963 615.5045,83.1833 C616.7965,81.9633 618.2825,81.0033 619.7745,80.1323 C621.2515,79.2493 622.8965,78.5863 624.5705,78.0233 C626.2225,77.4433 627.9875,77.0293 629.8445,76.7663 C631.6535,76.4683 633.5285,76.3023 635.4895,76.2933 C637.4655,76.2963 639.4385,76.3963 641.4425,76.6413 C643.4535,76.8913 645.5035,77.2943 647.5525,77.8603 C651.6675,79.0103 655.6835,80.7333 659.4155,83.3703" id="SKIN-DARKER" fill="#cfb696"/><path d="M690.6167,78.1506 C692.8407,79.2936 694.2817,81.3866 694.7457,83.9076 C694.9817,85.1686 694.9807,86.5356 694.7297,87.9256 C694.6037,88.6206 694.4207,89.3246 694.1637,90.0166 C693.8877,90.6986 693.5487,91.3736 693.1437,92.0316 C686.1617,103.5326 677.9287,114.2666 668.5937,123.6956 C659.2827,133.1436 649.1127,141.5816 638.3057,148.7136 C635.8107,150.3216 633.0367,151.0066 630.5327,150.5666 C628.0397,150.1656 625.8957,148.8246 624.6297,146.6866 C623.3617,144.5486 623.1847,142.0326 623.8667,139.7236 C624.5717,137.4466 626.0427,135.2006 628.3137,133.7416 C638.1617,127.2486 647.3457,119.6046 655.7277,111.1066 C664.1347,102.6256 671.4837,93.0126 677.7267,82.7406 C678.0897,82.1536 678.4957,81.6116 678.9387,81.1176 C679.3647,80.6116 679.8187,80.1476 680.3087,79.7346 C681.2867,78.9086 682.3877,78.2766 683.5487,77.8566 C685.8747,77.0256 688.4197,77.0216 690.6167,78.1506" id="SKIN-DARKER" fill="#cfb696"/><path d="M681.2856,60.2521 C683.5806,61.2061 685.2316,63.0661 686.0106,65.3801 C686.8306,67.7031 686.6246,70.4101 685.3866,72.9231 C680.5506,82.6641 674.6756,91.8991 667.9176,100.3761 C666.1376,102.5211 663.7446,103.8171 661.3656,104.1161 C658.9316,104.3711 656.5366,103.6541 654.6976,101.9831 C652.8586,100.3121 651.8996,98.0251 651.7816,95.7401 C651.6166,93.4031 652.2646,91.0451 653.8456,89.1531 C659.8266,81.6481 665.0016,73.5041 669.2676,64.9111 C670.3546,62.7001 672.256609,61.1341 674.3596,60.2541 C676.4996,59.3981 678.9906,59.2991 681.2856,60.2521" id="SKIN-DARKER" fill="#cfb696"/><path d="M667.2632,52.3634 C669.5722,53.2834 671.2802,55.0044 672.1442,57.1204 C672.9922,59.2204 673.0922,61.7604 671.9442,63.9914 C667.7372,72.7724 662.5852,81.0984 656.6322,88.8004 C656.2542,89.2994 655.8362,89.7484 655.3852,90.1424 C654.9142,90.5204 654.4132,90.8454 653.8912,91.1164 C652.8472,91.6574 651.7212,91.9784 650.5852,92.0694 C648.3242,92.2644 645.9922,91.4954 644.1202,89.8424 C642.2682,88.2034 641.2052,86.0164 640.8842,83.8304 C640.7322,82.7404 640.7772,81.6564 641.0342,80.6374 C641.1632,80.1294 641.3462,79.6354 641.5832,79.1654 C641.8002,78.6804 642.0712,78.2164 642.4002,77.7814 C647.5872,71.0654 652.0542,63.8434 655.7082,56.2184 C656.7102,54.2924 658.3242,52.8654 660.4192,52.1664 C662.4942,51.4654 664.9542,51.4444 667.2632,52.3634" id="SKIN-DARKER" fill="#cfb696"/><path d="M631.1294,66.1633 C633.1294,67.6403 634.4624,69.6003 634.9574,71.6473 C635.4894,73.7123 635.0594,75.7753 633.7334,77.3603 C628.5504,83.4873 622.7344,89.1753 616.3104,94.2723 C615.4724,94.9163 614.1994,95.1863 612.7874,95.2143 C612.0794,95.2263 611.3414,95.1843 610.5934,95.0893 C609.8314,94.9803 609.0694,94.8313 608.3394,94.6583 C605.4134,93.9723 603.0104,92.9283 603.0104,92.9283 C606.8984,90.1143 600.5334,83.8343 606.7574,78.8113 C611.6254,74.7673 616.0504,70.3983 619.9834,65.7433 C621.1014,64.4053 622.9114,63.8453 624.8724,63.8823 C626.8624,63.9463 629.1304,64.6873 631.1294,66.1633" id="SKIN-DARKER" fill="#cfb696"/><path d="M649.7583,52.4572 C652.0093,53.5112 653.6723,55.2252 654.5093,57.2232 C654.9283,58.2192 655.1443,59.2842 655.1303,60.3512 C655.0723,61.3932 654.7823,62.4352 654.2493,63.4032 C647.0833,76.3782 637.4723,87.9962 626.0933,97.8312 C624.3583,99.2622 622.1963,99.8452 620.0273,99.4402 C617.8623,99.0522 615.8043,97.8002 614.2903,95.8282 C612.7793,93.8562 612.0723,91.5572 612.1033,89.4802 C612.1493,87.4112 612.8073,85.4532 614.3203,84.2142 C624.2243,75.6472 632.4043,65.7182 638.5013,54.6862 C638.9543,53.8632 639.6113,53.2022 640.4163,52.6962 C641.1773,52.1682 642.0883,51.7962 643.0963,51.5882 C645.1093,51.1772 647.5073,51.4032 649.7583,52.4572" id="SKIN-DARKER" fill="#cfb696"/><path d="M635.4379,157.6959 C624.8879,164.1889 613.9259,169.6869 602.7389,174.2909 C598.9969,179.8389 584.3479,188.7649 562.3589,195.3679 C551.3789,198.6669 538.5909,201.3529 524.6249,202.9089 C517.6399,203.6499 510.3639,204.1799 502.8769,204.2829 C495.3909,204.4579 487.6949,204.2049 479.8799,203.6399 C472.0629,203.0969 464.1289,202.0459 456.1639,200.7169 C448.1989,199.3489 440.2109,197.5129 432.2889,195.3389 C424.3689,193.1219 416.5269,190.4429 408.8549,187.4129 C401.1869,184.3449 393.7079,180.8109 386.5079,176.9639 C379.3169,173.0699 372.4369,168.7429 365.9429,164.1839 C359.4799,159.5199 353.4059,154.6259 347.8649,149.4769 C336.7669,139.1969 327.8499,128.0449 321.3349,117.5929 C320.0349,115.9479 318.9379,114.1569 317.8649,112.4099 C317.3359,111.5299 316.8299,110.6439 316.3449,109.7549 C315.8689,108.8609 315.4529,107.9329 315.0379,107.0199 C314.2199,105.1859 313.4879,103.3519 312.8579,101.5199 C312.2829,99.6509 311.7989,97.7899 311.4079,95.9529 C311.2129,95.0339 311.0399,94.1199 310.8899,93.2139 C310.7669,92.2919 310.6729,91.3749 310.5969,90.4679 C310.4469,88.6529 310.3879,86.8699 310.4159,85.1329 C310.5269,81.6339 311.0899,78.2679 311.9159,75.1729 C313.7629,68.9019 296.066929,113.591237 321.2039,59.5749 C346.340871,5.55856311 412.602716,90.4679 494.7989,105.8229 C504.4509,106.7819 513.7639,107.2319 522.3739,107.2339 C530.9829,107.2269 538.8859,106.8469 545.8189,106.3659 C549.2929,106.1009 552.5219,105.8549 555.4799,105.6289 C558.4139,105.3229 561.1429,105.1689 563.5249,104.9499 C564.7239,104.8569 565.8689,104.8109 566.9219,104.7549 C567.9659,104.6849 568.9429,104.6459 569.8449,104.6369 C570.7469,104.6279 571.5739,104.6499 572.3219,104.7029 C573.0599,104.7389 573.6829,104.8099 574.2469,104.9129 C581.8969,101.7639 589.2029,98.0789 596.0269,93.8849 L635.4379,157.6959 Z" id="Fill-13" fill="#8f6043"/><path d="M603.104,174.1359 L573.923,103.4199 C581.414,100.3239 588.563,96.7099 595.238,92.6069 L635.437,157.6939 C625.003,164.1169 614.165,169.5659 603.104,174.1359" id="Fill-15" fill="#80563c"/><path d="M89.9273,386.5226 C101.8923,396.2216 112.6033,394.5576 119.1343,391.9446 C122.4063,390.6256 123.7263,387.3796 123.3073,384.3356 C122.8883,381.2876 120.7383,378.4056 116.9603,377.7096 C113.1983,377.0026 108.6143,377.5266 103.4473,376.4876 C98.2703,375.4526 92.3983,372.8896 86.2393,365.8646 C83.1403,362.3626 81.1363,361.2116 79.9543,361.6966 C78.7903,362.1686 78.4553,364.2766 78.9393,367.1336 C79.8553,372.8626 83.9703,381.6606 89.9273,386.5226" id="Fill-17" fill="#cfb696"/><path d="M81.1362,355.0031 C72.8532,358.7821 63.7962,358.7841 55.8042,355.4151 C47.8822,352.0331 40.9972,345.2851 37.6012,336.0461 L36.3232,332.6441 L35.1132,329.1981 C34.3122,326.8971 33.4842,324.6131 32.7102,322.2961 C31.2082,317.6301 29.6502,313.0011 28.3042,308.2371 C24.9132,296.6531 21.9452,284.8041 19.8132,272.4991 C17.6932,260.1961 16.3082,247.4881 16.1572,234.3211 C16.0202,221.1701 17.1222,207.5091 20.3372,193.6701 C21.2492,190.2061 22.1752,186.7481 23.1602,183.3021 L24.9032,178.1471 L26.8472,173.0791 C29.5662,166.3841 32.7902,159.9531 36.4072,153.8671 C43.6482,141.6801 52.4112,130.9171 61.8582,121.4931 C71.3202,112.0591 81.4722,103.9121 91.9182,96.7141 C112.8592,82.3491 134.9002,71.6321 157.2882,62.9291 C167.6482,58.9131 178.3752,59.2531 186.8702,62.8801 C195.4032,66.4971 201.6812,73.3571 204.1012,82.1361 C206.5252,90.9251 204.8472,99.9211 200.6572,107.4661 C196.4352,115.0221 189.6952,121.1531 181.1102,124.4811 C162.4842,131.6941 144.7182,140.4981 129.3392,151.0791 C113.9732,161.6301 101.1452,174.0541 93.1572,187.5661 C91.1512,190.9411 89.4332,194.3801 88.0092,197.8821 L86.9932,200.5221 L86.0932,203.1881 C85.6112,205.0451 85.1222,206.9051 84.5912,208.7531 C82.8232,216.3731 82.0522,224.8001 82.1542,233.6431 C82.2532,242.4891 83.2102,251.7371 84.8252,261.1241 C86.4452,270.5191 88.8252,280.0611 91.6162,289.5971 C92.7082,293.4991 94.0352,297.3991 95.2822,301.3021 C95.9332,303.2531 96.6442,305.1991 97.3202,307.1491 L98.3442,310.0721 L99.4432,312.9881 C102.3292,320.8601 101.9092,329.3011 98.6492,336.9131 C95.4452,344.4851 89.4332,351.2191 81.1362,355.0031" id="Fill-19" fill="#f0dec7"/><path d="M98.4644,310.3967 C96.7984,305.6787 84.3834,309.1437 70.8744,315.0027 C64.1244,317.9407 57.1144,321.5107 51.0464,324.9587 C44.9754,328.4017 39.8424,331.7237 36.8434,334.0307 L39.2224,340.3487 C42.8554,349.7047 46.7474,357.9037 50.8394,364.9997 C54.8844,372.1267 59.0714,378.1927 63.1824,383.4047 C71.4444,393.8057 79.4834,400.7277 86.5414,405.4087 C93.6104,410.0867 99.7104,412.5237 104.3684,413.8817 C109.0214,415.2397 112.2304,415.5187 113.6054,415.8337 C116.3814,416.4737 119.1834,414.8067 120.9064,412.6387 C122.6054,410.4237 123.1614,407.5537 121.2224,405.3377 C119.4024,403.2867 108.7164,395.6517 100.2904,385.6907 C91.8304,375.8077 85.7354,363.7547 92.3064,355.3137 C96.2514,350.2247 100.4444,349.2107 104.3874,349.9667 C108.3114,350.7397 112.0894,353.2707 115.2154,355.5307 C118.9804,358.2217 123.5814,357.0797 126.6034,354.5647 C129.6234,352.0427 131.1164,348.1787 128.7144,345.1927 C126.6484,342.6827 124.0464,339.9827 121.1054,337.1727 C118.2474,334.3467 115.0304,331.4097 112.0574,328.3837 C105.9824,322.3687 100.5684,316.0217 98.4644,310.3967" id="SKIN" fill="#f0dec7"/><path d="M33.8997,343.2457 C29.9227,332.9917 26.3207,322.4717 23.0717,311.7157 C22.7557,311.4717 22.4317,311.1907 22.1027,310.8717 C21.7727,310.5537 21.4407,310.2097 21.0777,309.7457 C20.3627,308.8587 19.6177,307.8107 18.8447,306.6087 C17.3007,304.2087 15.7667,301.1007 14.0967,297.4717 C13.2497,295.6687 12.4657,293.6617 11.6597,291.5227 C10.8537,289.3857 10.0327,287.1137 9.2067,284.7107 C7.7167,279.7817 6.0437,274.4467 4.7627,268.3667 C2.0657,256.3297 -0.0743,241.9777 -0.000263320664,225.3407 C0.0997,217.0067 0.6367,208.1677 2.2187,198.8287 C2.6207,196.4917 3.0437,194.1407 3.4867,191.7807 C3.6747,190.6087 4.0297,189.3917 4.3197,188.1917 C4.6297,186.9877 4.9407,185.7807 5.2517,184.5707 C5.9097,182.1497 6.4937,179.7307 7.2777,177.2907 C8.0877,174.8537 8.8687,172.3847 9.8147,169.9847 C17.0517,150.5467 28.6407,132.8217 41.7887,118.5237 C48.3587,111.3197 55.3097,104.8687 62.3937,99.1187 C69.4737,93.3447 76.6817,88.2387 83.8557,83.7127 C98.2087,74.6287 112.3867,67.7817 125.5947,62.4157 C138.8117,57.0697 151.0867,53.2527 161.8447,50.5407 C176.0767,45.3727 203.255252,40.1145926 214.584252,45.3935926 C225.949252,50.6555926 249.398483,99.1187 191.8457,133.2687 C181.4647,138.5517 170.8837,144.2277 160.7327,150.2847 C150.6017,156.3507 140.9257,162.8337 132.5117,169.5837 C124.0937,176.3277 116.9997,183.3047 111.7047,190.0747 C109.0717,193.4657 106.7727,196.7837 104.9387,200.0717 C104.5017,200.8977 103.9977,201.7047 103.6127,202.5287 L102.9757,203.7487 L102.4097,204.9757 C101.6227,206.5967 100.9707,208.2097 100.3917,209.9897 C97.8497,216.8457 96.2237,225.0527 95.4237,233.4097 C94.6227,241.7767 94.4957,250.1927 94.6517,257.8317 C94.8777,265.4957 95.1627,272.3427 95.3687,277.9137 C95.4917,280.6997 95.4227,283.1527 95.4157,285.2457 C95.3987,286.2907 95.3527,287.2417 95.2777,288.0927 C95.2027,288.9487 95.0607,289.5747 94.9137,290.1827 C97.5407,298.8647 100.5017,307.5677 103.8657,316.2297 L33.8997,343.2457 Z" id="Fill-24" fill="#b07753"/><path d="M23.1773,312.0695 L96.4353,290.0355 C99.0343,298.5815 101.9523,307.1515 105.2673,315.6885 L33.9023,343.2445 C29.9683,333.1025 26.4043,322.6985 23.1773,312.0695" id="Fill-27" fill="#8f6043"/><path d="M385.5669,243.8683 L171.0859,243.8683 L171.0859,83.8063 C171.0859,60.3383 190.1109,41.3123 213.5799,41.3123 L343.0729,41.3123 C366.5419,41.3123 385.5669,60.3383 385.5669,83.8063 L385.5669,243.8683 Z" id="Fill-31" fill="#edd8bc"/><path d="M317.0855,41.3127 C317.0855,57.8687 309.0855,78.8687 282.5855,78.8687 C251.0855,78.8687 238.0855,60.9497 238.0855,41.3127 L317.0855,41.3127 Z" id="SKIN" fill="#f0dec7"/><path d="M318.7583,254.1398 C347.1153,249.7228 373.9783,244.5978 399.7053,243.8688 L396.1803,203.5598 C372.0993,204.6068 346.9513,209.2838 320.4823,213.4328 C319.8933,228.7158 319.2893,242.6078 318.7583,254.1398" id="Fill-37" fill="#8f6043"/><path d="M158.6372,204.7111 L155.2122,243.8681 C181.9292,254.2741 226.3802,258.9841 250.7332,260.3371 C252.8602,248.4781 254.3202,234.8201 255.2592,220.0971 C230.5522,219.1351 185.7282,214.8261 158.6372,204.7111" id="Fill-39" fill="#8f6043"/><path d="M199.4487,43.1154 C181.9567,48.3784 169.2127,64.6004 169.2127,83.8064 L158.6367,204.7114 C185.7277,214.8264 230.5527,219.1354 255.2597,220.0964 C258.3117,172.1904 262.0857,75.8684 233.0857,60.8684 C233.0857,60.8684 212.0857,38.8684 199.4487,43.1154" id="Fill-41" fill="#b07753"/><path d="M320.482,213.4328 C346.952,209.2838 372.099,204.6068 396.18,203.5598 L385.706,83.8068 C385.706,62.4118 369.892,44.7178 349.317,41.7558 C346.65,52.1198 336.981,55.3718 323.086,61.8688 C323.739,106.2698 322.207,168.7458 320.482,213.4328" id="Fill-43" fill="#b07753"/><path d="M227.0855,0.8683 C186.0855,5.8683 182.1885,40.6323 199.4485,44.1153 C213.0855,46.8683 221.8295,62.8763 233.7895,69.0253 C236.4575,70.3973 239.5995,68.2963 239.3905,65.3033 C239.3315,64.4553 239.2725,63.6123 239.2135,62.7763 C238.5565,53.5053 239.9425,41.6473 249.2365,41.7183 C265.8995,41.8423 290.8505,41.8233 306.8815,41.6823 C315.5775,41.6053 322.7405,49.5103 322.9515,58.2043 C322.9865,59.6313 323.0195,61.0753 323.0485,62.5333 C323.1065,65.4723 326.2935,67.2783 328.8445,65.8173 C339.6535,59.6263 347.0305,51.6393 349.3165,42.7563 C349.8125,40.8313 350.0855,38.8673 350.0855,36.8683 C350.0855,13.6723 268.7535,-4.2127 227.0855,0.8683" id="Fill-45" fill="#8f6043"/></g></g></g><g id="Head" transform="translate(338.000000, -61.000000) scale(1 1)"><g id="Head/Long Wavy" stroke="none" stroke-width="1" fill="none" fill-rule="evenodd"><path d="M-14.5,234 L-6.5,234 C16.42,234 35,215.42 35,192.5 L35,143 L-15.226,143 C-37.745,143 -56,161.255 -56,183.774 L-56,192.5 C-56,215.42 -37.42,234 -14.5,234" id="Fill-19" fill="#000000"/><path d="M51,132.5 C51,109.028 31.972,90 8.5,90 C-14.972,90 -34,109.028 -34,132.5 C-34,155.972 -14.972,175 8.5,175 C31.972,175 51,155.972 51,132.5" id="Fill-1" fill="#000000"/><path d="M127,101.5 C127,78.028 107.972,59 84.5,59 C61.028,59 42,78.028 42,101.5 C42,124.972 61.028,144 84.5,144 C107.972,144 127,124.972 127,101.5" id="Fill-3" fill="#000000"/><path d="M122,155 C122,138.432 108.569,125 92,125 C75.431,125 62,138.432 62,155 C62,171.568 75.431,185 92,185 C108.569,185 122,171.568 122,155" id="Fill-5" fill="#000000"/><path d="M52.801,171 L72,171 L72,59 L52.801,59 C24.744,59 2,81.744 2,109.801 L2,120.199 C2,148.256 24.744,171 52.801,171" id="Fill-7" fill="#000000"/><g id="head" transform="translate(22.000000, 72.000000)"><g fill="#f0dec7" id="SKIN"><path d="M13,62 L58,62 L58,113.633 C58,127.538 47.926,138.81 35.5,138.81 C23.074,138.81 13,127.538 13,113.633 L13,62 Z"/><path d="M60.0525,94 L55.0655,94 C31.8335,94 13.0005,75.167 13.0005,51.935 L13.0005,32.203 C13.0005,14.418 27.4175,0 45.2035,0 L50.7965,0 C68.5825,0 83.0005,14.418 83.0005,32.203 L83.0005,71.052 C83.0005,83.726 72.7265,94 60.0525,94"/><path d="M25,58.5 C25,65.403 19.404,71 12.5,71 C5.596,71 0,65.403 0,58.5 C0,51.597 5.596,46 12.5,46 C19.404,46 25,51.597 25,58.5"/></g><path d="M10.067,53.1685 C10.9718309,53.1685 12.2239875,53.3771928 13.5088204,54.0196092 C15.6553998,55.0928989 17.0130325,57.055328 17.10411,59.9021045 L17.109,60.2105 L14.109,60.2105 C14.109,58.3751144 13.4076866,57.3231443 12.1671796,56.7028908 C11.7065142,56.4725581 11.1976823,56.3199085 10.686339,56.2346846 C10.4347302,56.1927498 10.2385731,56.1747448 10.1250097,56.169908 L10.067,56.1685 L10.067,53.1685 Z" id="ear-line" fill="#000000"/><path d="M34.7507501,96.3316762 C25.4557924,93.0435693 20.8185822,84.7386742 18.9822222,73.5680961 C26.2532122,85.6701724 39.4406226,93.8132264 54.5439426,93.9967331 L55.0655,93.9999 L58,93.9999 C50.0632106,98.2297391 42.3134606,99.0069978 34.7507501,96.3316762 Z" id="SHADOW" fill="#000000" opacity=".12"/></g><path d="M34.3395164,118 C25.3401171,118 19.7014935,96.618 19.0235388,85.952 C18.0946008,71.334 44.8808128,59 60.3367811,59 L86.3260463,59 L102,90.263 L60.0298015,90.263 C53.2572536,107.39 43.3389157,118 34.3395164,118" id="Fill-17" fill="#000000"/></g></g><g id="Expression" transform="translate(385.000000, 34.000000) scale(1 1)" fill="#000000"><g id="Expression/Happy 2" stroke="none" stroke-width="1" fill="none" fill-rule="evenodd"><polygon id="Stroke-5" fill="#000000" points="33.1977829 19.396766 36.1476171 18.850434 40.4350211 41.9996 30.5607 41.9996 30.5607 38.9996 36.828 38.999"/><path d="M21.9219,41.586 C21.9219,45.2602625 25.6639817,48.6581933 29.6815435,48.7900329 L29.9229,48.794 L29.9229,51.794 C24.3252295,51.794 19.0961019,47.2280163 18.9261594,41.8552911 L18.9219,41.586 L21.9219,41.586 Z" id="Stroke-7" fill="#000000"/><path d="M24.8347,7.0006 L24.8347,10.0006 C20.8614229,10.0006 17.2383573,11.0660474 14.0359527,12.8448841 C12.9150836,13.4674922 11.9293314,14.1334356 11.0897152,14.7961842 L10.7861407,15.040601 C10.5074069,15.2697737 10.3035438,15.4516564 10.1776864,15.572233 L10.1212727,15.6273476 L8.00012725,13.5058524 C8.85065801,12.6554618 10.3987207,11.4335033 12.5791973,10.2223159 C16.0571889,8.29039915 19.9861553,7.09862919 24.2942223,7.00637866 L24.8347,7.0006 Z" id="Stroke-4" fill="#000000"/><path d="M36.8954,7.3444 C40.8877089,7.3444 44.5189484,8.41234066 47.7173411,10.1891511 C49.5298313,11.196048 50.8489395,12.2124881 51.6282721,12.9590003 L51.7680602,13.0957398 L49.6467398,15.2170602 C49.5206826,15.0910029 49.2403474,14.8394225 48.8151324,14.5037331 C48.0875713,13.9293541 47.2327349,13.3517796 46.2604589,12.8116489 C43.6148805,11.3419446 40.6390044,10.4338096 37.3855011,10.3506532 L36.8954,10.3444 L36.8954,7.3444 Z" id="Stroke-6" fill="#000000"/><path d="M12.441685,23.929414 C14.9313631,17.7052186 25.7247131,17.6293138 27.2529395,23.9551094 L27.305271,24.1923258 L24.363529,24.7806742 C23.6883751,21.4049049 16.9493145,21.3456809 15.3099937,24.8523178 L15.227115,25.043586 L12.441685,23.929414 Z" id="Stroke-8" fill="#000000"/><path d="M37.441685,23.929414 C39.9313631,17.7052186 50.7247131,17.6293138 52.2529395,23.9551094 L52.305271,24.1923258 L49.363529,24.7806742 C48.6883751,21.4049049 41.9493145,21.3456809 40.3099937,24.8523178 L40.227115,25.043586 L37.441685,23.929414 Z" id="Stroke-10" fill="#000000"/></g></g><g id="Accessories" transform="translate(372.000000, 56.000000) scale(1 1)" fill="#000000"><g id="Accessories/N65" stroke="none" stroke-width="1" fill="none" fill-rule="evenodd"><path d="M55.1977784,0.766509801 C61.8672688,0.766509801 65.5931791,6.91877559 68.3190852,9.67622448 C68.5366389,9.86933778 68.7500465,10.0676638 68.9593821,10.2698541 C69.0753941,10.3682311 69.1897807,10.4565674 69.3026336,10.535583 L69.2915753,10.5973925 C73.2112403,14.5427001 75.6165684,19.8776287 75.6165684,25.7499259 C75.6165684,37.9001904 65.3191176,47.7499259 52.6165684,47.7499259 C39.9140192,47.7499259 29.6165684,37.9001904 29.6165684,25.7499259 C29.6165684,17.6330728 34.2120776,10.5428914 41.0501479,6.73002773 L41.0440543,6.69219525 L41.0440543,6.69219525 C46.4836096,4.14573474 47.6906867,0.766509801 55.1977784,0.766509801 Z" id="Clothe" fill="#ecd5b7"/><path d="M32.6165684,20.7333421 C32.6165684,32.8836066 42.9140192,42.7333421 55.6165684,42.7333421 C63.0741024,42.7333421 69.702661,39.3383929 73.9051908,34.0761112 C70.4693708,42.0893844 62.2320375,47.7333421 52.6165684,47.7333421 C39.9140192,47.7333421 29.6165684,37.8836066 29.6165684,25.7333421 C29.6165684,20.7166936 31.3720069,16.0922234 34.3273758,12.3912869 C33.2246542,14.9640107 32.6165684,17.7807509 32.6165684,20.7333421 Z" id="SHADOW" fill="#000000" opacity=".12"/><line x1="0" y1="0" x2="34.913" y2="14.229" id="Path-4" stroke="#19281d" stroke-width="2"/><line x1="33.673" y1="28.173" x2="0" y2="28.173" id="Path-5" stroke="#19281d" stroke-width="2"/></g></g><g id="Glasses" transform="translate(364.000000, 42.000000) scale(1 1)" fill="#000000"><g id="Glasses/None" stroke="none" stroke-width="1" fill="none" fill-rule="evenodd" fill-opacity="0"/></g></g></g></g></g></g></svg>