<svg width="784" height="1000" viewBox="0 0 784 1000" fill="none" xmlns="http://www.w3.org/2000/svg">
<g filter="url(#filter0_d_47_2509)">
<path fill-rule="evenodd" clip-rule="evenodd" d="M403.834 696.191C403.834 696.191 434.968 700.622 465.515 711.627C490.922 720.782 516.695 736.858 516.695 736.858C592.733 740.014 664.225 699.408 690.475 631.712C723.23 547.227 673.098 452.532 578.506 420.209C483.906 387.887 380.665 430.178 347.906 514.665C322.426 580.389 347.095 652.281 403.834 696.191Z" fill="#F8F0E5"/>
<path fill-rule="evenodd" clip-rule="evenodd" d="M325.827 333.781C325.827 333.781 296.922 322.05 264.804 316.189C238.089 311.313 207.159 312.124 207.159 312.124C140.893 276.972 103.186 206.973 119.141 136.51C139.054 48.5627 235.021 -6.80504 333.489 12.843C431.958 32.4911 495.639 119.715 475.726 207.662C460.236 276.071 398.731 324.767 325.827 333.781Z" fill="#F8F0E5"/>
<path fill-rule="evenodd" clip-rule="evenodd" d="M309.439 103.549C287.89 99.6021 266.64 111.769 261.974 130.726C261.019 134.607 260.845 138.468 261.339 142.194C261.207 142.166 261.08 142.13 260.946 142.105C255.267 141.065 249.742 143.966 248.605 148.585C247.469 153.203 251.151 157.79 256.83 158.83C259.968 159.405 263.057 158.773 265.386 157.314C266.227 156.787 267.296 156.911 267.866 157.651C272.04 163.08 277.949 167.48 285.09 170.146C286.007 170.488 286.475 171.466 286.182 172.417L280.496 191L298.551 194.307L301.363 179.335C302.021 175.794 304.903 172.894 308.527 172.256C323.756 169.574 336.521 159.194 340.01 145.018C344.675 126.062 330.988 107.496 309.439 103.549Z" fill="#CF8C62"/>
<path fill-rule="evenodd" clip-rule="evenodd" d="M317.12 90.5808C322.417 84.3158 330.344 80.8861 338.119 82.3101C349.65 84.422 356.471 96.4004 353.354 109.066C350.237 121.729 338.363 130.284 326.831 128.173C321.983 127.284 318.081 122.334 315.287 118.639C311.66 123.819 303.81 127.366 294.674 126.462C288.46 125.847 283.879 121.567 280.955 118.835C280.756 118.65 280.566 118.471 280.383 118.302C280.318 119.208 280.183 120.126 279.955 121.052C278.029 128.88 275.775 134.496 265.673 136.491C265.961 138.161 265.922 139.945 265.476 141.759C263.821 148.485 257.351 152.999 251.026 151.841C244.701 150.682 240.916 144.29 242.571 137.564C243.943 131.99 248.621 127.948 253.784 127.381C242.931 120.623 244.793 103.616 257.011 98.0105C262.466 95.5072 268.144 96.2408 273.212 98.5875C268.826 89.4996 269.99 78.0795 279.114 71.3877C284.661 67.3202 292.118 66.0267 298.611 67.2159C310.652 69.4212 318.502 79.6037 317.12 90.5808ZM257.121 159.468C259.908 159.755 262.594 159.118 264.674 157.815C265.514 157.287 266.585 157.412 267.154 158.152C271.065 163.238 276.499 167.422 283.042 170.122C281.116 171.223 278.625 171.517 276.272 170.711C274.299 170.036 272.802 168.72 271.976 167.141C269.744 168.516 266.481 168.842 263.327 167.761C259.021 166.287 256.432 162.714 257.121 159.468Z" fill="#C9B192"/>
<path fill-rule="evenodd" clip-rule="evenodd" d="M294.483 144.9C294.425 144.329 294.851 143.795 295.434 143.706C296.017 143.618 296.537 144.009 296.595 144.58C296.609 144.719 296.654 144.998 296.743 145.372C296.894 146.004 297.116 146.65 297.42 147.267C298.259 148.973 299.54 150.113 301.379 150.454C303.244 150.799 304.982 150.271 306.58 149.117C307.153 148.703 307.666 148.237 308.107 147.759C308.367 147.477 308.54 147.261 308.619 147.151C308.965 146.667 309.629 146.53 310.102 146.845C310.575 147.161 310.678 147.809 310.332 148.293C309.848 148.97 308.983 149.906 307.772 150.781C305.715 152.267 303.385 152.975 300.878 152.51C298.345 152.041 296.592 150.479 295.5 148.261C294.861 146.963 294.568 145.735 294.483 144.9Z" fill="#010101"/>
<path fill-rule="evenodd" clip-rule="evenodd" d="M322.732 150.495C322.597 149.942 322.949 149.36 323.519 149.197C324.089 149.033 324.661 149.349 324.796 149.902C324.83 150.04 324.911 150.311 325.046 150.673C325.275 151.285 325.57 151.91 325.935 152.507C326.947 154.158 328.284 155.263 329.982 155.577C331.622 155.881 333.195 155.254 334.68 153.938C335.224 153.456 335.713 152.916 336.137 152.365C336.388 152.037 336.558 151.785 336.638 151.653C336.944 151.146 337.597 150.956 338.096 151.231C338.596 151.505 338.752 152.138 338.446 152.646C338.326 152.846 338.11 153.167 337.803 153.566C337.297 154.226 336.712 154.87 336.051 155.456C334.095 157.19 331.875 158.074 329.481 157.631C327.145 157.198 325.38 155.741 324.103 153.656C323.356 152.437 322.924 151.279 322.732 150.495Z" fill="#010101"/>
<path fill-rule="evenodd" clip-rule="evenodd" d="M304.973 159.21C304.775 158.676 305.062 158.061 305.615 157.836C306.167 157.611 306.776 157.861 306.974 158.396C307.016 158.509 307.124 158.748 307.309 159.076C307.626 159.639 308.038 160.224 308.554 160.795C310.832 163.313 314.246 164.72 319.117 164.276C319.703 164.223 320.197 164.647 320.219 165.224C320.241 165.801 319.784 166.313 319.197 166.366C313.653 166.871 309.622 165.21 306.935 162.239C305.872 161.064 305.251 159.959 304.973 159.21Z" fill="#010101"/>
<path fill-rule="evenodd" clip-rule="evenodd" d="M377.829 222.77C377.603 222.276 377.358 221.864 377.093 221.545C368.742 211.505 325.182 195.396 325.182 195.396C325.182 195.396 325.218 187.069 323.358 184.192C321.499 181.317 284.635 174.891 282.83 175.391C281.025 175.891 276.725 184.234 276.725 184.234C267.013 182.931 257.907 183.67 248.283 184.513C233.593 184.481 211.635 187.932 191.216 204.794C156.358 233.577 113.394 286.726 109.823 316.056C106.252 345.385 139.149 364.304 184.853 328.21C195.037 320.168 201.729 314.897 208.963 308.543C206.97 310.816 204.164 316.841 206.7 317.712C239.767 329.064 289.201 335.993 317.904 338.025C309.58 381.625 319.839 396.271 329.421 406.617C337.063 414.871 349.331 417.313 360.485 413.161C371.393 409.101 385.318 399.682 390.913 377.829C400.701 339.587 398.221 306.762 396.948 264.759C396.347 244.926 387.257 231.462 377.829 222.77Z" fill="#3F6749"/>
<path fill-rule="evenodd" clip-rule="evenodd" d="M288.763 177.177C288.933 176.823 289.357 176.655 289.711 176.801C290.064 176.947 290.213 177.352 290.043 177.705L285.427 187.339C285.257 187.692 284.833 187.861 284.48 187.715C284.127 187.569 283.977 187.164 284.146 186.81L288.763 177.177ZM215.003 245.037L215.175 244.962L215.262 244.924L240.485 274.772C238.456 279.164 231.379 287.122 221.351 296.852C217.696 300.399 213.881 303.949 210.594 306.9C209.316 308.046 208.223 309.007 207.531 309.596C207.417 309.692 207.316 309.777 207.23 309.848C207.119 309.884 207.014 309.947 206.925 310.036C206.8 310.162 206.741 310.226 206.685 310.314L206.675 310.324L206.666 310.332C206.659 310.34 206.652 310.347 206.645 310.356C206.602 310.414 206.606 310.505 206.628 310.972L206.629 310.973C206.975 311.349 206.975 311.349 207.287 311.355L207.287 311.356L207.288 311.355C207.406 311.337 207.443 311.331 207.478 311.32C207.494 311.314 207.51 311.308 207.532 311.299C207.615 311.265 207.664 311.233 207.737 311.181C207.86 311.094 208.089 310.906 208.428 310.619C209.132 310.02 210.236 309.051 211.522 307.895C214.824 304.931 218.653 301.368 222.323 297.807C232.818 287.623 240.069 279.425 241.961 274.853C242.059 274.617 242.022 274.354 241.863 274.166L216.054 243.625C215.863 243.399 215.537 243.328 215.248 243.448C215.213 243.463 215.147 243.491 215.051 243.533C214.889 243.601 214.7 243.684 214.483 243.779C213.863 244.05 213.143 244.374 212.329 244.749C210.008 245.818 207.403 247.085 204.575 248.543C196.498 252.706 188.248 257.569 180.305 263.088C174.718 266.97 169.481 271.045 164.684 275.307C164.386 275.572 164.351 276.011 164.606 276.287C164.861 276.563 165.309 276.572 165.607 276.308C170.355 272.089 175.545 268.05 181.085 264.202C188.969 258.724 197.161 253.894 205.182 249.76C207.989 248.312 210.573 247.056 212.876 245.996C213.681 245.625 214.392 245.305 215.003 245.037ZM329.447 289.797C329.952 287.884 330.416 286.145 330.828 284.615C330.97 284.088 331.096 283.623 331.205 283.224L375.578 280.053C376.647 286.669 376.664 297.185 375.846 310.489C375.345 318.616 374.565 327.28 373.621 335.916C373.29 338.938 372.963 341.742 372.653 344.254C372.546 345.133 372.447 345.913 372.361 346.584C372.331 346.82 372.304 347.025 372.281 347.198L372.254 347.407C372.203 347.788 372.476 348.12 372.865 348.149C373.253 348.178 373.61 347.891 373.661 347.51L373.689 347.297C373.701 347.205 373.715 347.102 373.729 346.992L373.769 346.681C373.856 346.007 373.954 345.224 374.063 344.343C374.373 341.824 374.701 339.015 375.032 335.986C375.978 327.331 376.761 318.645 377.262 310.495C378.112 296.694 378.069 285.871 376.879 279.163C376.82 278.83 376.517 278.602 376.167 278.627L330.646 281.88C330.33 281.903 330.056 282.126 329.973 282.427L329.948 282.522L329.901 282.693L329.839 282.921C329.729 283.325 329.601 283.797 329.456 284.334C329.043 285.866 328.579 287.607 328.073 289.523C325.558 299.06 323.064 308.986 320.914 318.296C319.035 326.426 317.552 333.521 316.56 339.28C316.495 339.661 316.755 340.003 317.142 340.046C317.529 340.089 317.895 339.815 317.96 339.435C318.946 333.705 320.424 326.634 322.297 318.527C324.445 309.234 326.935 299.321 329.447 289.797ZM298.43 178.38C298.045 178.327 297.672 178.591 297.596 178.97L295.692 188.51C295.616 188.888 295.867 189.239 296.251 189.291C296.636 189.344 297.009 189.079 297.085 188.7L298.989 179.161C299.065 178.783 298.814 178.432 298.43 178.38ZM306.554 180.651C306.606 180.269 306.963 179.984 307.352 180.014C307.74 180.043 308.013 180.376 307.961 180.758L306.663 190.26C306.611 190.641 306.254 190.926 305.866 190.897C305.477 190.868 305.204 190.534 305.256 190.153L306.554 180.651ZM316.158 182.448C315.765 182.466 315.444 182.789 315.44 183.171L315.332 192.693C315.327 193.075 315.642 193.371 316.034 193.354C316.426 193.336 316.747 193.013 316.751 192.631L316.86 183.11C316.864 182.728 316.55 182.432 316.158 182.448Z" fill="#63A172"/>
<path fill-rule="evenodd" clip-rule="evenodd" d="M333.351 185.878L363.807 206.606C365.512 207.767 365.861 210.102 364.591 211.839L318.241 275.182C316.871 277.054 314.404 277.821 312.297 277.032L277.007 263.809C274.077 262.711 273.109 259.182 275.027 256.587L326.285 187.229C327.957 184.968 331.123 184.362 333.351 185.878Z" fill="#010101"/>
<path fill-rule="evenodd" clip-rule="evenodd" d="M314.758 257.539C314.758 257.539 302.362 241.563 300.559 233.71C298.57 225.044 304.597 226.059 304.597 226.059C302.588 214.221 312.686 219.125 312.686 219.125C309.986 211.953 314.239 209.873 316.779 210.896C322.687 213.277 333.889 226.351 333.889 226.351C332.669 224.114 330.954 221.817 329.218 219.49C326.174 215.411 323.06 211.24 322.418 207.138C320.42 194.37 332.66 203.97 337.65 210.514C342.114 216.366 353.299 231.133 353.299 231.133C353.299 231.133 352.267 220.818 353.973 213.866C355.678 206.915 362.503 201.785 363.716 207.732C363.984 209.046 364.558 212.441 365.249 216.532C366.423 223.484 367.937 232.446 368.87 236.637C370.354 243.294 376.295 280.39 376.295 280.39L331.578 283.395C331.578 283.395 319.722 276.469 314.758 257.539ZM245.601 213.119C230.999 218.054 214.948 244.847 214.948 244.847L240.888 275.57L251.143 265.968C251.138 265.99 251.134 266.013 251.131 266.036C251.124 266.08 251.117 266.124 251.097 266.163C248.445 271.188 254.498 273.874 258.668 272.038C276.545 264.167 271.138 254.767 271.138 254.767C280.531 248.013 275.386 241.506 275.386 241.506C285.518 230.617 275.053 227.339 275.053 227.339C294.47 223.591 307.106 211.939 297.575 210.187C288.043 208.436 245.601 213.119 245.601 213.119Z" fill="#CF8C62"/>
<path fill-rule="evenodd" clip-rule="evenodd" d="M312.327 219.491C312.004 219.292 311.924 218.865 312.147 218.54C312.37 218.214 312.812 218.113 313.134 218.313C313.195 218.351 313.31 218.423 313.473 218.529C313.743 218.705 314.055 218.913 314.404 219.151C315.4 219.831 316.499 220.626 317.672 221.527C321.021 224.102 324.285 227.023 327.216 230.233C329.767 233.028 331.946 235.919 333.667 238.891C333.855 239.215 333.729 239.641 333.385 239.843C333.041 240.044 332.61 239.944 332.422 239.619C330.75 236.733 328.625 233.914 326.133 231.184C323.258 228.033 320.048 225.163 316.756 222.631C315.604 221.745 314.524 220.965 313.548 220.298C313.207 220.065 312.904 219.863 312.642 219.693C312.486 219.592 312.38 219.525 312.327 219.491ZM340.785 234.278C341.126 234.072 341.246 233.644 341.052 233.322C340.997 233.229 340.891 233.06 340.738 232.824C340.485 232.434 340.19 231.997 339.854 231.524C338.897 230.174 337.809 228.8 336.608 227.483C335.637 226.417 334.632 225.433 333.597 224.553C333.309 224.309 332.86 224.348 332.594 224.642C332.327 224.936 332.344 225.373 332.631 225.616C333.622 226.459 334.589 227.405 335.525 228.433C336.687 229.708 337.743 231.042 338.672 232.351C338.997 232.81 339.283 233.231 339.526 233.607C339.671 233.831 339.769 233.988 339.817 234.069C340.01 234.39 340.444 234.484 340.785 234.278ZM275.511 240.15C275.868 239.705 276.238 239.207 276.601 238.669C277.471 237.381 278.16 236.077 278.564 234.832C279.376 232.334 278.959 230.408 276.966 229.134C275.027 227.893 271.452 227.246 266.718 227.122C264.568 227.066 262.253 227.118 259.852 227.26C258.093 227.364 256.39 227.508 254.81 227.675C254.257 227.733 253.759 227.79 253.324 227.843C253.065 227.875 252.884 227.899 252.792 227.911C252.402 227.964 252.058 227.701 252.024 227.322C251.991 226.944 252.28 226.595 252.671 226.541C252.77 226.527 252.957 226.503 253.223 226.471C253.666 226.416 254.172 226.359 254.733 226.3C256.335 226.131 258.06 225.984 259.843 225.879C262.283 225.736 264.638 225.681 266.833 225.739C271.805 225.869 275.583 226.553 277.789 227.965C280.348 229.602 280.901 232.152 279.916 235.184C279.464 236.573 278.715 237.992 277.774 239.385C277.387 239.959 276.992 240.49 276.611 240.965C276.575 241.009 276.541 241.052 276.507 241.093C278.153 242.903 278.608 244.943 278.016 247.094C277.499 248.977 276.227 250.813 274.476 252.551C273.85 253.172 273.205 253.736 272.576 254.236C272.439 254.344 272.309 254.445 272.186 254.537C273.595 257.11 272.811 260.537 270.351 264.027C267.878 267.535 264.017 270.603 260.684 271.667C257.329 272.738 254.277 272.83 252.313 271.858C250.079 270.755 249.469 268.437 250.727 265.401C251.467 263.616 252.602 262.204 253.988 261.126C255.077 260.28 256.083 259.799 256.753 259.594C257.132 259.478 257.52 259.678 257.618 260.042C257.718 260.406 257.49 260.795 257.111 260.912C256.999 260.946 256.771 261.033 256.46 261.182C255.93 261.435 255.378 261.768 254.835 262.19C253.647 263.113 252.677 264.321 252.04 265.859C251.038 268.278 251.452 269.847 253.009 270.618C254.595 271.401 257.281 271.321 260.309 270.355C263.304 269.398 266.901 266.54 269.195 263.286C271.668 259.778 272.192 256.532 270.37 254.448C269.02 252.901 266.51 252.035 263.128 251.774C261.126 251.619 258.92 251.684 256.634 251.915C255.508 252.029 254.436 252.175 253.455 252.338C253.112 252.395 252.806 252.45 252.54 252.5C252.382 252.53 252.274 252.552 252.22 252.563C251.833 252.645 251.468 252.409 251.405 252.036C251.342 251.663 251.605 251.294 251.992 251.212C252.055 251.198 252.174 251.174 252.341 251.143C252.618 251.09 252.936 251.033 253.291 250.974C254.302 250.806 255.405 250.656 256.564 250.539C258.929 250.3 261.219 250.233 263.316 250.394C266.965 250.676 269.756 251.624 271.395 253.431C271.497 253.354 271.604 253.271 271.717 253.181C272.305 252.715 272.907 252.187 273.49 251.609C275.075 250.037 276.208 248.4 276.646 246.804C277.182 244.855 276.653 243.063 274.774 241.407C272.77 239.64 269.452 238.788 265.136 238.73C262.493 238.694 259.589 238.958 256.568 239.448C254.854 239.726 253.21 240.059 251.695 240.415C251.165 240.539 250.689 240.658 250.276 240.767C250.029 240.831 249.859 240.878 249.773 240.903C249.392 241.011 249.009 240.802 248.918 240.435C248.828 240.069 249.063 239.684 249.444 239.576C249.54 239.549 249.72 239.499 249.978 239.432C250.403 239.32 250.891 239.198 251.433 239.071C252.981 238.707 254.659 238.367 256.409 238.084C259.509 237.581 262.495 237.31 265.232 237.347C269.688 237.406 273.21 238.273 275.511 240.15ZM304.128 225.377C303.877 225.684 303.917 226.117 304.219 226.346C304.273 226.386 304.381 226.47 304.539 226.596C304.804 226.807 305.111 227.057 305.455 227.347C306.443 228.176 307.532 229.146 308.693 230.251C312.009 233.409 315.218 237.001 318.063 240.959C320.271 244.034 322.169 247.211 323.691 250.472C323.849 250.812 324.269 250.948 324.627 250.774C324.985 250.601 325.147 250.184 324.989 249.844C323.432 246.507 321.494 243.262 319.239 240.125C316.345 236.097 313.083 232.447 309.712 229.237C308.532 228.113 307.422 227.124 306.415 226.278C306.061 225.981 305.745 225.723 305.471 225.505C305.305 225.374 305.189 225.283 305.127 225.237C304.826 225.008 304.379 225.072 304.128 225.377Z" fill="#664430"/>
<path fill-rule="evenodd" clip-rule="evenodd" d="M565.643 593.266C562.615 592.268 560.349 590.275 559.225 587.945C558.818 587.102 557.827 586.704 556.896 587.059C550.095 589.659 542.421 590.573 534.726 589.445C533.738 589.3 532.755 589.904 532.44 590.843L526.32 608.99L508.903 603.244L515.333 589.497C517.04 585.854 515.599 581.339 512.115 579.486C500.044 573.069 496.135 560.451 502.155 545.818C510.54 525.437 534.461 519.087 555.248 525.944C576.035 532.801 585.267 548.985 577.974 567.158C576.618 570.536 574.721 573.596 572.408 576.305C572.074 576.696 572.204 577.263 572.677 577.427C575.365 578.367 581.806 581.078 578.779 588.52C576.981 592.941 571.121 595.073 565.643 593.266Z" fill="#875B40"/>
<path fill-rule="evenodd" clip-rule="evenodd" d="M520.435 523.604C514.047 519.571 511.168 512.041 513.937 505.132C517.24 496.892 527.325 492.659 536.462 495.677C545.598 498.694 550.328 507.821 547.025 516.061C546.401 517.619 545.533 519.033 544.476 520.282C556.838 521.479 568.243 526.935 576.093 536.172C576.442 536.583 576.782 537.004 577.117 537.431C577.188 537.229 577.26 537.027 577.341 536.826C580.644 528.585 590.728 524.351 599.865 527.369C609.003 530.387 613.731 539.513 610.428 547.754C607.125 555.994 597.041 560.228 587.903 557.21C586.298 556.68 584.833 555.958 583.52 555.088C583.261 561.758 580.037 569.227 571.927 577.31C571.927 577.31 552.374 566.978 544.102 536.983C544.102 536.983 512.398 541.103 504.281 541.878C504.281 541.878 506.215 529.814 520.435 523.604Z" fill="#C9B192"/>
<path fill-rule="evenodd" clip-rule="evenodd" d="M538.432 564.614C538.727 564.112 538.56 563.495 538.057 563.236C537.555 562.977 536.908 563.174 536.612 563.676C536.541 563.797 536.395 564.034 536.178 564.368C535.813 564.931 535.385 565.552 534.9 566.215C533.513 568.106 531.945 569.937 530.233 571.554C525.705 575.833 521.059 577.826 516.499 576.663C512.07 575.534 511.053 569.933 512.783 561.252C513.357 558.376 514.196 555.362 515.197 552.374C515.562 551.281 515.929 550.254 516.284 549.312C516.523 548.68 516.723 548.172 516.871 547.809C516.898 547.743 516.898 547.743 516.903 547.732C517.125 547.199 516.869 546.616 516.33 546.43C515.792 546.243 515.174 546.524 514.952 547.057C514.945 547.075 514.945 547.075 514.915 547.147C514.759 547.528 514.552 548.055 514.306 548.706C513.942 549.672 513.567 550.723 513.192 551.841C512.166 554.907 511.304 558.002 510.712 560.972C508.793 570.598 509.982 577.145 515.858 578.643C521.283 580.026 526.635 577.73 531.663 572.979C533.483 571.26 535.137 569.33 536.598 567.337C537.109 566.639 537.56 565.983 537.947 565.387C538.083 565.177 538.202 564.989 538.303 564.826C538.365 564.725 538.408 564.654 538.432 564.614Z" fill="#010101"/>
<path fill-rule="evenodd" clip-rule="evenodd" d="M414.809 618.648C438.057 592.187 474.437 592.133 500.716 596.678C502.913 594.533 508.754 588.986 511.834 587.551C515.677 585.759 546.84 597.073 550.53 599.991C554.22 602.911 551.314 614.38 551.314 614.38C567.75 623.417 589.727 638.414 593.905 655.43C599.015 676.248 603.834 707.385 605.829 720.953C607.161 730.021 605.058 739.476 599.595 747.311C591.184 759.374 572.993 770.911 533.716 761.762C463.015 745.293 402.969 716.855 402.969 716.855C402.969 716.855 353.489 703.379 363.237 679.061C372.173 656.765 414.809 618.648 414.809 618.648Z" fill="#FFAC78"/>
<mask id="mask0_47_2509" style="mask-type:alpha" maskUnits="userSpaceOnUse" x="361" y="587" width="246" height="179">
<path fill-rule="evenodd" clip-rule="evenodd" d="M414.811 618.649C438.06 592.187 474.439 592.132 500.718 596.677C502.916 594.531 508.757 588.984 511.837 587.549C515.679 585.757 546.842 597.07 550.532 599.989C554.222 602.909 551.316 614.378 551.316 614.378C567.751 623.414 589.727 638.412 593.905 655.428C599.014 676.246 603.833 707.384 605.827 720.952C607.159 730.019 605.056 739.475 599.592 747.311C591.181 759.373 572.99 770.911 533.714 761.763C463.014 745.295 402.969 716.858 402.969 716.858C402.969 716.858 353.49 703.383 363.238 679.064C372.175 656.767 414.811 618.649 414.811 618.649Z" fill="white"/>
</mask>
<g mask="url(#mask0_47_2509)">
<path fill-rule="evenodd" clip-rule="evenodd" d="M611.331 623.735C610.863 624.588 610.863 626.196 611.728 626.605C612.593 627.014 613.994 626.07 614.463 625.218C614.931 624.365 614.738 623.107 613.873 622.697C613.009 622.288 611.799 622.883 611.331 623.735ZM590.393 621.766C589.529 621.358 589.529 619.75 589.997 618.897C590.465 618.044 591.675 617.45 592.54 617.859C593.404 618.268 593.597 619.525 593.129 620.379C592.661 621.231 591.259 622.176 590.393 621.766ZM531.238 607.863C530.506 607.621 530.422 606.153 530.762 605.303C531.103 604.454 532.067 603.727 532.799 603.969C533.531 604.21 533.755 605.329 533.414 606.179C533.074 607.029 531.97 608.104 531.238 607.863ZM670.078 659.267C669.346 659.025 669.262 657.558 669.603 656.707C669.944 655.858 670.908 655.132 671.64 655.373C672.372 655.615 672.596 656.733 672.255 657.583C671.914 658.433 670.81 659.509 670.078 659.267ZM532.691 623.896C531.959 623.655 531.875 622.187 532.216 621.337C532.557 620.488 533.521 619.761 534.253 620.002C534.985 620.244 535.209 621.363 534.868 622.213C534.527 623.063 533.423 624.138 532.691 623.896ZM547.822 629.227C546.906 628.925 545.774 629.653 545.414 630.549C545.055 631.445 545.259 633.031 546.175 633.334C547.091 633.636 548.37 632.54 548.73 631.644C549.089 630.747 548.738 629.529 547.822 629.227ZM619.781 710.955C619.422 711.851 619.626 713.438 620.541 713.74C621.457 714.042 622.737 712.946 623.097 712.05C623.456 711.153 623.104 709.936 622.188 709.633C621.273 709.331 620.14 710.059 619.781 710.955ZM552.506 748.601C551.591 748.299 551.386 746.713 551.746 745.817C552.105 744.921 553.237 744.193 554.153 744.495C555.068 744.797 555.42 746.015 555.061 746.911C554.701 747.808 553.422 748.903 552.506 748.601ZM548.042 689.069C548.956 689.371 550.237 688.275 550.596 687.379C550.956 686.482 550.603 685.264 549.689 684.962C548.773 684.66 547.641 685.388 547.281 686.284C546.922 687.18 547.126 688.767 548.042 689.069ZM622.409 769.475C621.493 769.172 621.289 767.587 621.648 766.69C622.007 765.794 623.14 765.066 624.055 765.368C624.97 765.67 625.322 766.889 624.963 767.785C624.604 768.681 623.323 769.777 622.409 769.475ZM481.653 719.823C480.738 719.521 479.606 720.249 479.246 721.145C478.887 722.042 479.091 723.627 480.006 723.929C480.922 724.231 482.202 723.136 482.561 722.24C482.921 721.343 482.568 720.125 481.653 719.823ZM617.804 658.274C616.888 657.972 616.684 656.386 617.043 655.489C617.403 654.593 618.535 653.865 619.451 654.167C620.366 654.469 620.718 655.687 620.358 656.584C619.999 657.48 618.719 658.576 617.804 658.274ZM653.442 671.916C653.083 672.812 653.287 674.399 654.202 674.701C655.118 675.003 656.398 673.907 656.757 673.01C657.117 672.114 656.765 670.896 655.849 670.594C654.934 670.292 653.802 671.019 653.442 671.916ZM606.583 701.743C606.242 702.594 606.326 704.061 607.058 704.303C607.79 704.545 608.894 703.469 609.235 702.619C609.575 701.769 609.352 700.65 608.62 700.409C607.888 700.167 606.923 700.894 606.583 701.743ZM538.548 736.605C538.207 737.455 538.291 738.922 539.023 739.164C539.755 739.406 540.859 738.33 541.2 737.481C541.54 736.631 541.316 735.512 540.584 735.27C539.852 735.029 538.888 735.755 538.548 736.605ZM534.558 679.631C533.826 679.39 533.742 677.923 534.083 677.072C534.424 676.223 535.387 675.496 536.12 675.738C536.852 675.979 537.076 677.098 536.735 677.948C536.394 678.798 535.29 679.873 534.558 679.631ZM608.45 757.479C608.109 758.328 608.192 759.796 608.925 760.038C609.657 760.28 610.761 759.204 611.102 758.354C611.442 757.505 611.218 756.385 610.486 756.144C609.754 755.902 608.79 756.629 608.45 757.479ZM468.084 710.599C468.816 710.841 469.04 711.96 468.699 712.809C468.358 713.659 467.255 714.735 466.523 714.493C465.79 714.251 465.707 712.783 466.047 711.934C466.388 711.084 467.351 710.357 468.084 710.599ZM603.845 646.277C603.504 647.127 603.588 648.595 604.32 648.837C605.052 649.079 606.156 648.002 606.497 647.153C606.837 646.304 606.614 645.185 605.882 644.943C605.15 644.702 604.186 645.428 603.845 646.277ZM605.129 685.71C604.788 686.559 604.872 688.027 605.604 688.269C606.336 688.51 607.44 687.435 607.781 686.585C608.122 685.736 607.898 684.617 607.166 684.375C606.434 684.133 605.47 684.86 605.129 685.71ZM539.746 721.447C539.405 722.296 538.301 723.372 537.569 723.13C536.837 722.889 536.753 721.421 537.094 720.571C537.435 719.721 538.399 718.995 539.131 719.237C539.863 719.478 540.087 720.597 539.746 721.447ZM535.281 661.914C535.622 661.065 535.398 659.946 534.666 659.704C533.933 659.462 532.97 660.189 532.629 661.039C532.289 661.888 532.372 663.356 533.105 663.598C533.837 663.839 534.941 662.764 535.281 661.914ZM607.471 744.004C606.739 743.762 606.655 742.294 606.996 741.445C607.337 740.595 608.3 739.868 609.033 740.11C609.765 740.352 609.989 741.471 609.648 742.32C609.307 743.17 608.203 744.246 607.471 744.004ZM633.052 761.946C632.711 762.796 632.795 764.264 633.527 764.505C634.259 764.747 635.363 763.671 635.704 762.822C636.044 761.972 635.821 760.853 635.089 760.612C634.356 760.37 633.392 761.097 633.052 761.946ZM656.783 725.368C656.442 726.217 655.339 727.294 654.606 727.052C653.874 726.81 653.79 725.342 654.131 724.492C654.472 723.643 655.436 722.916 656.168 723.158C656.9 723.399 657.124 724.518 656.783 725.368ZM602.391 630.244C602.051 631.093 602.134 632.562 602.866 632.803C603.598 633.045 604.703 631.969 605.043 631.119C605.384 630.27 605.16 629.151 604.428 628.91C603.696 628.668 602.732 629.394 602.391 630.244ZM517.661 638.757C516.924 638.167 517.3 636.582 517.951 635.843C518.602 635.105 519.906 634.782 520.644 635.372C521.381 635.962 521.272 637.243 520.62 637.982C519.97 638.721 518.399 639.348 517.661 638.757ZM592.028 719.164C592.765 719.754 594.337 719.127 594.988 718.389C595.638 717.65 595.748 716.369 595.01 715.778C594.272 715.188 592.969 715.511 592.318 716.25C591.667 716.989 591.29 718.573 592.028 719.164ZM526.974 750.64C527.712 751.23 527.603 752.511 526.952 753.25C526.301 753.988 524.73 754.615 523.992 754.025C523.256 753.435 523.631 751.849 524.283 751.112C524.933 750.373 526.238 750.049 526.974 750.64ZM519.818 691.578C519.167 692.318 518.791 693.902 519.528 694.492C520.265 695.083 521.837 694.456 522.487 693.718C523.138 692.978 523.248 691.697 522.51 691.107C521.773 690.517 520.468 690.84 519.818 691.578ZM596.854 774.124C596.203 774.862 594.632 775.488 593.894 774.899C593.157 774.308 593.534 772.724 594.185 771.985C594.835 771.246 596.14 770.923 596.876 771.514C597.615 772.104 597.505 773.385 596.854 774.124ZM589.58 660.784C588.928 661.523 588.553 663.108 589.29 663.697C590.027 664.288 591.599 663.661 592.25 662.922C592.9 662.184 593.009 660.903 592.272 660.312C591.535 659.722 590.23 660.046 589.58 660.784ZM505.227 641.056C504.759 641.909 503.357 642.854 502.493 642.444C501.627 642.035 501.627 640.427 502.096 639.575C502.564 638.723 503.774 638.128 504.638 638.537C505.503 638.947 505.696 640.203 505.227 641.056ZM576.859 722.851C577.724 723.26 579.126 722.315 579.594 721.463C580.062 720.61 579.87 719.353 579.005 718.943C578.141 718.534 576.931 719.129 576.463 719.981C575.994 720.834 575.994 722.441 576.859 722.851ZM507.094 696.791C506.626 697.644 505.223 698.589 504.359 698.179C503.494 697.77 503.494 696.163 503.962 695.31C504.43 694.458 505.64 693.863 506.505 694.272C507.37 694.682 507.563 695.938 507.094 696.791ZM576.267 663.478C575.402 663.068 574.193 663.662 573.724 664.515C573.256 665.368 573.256 666.975 574.121 667.385C574.986 667.794 576.388 666.849 576.856 665.996C577.324 665.144 577.132 663.887 576.267 663.478ZM520.631 652.561C519.767 652.152 519.767 650.545 520.234 649.691C520.703 648.839 521.913 648.245 522.778 648.654C523.642 649.063 523.836 650.321 523.367 651.173C522.899 652.026 521.497 652.971 520.631 652.561ZM597.144 729.06C596.28 728.651 595.07 729.245 594.602 730.098C594.133 730.951 594.133 732.559 594.999 732.968C595.863 733.377 597.265 732.432 597.733 731.579C598.202 730.727 598.009 729.469 597.144 729.06ZM522.102 705.427C521.633 706.28 521.633 707.888 522.498 708.297C523.363 708.706 524.765 707.761 525.233 706.908C525.702 706.056 525.509 704.798 524.644 704.389C523.779 703.98 522.57 704.574 522.102 705.427ZM592.26 677.502C591.395 677.092 591.396 675.485 591.863 674.632C592.332 673.779 593.542 673.185 594.406 673.594C595.271 674.003 595.464 675.261 594.995 676.113C594.527 676.966 593.126 677.911 592.26 677.502ZM541.569 654.53C541.101 655.383 541.1 656.991 541.966 657.4C542.83 657.809 544.232 656.865 544.7 656.012C545.169 655.16 544.977 653.902 544.111 653.492C543.247 653.083 542.037 653.678 541.569 654.53ZM616.332 737.806C615.467 737.397 615.468 735.789 615.936 734.936C616.403 734.084 617.613 733.49 618.478 733.899C619.343 734.308 619.536 735.566 619.067 736.418C618.599 737.271 617.197 738.215 616.332 737.806ZM663.07 717.984C662.603 718.837 662.602 720.444 663.467 720.854C664.332 721.263 665.734 720.318 666.202 719.466C666.671 718.613 666.478 717.355 665.613 716.946C664.749 716.537 663.539 717.131 663.07 717.984ZM476.665 690.873C476.197 691.726 474.795 692.671 473.93 692.262C473.065 691.852 473.065 690.244 473.533 689.391C474.001 688.539 475.212 687.944 476.076 688.353C476.94 688.763 477.133 690.021 476.665 690.873ZM543.832 713.135C542.967 712.726 542.967 711.118 543.436 710.265C543.904 709.413 545.113 708.818 545.978 709.227C546.843 709.637 547.035 710.895 546.567 711.747C546.098 712.6 544.697 713.544 543.832 713.135ZM613.197 679.47C612.729 680.323 612.729 681.931 613.594 682.34C614.459 682.749 615.861 681.804 616.328 680.952C616.797 680.1 616.605 678.842 615.74 678.432C614.876 678.024 613.666 678.618 613.197 679.47ZM649.993 698.767C649.128 698.358 649.128 696.75 649.596 695.897C650.064 695.044 651.274 694.45 652.139 694.859C653.004 695.268 653.196 696.526 652.727 697.379C652.259 698.232 650.858 699.176 649.993 698.767ZM553.373 642.058C554.238 642.468 555.64 641.523 556.108 640.67C556.576 639.818 556.383 638.56 555.519 638.15C554.655 637.741 553.445 638.336 552.976 639.188C552.508 640.041 552.509 641.649 553.373 642.058ZM627.74 722.465C626.874 722.055 626.875 720.448 627.343 719.595C627.811 718.742 629.021 718.148 629.885 718.557C630.751 718.966 630.943 720.224 630.474 721.076C630.006 721.93 628.605 722.874 627.74 722.465ZM487.484 673.012C486.618 672.603 485.409 673.198 484.941 674.049C484.473 674.902 484.472 676.511 485.338 676.92C486.202 677.328 487.604 676.384 488.073 675.531C488.541 674.679 488.349 673.421 487.484 673.012ZM559.704 757.326C558.839 756.917 558.839 755.309 559.307 754.456C559.776 753.603 560.985 753.01 561.85 753.419C562.715 753.828 562.907 755.085 562.439 755.938C561.971 756.791 560.569 757.736 559.704 757.326ZM555.239 697.794C556.104 698.203 557.506 697.258 557.974 696.405C558.442 695.553 558.25 694.295 557.386 693.885C556.521 693.476 555.311 694.071 554.843 694.924C554.375 695.776 554.375 697.384 555.239 697.794ZM629.209 775.33C629.677 774.477 630.887 773.883 631.752 774.292C632.617 774.701 632.81 775.959 632.341 776.812C631.873 777.664 630.471 778.609 629.606 778.2C628.741 777.791 628.742 776.182 629.209 775.33ZM486.808 729.785C486.34 730.638 486.34 732.246 487.204 732.655C488.069 733.064 489.471 732.119 489.939 731.267C490.408 730.414 490.215 729.156 489.35 728.748C488.485 728.339 487.275 728.932 486.808 729.785ZM627.737 665.611C627.268 666.464 625.866 667.409 625.002 666.999C624.137 666.589 624.137 664.982 624.605 664.129C625.074 663.276 626.283 662.682 627.148 663.091C628.012 663.5 628.205 664.757 627.737 665.611ZM661.401 683.425C662.265 683.835 663.667 682.89 664.135 682.037C664.604 681.184 664.411 679.927 663.546 679.518C662.682 679.109 661.472 679.703 661.004 680.556C660.535 681.408 660.536 683.016 661.401 683.425ZM548.339 619.036C548.009 618.161 549.13 616.914 550.056 616.555C550.983 616.194 552.256 616.512 552.585 617.387C552.915 618.262 552.176 619.361 551.249 619.721C550.322 620.081 548.668 619.91 548.339 619.036ZM624.423 696.961C623.496 697.32 622.376 698.568 622.705 699.442C623.035 700.317 624.689 700.487 625.615 700.128C626.542 699.767 627.281 698.668 626.952 697.793C626.623 696.919 625.349 696.601 624.423 696.961ZM685.725 654.407C685.396 653.532 686.517 652.284 687.443 651.925C688.369 651.565 689.643 651.883 689.973 652.757C690.302 653.632 689.562 654.732 688.636 655.092C687.709 655.451 686.055 655.281 685.725 654.407ZM556.387 731.822C555.46 732.182 554.34 733.428 554.67 734.304C554.999 735.178 556.653 735.348 557.58 734.989C558.506 734.629 559.246 733.529 558.917 732.655C558.587 731.78 557.314 731.462 556.387 731.822ZM554.452 673.122C554.781 673.996 554.042 675.096 553.115 675.457C552.188 675.816 550.534 675.646 550.206 674.771C549.876 673.896 550.996 672.649 551.922 672.289C552.849 671.929 554.122 672.248 554.452 673.122ZM627.482 755.862C628.408 755.503 629.148 754.403 628.818 753.528C628.489 752.654 627.215 752.336 626.289 752.695C625.362 753.055 624.242 754.302 624.572 755.178C624.901 756.052 626.555 756.222 627.482 755.862ZM641.596 743.437C641.925 744.313 641.185 745.412 640.259 745.771C639.332 746.132 637.678 745.961 637.349 745.086C637.019 744.212 638.139 742.965 639.066 742.605C639.993 742.245 641.266 742.563 641.596 743.437ZM485.08 710.317C486.006 709.958 486.746 708.858 486.417 707.983C486.087 707.109 484.813 706.791 483.887 707.15C482.96 707.51 481.84 708.757 482.17 709.633C482.499 710.506 484.153 710.678 485.08 710.317ZM619.967 643.977C619.637 643.102 620.758 641.854 621.684 641.494C622.611 641.134 623.885 641.453 624.214 642.327C624.544 643.202 623.804 644.302 622.877 644.662C621.95 645.021 620.297 644.851 619.967 643.977ZM658.083 657.921C657.157 658.281 656.036 659.529 656.366 660.403C656.695 661.278 658.349 661.448 659.276 661.088C660.203 660.729 660.943 659.628 660.613 658.754C660.283 657.879 659.01 657.561 658.083 657.921ZM563.042 631.846C561.895 631.636 561.375 629.796 561.649 628.682C561.923 627.566 563.151 626.525 564.299 626.734C565.447 626.944 566.08 628.325 565.805 629.44C565.531 630.555 564.191 632.055 563.042 631.846ZM640.172 709.847C640.446 708.731 639.814 707.35 638.666 707.14C637.518 706.931 636.289 707.972 636.015 709.088C635.742 710.203 636.262 712.042 637.41 712.252C638.557 712.462 639.898 710.961 640.172 709.847ZM496.264 661.595C497.412 661.805 498.044 663.186 497.77 664.302C497.496 665.417 496.155 666.917 495.007 666.707C493.86 666.497 493.339 664.658 493.614 663.543C493.887 662.428 495.116 661.386 496.264 661.595ZM569.374 747.113C570.522 747.323 571.862 745.823 572.137 744.708C572.411 743.592 571.778 742.211 570.63 742.001C569.483 741.792 568.255 742.834 567.98 743.949C567.706 745.065 568.226 746.904 569.374 747.113ZM563.515 684.417C563.79 683.301 565.018 682.259 566.166 682.469C567.313 682.679 567.946 684.059 567.672 685.175C567.398 686.291 566.057 687.791 564.909 687.581C563.762 687.371 563.241 685.532 563.515 684.417ZM645.063 771.279C645.337 770.163 644.705 768.782 643.557 768.572C642.409 768.362 641.181 769.404 640.906 770.52C640.632 771.635 641.152 773.475 642.3 773.685C643.449 773.893 644.789 772.393 645.063 771.279ZM499.636 720.037C499.363 721.152 498.022 722.651 496.873 722.442C495.726 722.233 495.205 720.393 495.481 719.278C495.754 718.162 496.983 717.121 498.13 717.33C499.278 717.54 499.911 718.921 499.636 720.037ZM633.278 653.621C633.003 654.737 633.524 656.576 634.671 656.786C635.82 656.995 637.16 655.496 637.434 654.38C637.709 653.265 637.076 651.884 635.928 651.674C634.78 651.464 633.552 652.506 633.278 653.621ZM671.07 673.212C669.922 673.003 669.402 671.164 669.677 670.048C669.95 668.934 671.179 667.891 672.326 668.101C673.474 668.311 674.107 669.692 673.833 670.807C673.559 671.923 672.218 673.422 671.07 673.212ZM568.739 635.995C567.96 636.607 567.278 638.108 567.878 638.829C568.477 639.549 570.13 639.217 570.909 638.604C571.689 637.992 572.05 636.742 571.45 636.022C570.851 635.301 569.518 635.382 568.739 635.995ZM645.276 719.011C644.497 719.623 642.844 719.955 642.245 719.235C641.645 718.515 642.326 717.013 643.105 716.401C643.884 715.789 645.217 715.707 645.817 716.428C646.416 717.149 646.056 718.397 645.276 719.011ZM499.842 673.69C500.442 674.41 502.095 674.077 502.874 673.465C503.654 672.853 504.014 671.604 503.415 670.883C502.815 670.162 501.482 670.243 500.703 670.856C499.924 671.468 499.243 672.97 499.842 673.69ZM574.209 754.096C573.609 753.376 574.291 751.874 575.07 751.262C575.85 750.65 577.182 750.568 577.781 751.29C578.381 752.01 578.021 753.259 577.24 753.871C576.462 754.484 574.809 754.817 574.209 754.096ZM570.605 691.73C569.825 692.342 569.144 693.843 569.744 694.563C570.344 695.284 571.997 694.952 572.776 694.34C573.556 693.727 573.916 692.477 573.317 691.757C572.717 691.036 571.385 691.118 570.605 691.73ZM638.984 789.629C638.384 788.909 639.065 787.408 639.844 786.795C640.625 786.182 641.958 786.102 642.557 786.822C643.156 787.543 642.796 788.791 642.016 789.404C641.237 790.018 639.583 790.35 638.984 789.629ZM504.741 729.201C505.521 728.588 505.881 727.339 505.281 726.618C504.683 725.897 503.349 725.978 502.57 726.591C501.791 727.203 501.11 728.705 501.709 729.425C502.308 730.146 503.962 729.813 504.741 729.201ZM675.905 680.196C675.306 679.476 675.987 677.974 676.766 677.362C677.545 676.749 678.878 676.668 679.478 677.389C680.077 678.11 679.717 679.359 678.938 679.971C678.158 680.584 676.505 680.917 675.905 680.196ZM566.34 614.962C565.414 615.321 564.293 616.569 564.622 617.443C564.952 618.318 566.606 618.488 567.532 618.129C568.459 617.769 569.199 616.669 568.87 615.794C568.54 614.92 567.267 614.602 566.34 614.962ZM638.989 697.85C638.659 696.975 639.78 695.727 640.707 695.368C641.633 695.008 642.907 695.326 643.236 696.201C643.566 697.075 642.826 698.175 641.899 698.535C640.973 698.895 639.318 698.724 638.989 697.85ZM661.255 694.767C660.328 695.128 659.208 696.375 659.537 697.25C659.867 698.124 661.521 698.295 662.448 697.935C663.374 697.575 664.114 696.475 663.785 695.6C663.455 694.726 662.182 694.408 661.255 694.767ZM500.834 650.655C501.163 651.53 500.424 652.63 499.497 652.99C498.57 653.35 496.917 653.179 496.587 652.305C496.258 651.43 497.378 650.183 498.305 649.822C499.231 649.463 500.505 649.781 500.834 650.655ZM572.671 730.229C571.745 730.589 570.625 731.836 570.954 732.711C571.283 733.585 572.937 733.756 573.864 733.396C574.79 733.037 575.53 731.937 575.2 731.062C574.871 730.188 573.598 729.87 572.671 730.229ZM568.207 670.697C569.133 670.337 570.406 670.655 570.736 671.529C571.065 672.404 570.326 673.504 569.399 673.864C568.473 674.224 566.818 674.053 566.49 673.179C566.16 672.304 567.28 671.056 568.207 670.697ZM649.221 759.027C650.148 758.668 650.888 757.568 650.558 756.694C650.229 755.819 648.955 755.502 648.029 755.861C647.102 756.22 645.982 757.468 646.312 758.343C646.641 759.217 648.295 759.388 649.221 759.027ZM498.454 708.039C498.125 707.165 499.244 705.918 500.171 705.558C501.098 705.198 502.371 705.517 502.7 706.391C503.03 707.266 502.291 708.365 501.364 708.725C500.438 709.085 498.783 708.914 498.454 708.039ZM637.968 639.902C637.042 640.261 635.922 641.509 636.251 642.383C636.58 643.258 638.235 643.429 639.161 643.069C640.088 642.709 640.828 641.61 640.498 640.735C640.168 639.861 638.895 639.542 637.968 639.902ZM667.304 649.794C666.975 648.919 668.095 647.672 669.022 647.313C669.948 646.952 671.221 647.271 671.551 648.146C671.881 649.02 671.141 650.119 670.214 650.479C669.288 650.839 667.634 650.669 667.304 649.794ZM504.888 628.313C505.814 627.953 506.555 626.853 506.225 625.978C505.896 625.104 504.622 624.786 503.696 625.145C502.769 625.506 501.648 626.753 501.978 627.628C502.308 628.502 503.962 628.673 504.888 628.313ZM580.592 706.384C580.921 707.26 580.182 708.359 579.255 708.719C578.328 709.079 576.674 708.908 576.345 708.034C576.015 707.16 577.136 705.912 578.062 705.552C578.989 705.192 580.262 705.51 580.592 706.384ZM510.027 740.413C509.1 740.773 507.98 742.02 508.309 742.895C508.639 743.769 510.293 743.94 511.219 743.58C512.146 743.221 512.886 742.121 512.557 741.246C512.226 740.371 510.953 740.053 510.027 740.413ZM505.562 680.88C506.489 680.521 507.762 680.839 508.091 681.713C508.421 682.588 507.681 683.688 506.755 684.048C505.828 684.407 504.174 684.237 503.845 683.363C503.515 682.488 504.636 681.24 505.562 680.88ZM581.122 764.453C582.048 764.094 582.787 762.995 582.458 762.119C582.129 761.245 580.855 760.928 579.929 761.287C579.002 761.647 577.882 762.894 578.212 763.769C578.541 764.643 580.194 764.814 581.122 764.453ZM577.854 650.919C578.183 651.794 577.443 652.893 576.517 653.253C575.59 653.613 573.936 653.443 573.607 652.567C573.277 651.693 574.397 650.446 575.324 650.086C576.251 649.726 577.524 650.044 577.854 650.919ZM512.681 619.159C512.03 619.898 511.654 621.481 512.391 622.073C513.129 622.662 514.7 622.036 515.351 621.297C516.002 620.559 516.111 619.277 515.374 618.687C514.637 618.096 513.332 618.419 512.681 619.159ZM586.758 702.479C586.021 701.888 586.397 700.304 587.048 699.565C587.698 698.826 589.003 698.503 589.741 699.093C590.478 699.683 590.369 700.965 589.717 701.703C589.067 702.442 587.495 703.069 586.758 702.479ZM521.682 736.565C522.333 735.826 522.442 734.545 521.704 733.955C520.968 733.364 519.663 733.688 519.013 734.427C518.362 735.164 517.985 736.75 518.722 737.34C519.459 737.93 521.032 737.303 521.682 736.565ZM514.257 677.808C513.521 677.217 513.896 675.633 514.547 674.894C515.199 674.155 516.503 673.831 517.24 674.422C517.978 675.012 517.868 676.294 517.217 677.032C516.566 677.771 514.995 678.397 514.257 677.808ZM591.584 757.439C592.235 756.7 592.344 755.419 591.607 754.828C590.87 754.238 589.565 754.562 588.915 755.301C588.263 756.038 587.887 757.623 588.624 758.214C589.362 758.804 590.933 758.177 591.584 757.439ZM584.02 647.013C583.282 646.422 583.659 644.838 584.309 644.099C584.96 643.36 586.265 643.036 587.003 643.627C587.74 644.218 587.631 645.498 586.98 646.237C586.328 646.976 584.757 647.603 584.02 647.013ZM511.919 604.209C511.268 604.948 510.893 606.532 511.629 607.122C512.367 607.713 513.938 607.086 514.589 606.347C515.24 605.609 515.349 604.327 514.612 603.737C513.874 603.146 512.57 603.47 511.919 604.209ZM588.979 684.143C589.715 684.734 589.606 686.015 588.955 686.753C588.305 687.492 586.733 688.119 585.995 687.529C585.258 686.938 585.635 685.353 586.286 684.615C586.936 683.876 588.241 683.553 588.979 684.143ZM517.96 722.39C518.699 722.98 520.269 722.354 520.92 721.615C521.571 720.876 521.681 719.595 520.943 719.005C520.206 718.414 518.901 718.737 518.25 719.476C517.6 720.215 517.223 721.799 517.96 722.39ZM516.478 659.472C517.216 660.062 517.106 661.344 516.456 662.082C515.805 662.821 514.233 663.448 513.496 662.858C512.759 662.267 513.135 660.682 513.786 659.944C514.437 659.205 515.741 658.881 516.478 659.472ZM590.822 742.489C591.472 741.75 591.583 740.469 590.845 739.878C590.108 739.288 588.803 739.612 588.152 740.351C587.502 741.088 587.125 742.673 587.862 743.264C588.6 743.854 590.171 743.227 590.822 742.489ZM586.218 631.287C585.567 632.026 583.995 632.653 583.258 632.063C582.52 631.472 582.897 629.888 583.548 629.149C584.199 628.41 585.503 628.087 586.24 628.677C586.978 629.268 586.869 630.548 586.218 631.287ZM529.404 632.708C530.388 632.636 530.967 631.436 530.94 630.493C530.913 629.55 530.021 628.89 529.037 628.962C528.054 629.034 527.353 629.81 527.38 630.753C527.407 631.696 528.422 632.78 529.404 632.708ZM603.771 713.114C602.788 713.187 601.774 712.103 601.746 711.16C601.72 710.217 602.421 709.44 603.404 709.368C604.387 709.297 605.279 709.956 605.307 710.899C605.333 711.842 604.754 713.042 603.771 713.114ZM685.135 667.819C685.162 668.762 686.176 669.846 687.16 669.774C688.143 669.702 688.722 668.502 688.695 667.559C688.668 666.616 687.776 665.956 686.792 666.028C685.809 666.1 685.108 666.876 685.135 667.819ZM537.271 745.76C537.298 746.703 536.719 747.903 535.736 747.975C534.753 748.048 533.739 746.963 533.711 746.02C533.684 745.078 534.385 744.302 535.369 744.229C536.352 744.157 537.245 744.817 537.271 745.76ZM531.271 688.443C532.254 688.371 532.834 687.171 532.807 686.228C532.78 685.285 531.887 684.625 530.904 684.697C529.921 684.769 529.22 685.545 529.247 686.488C529.274 687.431 530.288 688.515 531.271 688.443ZM607.174 766.634C607.2 767.576 606.621 768.778 605.638 768.849C604.655 768.921 603.64 767.838 603.613 766.895C603.586 765.952 604.288 765.175 605.271 765.103C606.254 765.031 607.147 765.691 607.174 766.634ZM463.236 723.304C464.219 723.232 464.798 722.032 464.772 721.089C464.744 720.146 463.852 719.486 462.869 719.558C461.886 719.63 461.185 720.407 461.211 721.349C461.239 722.292 462.253 723.376 463.236 723.304ZM600.666 653.902C601.649 653.83 602.542 654.49 602.569 655.433C602.596 656.376 602.016 657.577 601.033 657.648C600.05 657.72 599.035 656.637 599.009 655.694C598.982 654.751 599.683 653.974 600.666 653.902ZM561.174 656.66C562.157 656.588 562.737 655.388 562.709 654.445C562.682 653.502 561.79 652.842 560.806 652.914C559.823 652.987 559.122 653.762 559.149 654.705C559.176 655.648 560.19 656.733 561.174 656.66ZM637.076 734.851C637.103 735.794 636.523 736.995 635.541 737.067C634.557 737.139 633.543 736.055 633.516 735.112C633.489 734.169 634.19 733.393 635.173 733.321C636.156 733.249 637.049 733.908 637.076 734.851ZM658.258 732.814C658.285 733.757 659.299 734.841 660.283 734.768C661.266 734.696 661.845 733.496 661.818 732.553C661.791 731.61 660.898 730.951 659.915 731.022C658.932 731.094 658.231 731.871 658.258 732.814ZM494.674 689.307C494.701 690.249 494.121 691.45 493.139 691.522C492.156 691.594 491.141 690.51 491.114 689.567C491.087 688.624 491.788 687.848 492.771 687.775C493.755 687.704 494.646 688.364 494.674 689.307ZM563.041 712.396C564.024 712.324 564.603 711.123 564.576 710.18C564.549 709.237 563.657 708.577 562.673 708.65C561.69 708.721 560.989 709.498 561.016 710.44C561.043 711.384 562.057 712.468 563.041 712.396ZM632.803 681.601C631.819 681.673 630.805 680.589 630.778 679.646C630.751 678.703 631.453 677.927 632.435 677.855C633.418 677.783 634.311 678.442 634.338 679.385C634.365 680.328 633.786 681.529 632.803 681.601ZM670.751 690.115C671.734 690.043 672.313 688.843 672.286 687.9C672.259 686.957 671.367 686.296 670.383 686.369C669.4 686.441 668.699 687.217 668.726 688.16C668.753 689.103 669.767 690.187 670.751 690.115ZM549.606 608.746C548.623 608.819 547.609 607.735 547.581 606.792C547.555 605.849 548.256 605.072 549.239 605C550.222 604.928 551.114 605.588 551.142 606.531C551.168 607.474 550.59 608.674 549.606 608.746ZM621.948 687.198C621.975 688.141 622.99 689.225 623.973 689.152C624.956 689.08 625.535 687.88 625.508 686.937C625.481 685.994 624.589 685.335 623.605 685.406C622.622 685.478 621.921 686.255 621.948 687.198ZM555.57 720.268C556.553 720.195 557.446 720.856 557.473 721.799C557.5 722.742 556.92 723.942 555.937 724.014C554.954 724.085 553.94 723.002 553.913 722.059C553.886 721.116 554.587 720.34 555.57 720.268ZM549.449 662.527C549.475 663.469 550.489 664.554 551.473 664.481C552.456 664.409 553.036 663.209 553.008 662.266C552.982 661.323 552.088 660.663 551.105 660.735C550.122 660.807 549.421 661.584 549.449 662.527ZM489.374 658.917C488.391 658.989 487.376 657.905 487.35 656.962C487.323 656.019 488.024 655.242 489.007 655.171C489.99 655.099 490.883 655.759 490.909 656.702C490.937 657.645 490.357 658.845 489.374 658.917ZM625.472 741.141C624.489 741.213 623.788 741.99 623.815 742.933C623.842 743.876 624.856 744.959 625.839 744.887C626.822 744.816 627.402 743.615 627.375 742.672C627.348 741.729 626.455 741.07 625.472 741.141ZM650.581 742.589C649.598 742.662 648.583 741.578 648.557 740.635C648.53 739.692 649.231 738.915 650.214 738.843C651.197 738.771 652.09 739.431 652.117 740.374C652.144 741.317 651.564 742.517 650.581 742.589ZM481.413 697.388C481.44 698.331 482.454 699.414 483.437 699.343C484.42 699.271 485 698.071 484.973 697.128C484.946 696.185 484.053 695.524 483.07 695.597C482.087 695.668 481.386 696.445 481.413 697.388ZM621.234 633.687C620.252 633.759 619.237 632.675 619.21 631.732C619.184 630.789 619.884 630.012 620.867 629.941C621.851 629.869 622.743 630.529 622.77 631.472C622.797 632.415 622.218 633.614 621.234 633.687ZM655.609 648.159C655.636 649.102 656.65 650.185 657.633 650.113C658.617 650.041 659.196 648.841 659.169 647.898C659.142 646.955 658.25 646.295 657.266 646.368C656.283 646.439 655.582 647.216 655.609 648.159ZM536.618 644.879C535.635 644.951 534.621 643.867 534.593 642.924C534.567 641.981 535.268 641.204 536.251 641.133C537.234 641.06 538.126 641.72 538.154 642.663C538.18 643.606 537.602 644.807 536.618 644.879ZM608.96 723.33C608.987 724.274 610.002 725.357 610.985 725.285C611.968 725.213 612.547 724.012 612.52 723.07C612.494 722.127 611.601 721.467 610.618 721.539C609.634 721.611 608.933 722.388 608.96 723.33ZM658.12 708.332C657.137 708.405 656.123 707.321 656.095 706.378C656.069 705.435 656.77 704.658 657.753 704.586C658.736 704.515 659.629 705.174 659.656 706.117C659.682 707.06 659.103 708.26 658.12 708.332ZM672.783 700.532C672.81 701.475 673.825 702.559 674.808 702.487C675.791 702.414 676.37 701.215 676.343 700.272C676.316 699.329 675.424 698.668 674.44 698.741C673.458 698.812 672.756 699.589 672.783 700.532ZM542.582 756.4C543.565 756.329 544.458 756.988 544.485 757.931C544.512 758.874 543.932 760.075 542.949 760.146C541.966 760.218 540.952 759.134 540.925 758.192C540.898 757.249 541.599 756.472 542.582 756.4ZM536.461 698.659C536.487 699.602 537.501 700.686 538.485 700.614C539.468 700.541 540.048 699.342 540.02 698.398C539.994 697.456 539.101 696.795 538.117 696.868C537.135 696.94 536.433 697.716 536.461 698.659ZM612.851 781.02C611.868 781.092 610.854 780.009 610.827 779.066C610.8 778.123 611.501 777.346 612.484 777.274C613.467 777.202 614.36 777.862 614.387 778.805C614.414 779.748 613.834 780.949 612.851 781.02ZM468.425 733.521C468.452 734.463 469.467 735.546 470.45 735.475C471.432 735.403 472.012 734.203 471.985 733.26C471.958 732.317 471.065 731.657 470.082 731.729C469.099 731.801 468.398 732.578 468.425 733.521ZM608.247 669.819C607.264 669.891 606.25 668.808 606.222 667.864C606.196 666.922 606.897 666.145 607.88 666.073C608.863 666.001 609.755 666.66 609.783 667.604C609.809 668.546 609.23 669.747 608.247 669.819ZM642.621 684.291C642.648 685.234 643.662 686.318 644.646 686.246C645.629 686.173 646.208 684.974 646.181 684.031C646.154 683.088 645.262 682.428 644.278 682.5C643.295 682.571 642.594 683.348 642.621 684.291Z" fill="#F8F0E5"/>
<path fill-rule="evenodd" clip-rule="evenodd" d="M422.362 559.168C421.893 560.021 421.893 561.629 422.758 562.038C423.623 562.447 425.024 561.503 425.493 560.651C425.961 559.798 425.768 558.54 424.904 558.131C424.039 557.722 422.829 558.316 422.362 559.168ZM401.424 557.2C400.56 556.791 400.559 555.183 401.027 554.33C401.495 553.477 402.705 552.883 403.57 553.292C404.435 553.701 404.627 554.959 404.159 555.812C403.691 556.664 402.289 557.609 401.424 557.2ZM342.268 543.296C341.536 543.054 341.452 541.586 341.793 540.737C342.133 539.887 343.097 539.16 343.829 539.402C344.561 539.644 344.785 540.763 344.445 541.612C344.104 542.462 343 543.537 342.268 543.296ZM481.108 594.7C480.376 594.459 480.292 592.991 480.633 592.141C480.974 591.291 481.938 590.565 482.67 590.807C483.402 591.048 483.626 592.167 483.285 593.016C482.944 593.866 481.84 594.942 481.108 594.7ZM343.722 559.329C342.99 559.088 342.905 557.621 343.246 556.77C343.587 555.921 344.551 555.194 345.283 555.436C346.015 555.677 346.239 556.796 345.898 557.646C345.557 558.496 344.454 559.571 343.722 559.329ZM358.852 564.66C357.936 564.358 356.804 565.086 356.445 565.982C356.085 566.879 356.289 568.465 357.205 568.767C358.121 569.069 359.401 567.973 359.76 567.077C360.12 566.181 359.768 564.963 358.852 564.66ZM430.811 646.388C430.452 647.285 430.656 648.871 431.572 649.173C432.488 649.476 433.767 648.379 434.127 647.483C434.486 646.587 434.134 645.369 433.219 645.066C432.303 644.764 431.171 645.492 430.811 646.388ZM363.536 684.034C362.621 683.732 362.417 682.147 362.776 681.25C363.136 680.354 364.268 679.626 365.183 679.928C366.099 680.23 366.45 681.448 366.091 682.345C365.732 683.241 364.452 684.337 363.536 684.034ZM359.072 624.502C359.986 624.804 361.267 623.708 361.626 622.812C361.986 621.916 361.633 620.697 360.719 620.395C359.803 620.093 358.671 620.821 358.311 621.717C357.952 622.614 358.156 624.2 359.072 624.502ZM433.439 704.908C432.523 704.606 432.319 703.02 432.678 702.124C433.038 701.227 434.17 700.499 435.086 700.802C436 701.104 436.352 702.322 435.993 703.218C435.634 704.115 434.353 705.21 433.439 704.908ZM292.683 655.256C291.768 654.954 290.636 655.682 290.277 656.579C289.917 657.475 290.122 659.06 291.037 659.363C291.952 659.665 293.232 658.569 293.591 657.673C293.951 656.777 293.598 655.558 292.683 655.256ZM428.834 593.707C427.918 593.405 427.714 591.819 428.074 590.923C428.433 590.026 429.565 589.298 430.481 589.601C431.396 589.903 431.748 591.121 431.388 592.017C431.029 592.913 429.749 594.01 428.834 593.707ZM464.472 607.349C464.113 608.245 464.318 609.832 465.233 610.134C466.148 610.436 467.428 609.34 467.787 608.444C468.146 607.547 467.795 606.329 466.88 606.027C465.964 605.725 464.832 606.453 464.472 607.349ZM417.613 637.177C417.272 638.027 417.356 639.495 418.088 639.736C418.82 639.978 419.924 638.902 420.265 638.052C420.606 637.203 420.382 636.084 419.65 635.842C418.918 635.6 417.954 636.327 417.613 637.177ZM349.578 672.038C349.237 672.888 349.321 674.356 350.053 674.597C350.785 674.839 351.889 673.763 352.23 672.914C352.57 672.064 352.347 670.945 351.615 670.704C350.883 670.462 349.919 671.189 349.578 672.038ZM345.589 615.065C344.856 614.823 344.772 613.356 345.113 612.506C345.454 611.656 346.417 610.929 347.15 611.171C347.882 611.413 348.106 612.532 347.765 613.381C347.424 614.231 346.321 615.306 345.589 615.065ZM419.48 692.912C419.139 693.761 419.222 695.23 419.955 695.472C420.687 695.713 421.791 694.637 422.132 693.787C422.473 692.938 422.249 691.819 421.517 691.577C420.784 691.335 419.821 692.062 419.48 692.912ZM279.114 646.032C279.846 646.274 280.07 647.393 279.729 648.243C279.389 649.092 278.285 650.168 277.553 649.926C276.82 649.684 276.737 648.217 277.077 647.367C277.418 646.518 278.382 645.79 279.114 646.032ZM414.875 581.711C414.535 582.56 414.618 584.029 415.35 584.27C416.082 584.512 417.187 583.436 417.527 582.586C417.868 581.737 417.644 580.618 416.912 580.377C416.18 580.135 415.216 580.862 414.875 581.711ZM416.159 621.143C415.819 621.993 415.903 623.46 416.635 623.702C417.367 623.944 418.471 622.868 418.811 622.018C419.152 621.169 418.928 620.05 418.196 619.808C417.464 619.567 416.5 620.293 416.159 621.143ZM350.776 656.88C350.435 657.73 349.332 658.805 348.6 658.564C347.868 658.322 347.784 656.854 348.124 656.005C348.465 655.154 349.429 654.428 350.161 654.67C350.893 654.912 351.117 656.03 350.776 656.88ZM346.312 597.347C346.652 596.498 346.428 595.379 345.696 595.137C344.964 594.895 344 595.622 343.66 596.472C343.319 597.321 343.402 598.789 344.135 599.031C344.867 599.273 345.971 598.197 346.312 597.347ZM418.502 679.437C417.769 679.195 417.686 677.728 418.026 676.878C418.367 676.029 419.33 675.302 420.063 675.543C420.795 675.785 421.019 676.904 420.678 677.754C420.338 678.603 419.234 679.679 418.502 679.437ZM444.082 697.38C443.741 698.229 443.825 699.697 444.557 699.939C445.289 700.18 446.394 699.105 446.734 698.255C447.075 697.406 446.851 696.287 446.119 696.045C445.387 695.803 444.422 696.53 444.082 697.38ZM467.813 660.801C467.472 661.651 466.369 662.727 465.636 662.485C464.904 662.244 464.821 660.775 465.161 659.926C465.502 659.076 466.466 658.349 467.198 658.591C467.931 658.833 468.154 659.952 467.813 660.801ZM413.422 565.677C413.081 566.527 413.165 567.995 413.897 568.237C414.629 568.478 415.733 567.402 416.074 566.553C416.414 565.703 416.19 564.585 415.458 564.343C414.726 564.101 413.762 564.827 413.422 565.677ZM328.692 574.191C327.954 573.6 328.33 572.015 328.982 571.277C329.632 570.538 330.937 570.215 331.674 570.806C332.411 571.395 332.302 572.677 331.651 573.416C331.001 574.154 329.429 574.781 328.692 574.191ZM403.058 654.597C403.795 655.187 405.367 654.56 406.018 653.822C406.668 653.083 406.779 651.802 406.04 651.212C405.303 650.621 403.999 650.945 403.348 651.684C402.697 652.422 402.32 654.006 403.058 654.597ZM338.005 686.073C338.743 686.663 338.633 687.945 337.982 688.684C337.332 689.421 335.76 690.048 335.022 689.458C334.286 688.868 334.662 687.283 335.313 686.545C335.963 685.806 337.268 685.482 338.005 686.073ZM330.848 627.012C330.197 627.751 329.821 629.335 330.558 629.926C331.295 630.516 332.867 629.889 333.518 629.151C334.168 628.412 334.278 627.131 333.541 626.541C332.803 625.95 331.499 626.273 330.848 627.012ZM407.884 709.557C407.234 710.295 405.662 710.922 404.924 710.333C404.187 709.741 404.564 708.157 405.215 707.419C405.865 706.68 407.17 706.357 407.907 706.947C408.645 707.537 408.535 708.818 407.884 709.557ZM400.61 596.218C399.959 596.956 399.583 598.541 400.32 599.131C401.057 599.721 402.629 599.094 403.28 598.355C403.931 597.617 404.039 596.336 403.302 595.746C402.566 595.155 401.26 595.479 400.61 596.218ZM316.258 576.489C315.789 577.342 314.387 578.287 313.523 577.878C312.658 577.468 312.658 575.861 313.126 575.008C313.594 574.156 314.804 573.561 315.669 573.97C316.533 574.38 316.726 575.636 316.258 576.489ZM387.89 658.284C388.754 658.694 390.156 657.749 390.624 656.896C391.092 656.043 390.9 654.786 390.035 654.376C389.171 653.968 387.961 654.562 387.493 655.415C387.024 656.267 387.024 657.875 387.89 658.284ZM318.124 632.225C317.656 633.078 316.254 634.022 315.389 633.613C314.524 633.204 314.524 631.596 314.992 630.743C315.461 629.891 316.67 629.296 317.536 629.705C318.4 630.115 318.593 631.372 318.124 632.225ZM387.297 598.911C386.432 598.501 385.223 599.096 384.755 599.949C384.286 600.801 384.287 602.409 385.152 602.819C386.016 603.228 387.418 602.282 387.887 601.43C388.355 600.577 388.162 599.32 387.297 598.911ZM331.662 587.995C330.797 587.586 330.797 585.978 331.264 585.125C331.733 584.272 332.943 583.678 333.808 584.087C334.673 584.496 334.866 585.754 334.397 586.606C333.929 587.459 332.527 588.404 331.662 587.995ZM408.175 664.494C407.31 664.084 406.1 664.679 405.632 665.531C405.163 666.384 405.163 667.992 406.029 668.401C406.894 668.81 408.295 667.865 408.764 667.012C409.232 666.16 409.039 664.903 408.175 664.494ZM333.132 640.86C332.664 641.713 332.664 643.321 333.529 643.73C334.393 644.139 335.795 643.194 336.263 642.341C336.732 641.489 336.54 640.232 335.674 639.822C334.809 639.413 333.6 640.008 333.132 640.86ZM403.291 612.935C402.425 612.526 402.426 610.918 402.893 610.065C403.362 609.213 404.572 608.618 405.436 609.027C406.302 609.437 406.494 610.694 406.025 611.547C405.557 612.399 404.156 613.344 403.291 612.935ZM352.599 589.963C352.131 590.816 352.131 592.424 352.996 592.833C353.861 593.242 355.262 592.298 355.731 591.445C356.199 590.593 356.007 589.335 355.142 588.926C354.277 588.517 353.067 589.111 352.599 589.963ZM427.363 673.24C426.497 672.83 426.498 671.223 426.966 670.37C427.434 669.517 428.644 668.923 429.508 669.332C430.374 669.741 430.566 670.999 430.097 671.851C429.629 672.704 428.227 673.649 427.363 673.24ZM474.1 653.417C473.633 654.27 473.633 655.878 474.498 656.287C475.362 656.696 476.765 655.751 477.232 654.9C477.701 654.047 477.509 652.789 476.644 652.38C475.779 651.97 474.569 652.565 474.1 653.417ZM287.695 626.307C287.227 627.159 285.825 628.104 284.96 627.695C284.096 627.285 284.096 625.677 284.563 624.825C285.032 623.972 286.242 623.378 287.107 623.787C287.971 624.196 288.163 625.454 287.695 626.307ZM354.862 648.568C353.997 648.159 353.997 646.551 354.466 645.698C354.934 644.846 356.143 644.252 357.008 644.661C357.873 645.07 358.066 646.328 357.597 647.18C357.128 648.033 355.728 648.978 354.862 648.568ZM424.227 614.903C423.759 615.757 423.76 617.364 424.624 617.773C425.49 618.183 426.891 617.238 427.359 616.386C427.828 615.533 427.635 614.275 426.77 613.866C425.906 613.457 424.696 614.051 424.227 614.903ZM461.023 634.2C460.159 633.791 460.159 632.183 460.626 631.33C461.094 630.478 462.304 629.884 463.169 630.293C464.034 630.702 464.226 631.96 463.758 632.813C463.29 633.665 461.888 634.609 461.023 634.2ZM364.403 577.492C365.268 577.901 366.67 576.957 367.138 576.104C367.606 575.251 367.414 573.993 366.549 573.583C365.685 573.175 364.475 573.769 364.006 574.622C363.538 575.474 363.539 577.082 364.403 577.492ZM438.77 657.898C437.904 657.489 437.905 655.881 438.373 655.028C438.841 654.176 440.051 653.581 440.916 653.99C441.781 654.4 441.973 655.658 441.504 656.51C441.036 657.363 439.635 658.307 438.77 657.898ZM298.514 608.445C297.648 608.037 296.439 608.631 295.971 609.483C295.503 610.336 295.503 611.944 296.368 612.353C297.232 612.762 298.634 611.817 299.103 610.965C299.571 610.112 299.379 608.854 298.514 608.445ZM370.734 692.76C369.87 692.35 369.869 690.743 370.337 689.889C370.806 689.037 372.016 688.443 372.88 688.852C373.745 689.261 373.938 690.518 373.469 691.371C373.001 692.224 371.6 693.169 370.734 692.76ZM366.27 633.227C367.134 633.636 368.536 632.692 369.005 631.839C369.472 630.986 369.28 629.728 368.416 629.319C367.551 628.91 366.341 629.505 365.873 630.357C365.405 631.209 365.406 632.817 366.27 633.227ZM440.24 710.763C440.708 709.911 441.918 709.317 442.783 709.726C443.648 710.134 443.84 711.392 443.371 712.245C442.903 713.097 441.502 714.042 440.636 713.633C439.771 713.224 439.772 711.616 440.24 710.763ZM297.838 665.218C297.37 666.071 297.37 667.679 298.235 668.088C299.099 668.497 300.501 667.553 300.969 666.7C301.438 665.847 301.245 664.589 300.38 664.181C299.515 663.772 298.306 664.365 297.838 665.218ZM438.767 601.044C438.298 601.897 436.897 602.842 436.032 602.432C435.167 602.023 435.167 600.415 435.635 599.563C436.104 598.71 437.313 598.115 438.178 598.524C439.043 598.934 439.235 600.191 438.767 601.044ZM472.431 618.859C473.295 619.268 474.697 618.323 475.165 617.47C475.634 616.617 475.441 615.36 474.577 614.951C473.712 614.542 472.502 615.136 472.034 615.989C471.565 616.842 471.566 618.45 472.431 618.859ZM359.369 554.469C359.04 553.595 360.16 552.347 361.086 551.988C362.013 551.628 363.286 551.945 363.616 552.82C363.945 553.695 363.206 554.794 362.279 555.155C361.352 555.514 359.698 555.344 359.369 554.469ZM435.453 632.394C434.526 632.753 433.406 634.001 433.736 634.875C434.065 635.75 435.719 635.921 436.646 635.561C437.572 635.201 438.311 634.102 437.982 633.227C437.653 632.352 436.38 632.034 435.453 632.394ZM496.756 589.84C496.427 588.965 497.547 587.717 498.473 587.358C499.4 586.999 500.673 587.316 501.003 588.191C501.332 589.066 500.593 590.165 499.666 590.525C498.739 590.885 497.085 590.714 496.756 589.84ZM367.417 667.255C366.491 667.615 365.371 668.862 365.7 669.737C366.029 670.611 367.683 670.782 368.61 670.422C369.537 670.062 370.277 668.963 369.947 668.088C369.618 667.214 368.344 666.895 367.417 667.255ZM365.482 608.555C365.811 609.43 365.072 610.529 364.145 610.89C363.219 611.25 361.564 611.079 361.236 610.204C360.906 609.33 362.026 608.082 362.953 607.722C363.879 607.363 365.152 607.681 365.482 608.555ZM438.512 691.295C439.438 690.936 440.178 689.836 439.849 688.962C439.519 688.087 438.246 687.77 437.319 688.129C436.393 688.488 435.273 689.735 435.602 690.611C435.931 691.485 437.585 691.656 438.512 691.295ZM452.626 678.871C452.955 679.746 452.215 680.845 451.289 681.204C450.362 681.565 448.709 681.394 448.379 680.519C448.049 679.645 449.169 678.398 450.096 678.038C451.023 677.678 452.296 677.996 452.626 678.871ZM296.11 645.75C297.036 645.391 297.776 644.291 297.447 643.416C297.118 642.542 295.843 642.224 294.917 642.583C293.99 642.944 292.87 644.191 293.2 645.066C293.529 645.939 295.183 646.111 296.11 645.75ZM430.997 579.41C430.668 578.535 431.788 577.287 432.715 576.928C433.641 576.568 434.915 576.886 435.245 577.761C435.574 578.635 434.834 579.735 433.907 580.095C432.981 580.455 431.327 580.284 430.997 579.41ZM469.114 593.354C468.187 593.714 467.066 594.962 467.396 595.837C467.726 596.711 469.379 596.881 470.306 596.521C471.232 596.162 471.973 595.062 471.643 594.187C471.314 593.313 470.041 592.995 469.114 593.354ZM374.073 567.279C372.925 567.069 372.405 565.229 372.679 564.115C372.953 562.999 374.181 561.958 375.329 562.167C376.477 562.377 377.11 563.758 376.836 564.873C376.561 565.988 375.221 567.489 374.073 567.279ZM451.203 645.28C451.477 644.165 450.844 642.783 449.696 642.573C448.548 642.364 447.32 643.406 447.045 644.521C446.772 645.636 447.292 647.475 448.44 647.685C449.587 647.895 450.928 646.394 451.203 645.28ZM307.294 597.028C308.442 597.239 309.074 598.619 308.8 599.735C308.526 600.85 307.185 602.35 306.038 602.14C304.89 601.93 304.37 600.091 304.644 598.976C304.917 597.861 306.146 596.819 307.294 597.028ZM380.404 682.547C381.552 682.756 382.892 681.257 383.167 680.141C383.442 679.026 382.808 677.645 381.661 677.434C380.513 677.225 379.285 678.267 379.011 679.382C378.736 680.498 379.256 682.337 380.404 682.547ZM374.546 619.85C374.82 618.735 376.048 617.693 377.196 617.902C378.343 618.112 378.976 619.493 378.702 620.608C378.428 621.724 377.087 623.224 375.939 623.014C374.792 622.804 374.271 620.965 374.546 619.85ZM456.093 706.712C456.367 705.596 455.735 704.215 454.587 704.005C453.439 703.796 452.211 704.838 451.937 705.953C451.663 707.068 452.182 708.908 453.33 709.118C454.479 709.327 455.82 707.827 456.093 706.712ZM310.667 655.47C310.393 656.585 309.052 658.084 307.904 657.876C306.756 657.666 306.236 655.827 306.511 654.711C306.785 653.595 308.013 652.554 309.16 652.763C310.309 652.973 310.941 654.354 310.667 655.47ZM444.309 589.055C444.033 590.17 444.554 592.009 445.702 592.219C446.85 592.428 448.19 590.929 448.465 589.813C448.739 588.699 448.106 587.317 446.958 587.107C445.81 586.898 444.582 587.94 444.309 589.055ZM482.1 608.646C480.953 608.436 480.432 606.597 480.707 605.481C480.981 604.367 482.21 603.324 483.356 603.534C484.504 603.745 485.137 605.125 484.863 606.24C484.589 607.356 483.248 608.856 482.1 608.646ZM379.769 571.428C378.99 572.04 378.308 573.541 378.908 574.262C379.508 574.982 381.161 574.65 381.94 574.038C382.72 573.425 383.08 572.175 382.48 571.455C381.881 570.734 380.548 570.816 379.769 571.428ZM456.306 654.444C455.527 655.056 453.874 655.389 453.275 654.668C452.675 653.948 453.356 652.447 454.135 651.835C454.915 651.222 456.247 651.14 456.847 651.862C457.447 652.582 457.087 653.831 456.306 654.444ZM310.873 609.123C311.472 609.843 313.125 609.511 313.905 608.899C314.684 608.286 315.044 607.037 314.445 606.316C313.845 605.596 312.512 605.676 311.733 606.289C310.954 606.901 310.273 608.403 310.873 609.123ZM385.239 689.529C384.639 688.809 385.321 687.308 386.1 686.696C386.88 686.083 388.213 686.002 388.812 686.723C389.412 687.443 389.051 688.692 388.271 689.305C387.492 689.918 385.839 690.25 385.239 689.529ZM381.635 627.163C380.856 627.775 380.175 629.276 380.775 629.997C381.374 630.717 383.027 630.385 383.807 629.773C384.586 629.16 384.946 627.91 384.347 627.19C383.748 626.469 382.415 626.551 381.635 627.163ZM450.014 725.063C449.415 724.343 450.095 722.841 450.875 722.229C451.655 721.616 452.988 721.535 453.587 722.256C454.186 722.976 453.826 724.225 453.047 724.838C452.267 725.451 450.613 725.783 450.014 725.063ZM315.772 664.634C316.551 664.021 316.911 662.772 316.311 662.052C315.713 661.331 314.379 661.412 313.6 662.025C312.821 662.637 312.14 664.138 312.74 664.858C313.338 665.579 314.992 665.246 315.772 664.634ZM486.935 615.629C486.336 614.909 487.017 613.407 487.796 612.795C488.576 612.183 489.908 612.101 490.508 612.822C491.108 613.543 490.747 614.792 489.968 615.404C489.188 616.017 487.535 616.35 486.935 615.629ZM377.37 550.395C376.444 550.755 375.323 552.002 375.652 552.876C375.982 553.752 377.636 553.922 378.562 553.562C379.489 553.202 380.229 552.102 379.9 551.228C379.57 550.353 378.297 550.035 377.37 550.395ZM450.019 633.283C449.69 632.408 450.811 631.161 451.737 630.801C452.664 630.441 453.937 630.759 454.266 631.634C454.596 632.508 453.856 633.608 452.929 633.968C452.002 634.328 450.349 634.158 450.019 633.283ZM472.285 630.201C471.358 630.561 470.238 631.808 470.567 632.683C470.898 633.558 472.551 633.728 473.478 633.368C474.404 633.008 475.144 631.909 474.815 631.034C474.485 630.159 473.212 629.841 472.285 630.201ZM311.864 586.088C312.193 586.964 311.454 588.063 310.528 588.423C309.601 588.783 307.947 588.612 307.617 587.738C307.288 586.864 308.408 585.616 309.335 585.256C310.262 584.896 311.535 585.214 311.864 586.088ZM383.701 665.663C382.775 666.022 381.655 667.269 381.984 668.144C382.313 669.019 383.968 669.189 384.894 668.829C385.82 668.47 386.56 667.37 386.231 666.495C385.901 665.621 384.628 665.303 383.701 665.663ZM379.237 606.13C380.163 605.77 381.437 606.088 381.766 606.963C382.095 607.837 381.356 608.937 380.429 609.297C379.503 609.657 377.849 609.487 377.52 608.612C377.19 607.737 378.31 606.49 379.237 606.13ZM460.252 694.461C461.178 694.102 461.918 693.001 461.589 692.127C461.259 691.253 459.985 690.935 459.059 691.294C458.132 691.654 457.012 692.901 457.342 693.776C457.671 694.65 459.325 694.821 460.252 694.461ZM309.485 643.473C309.155 642.598 310.274 641.351 311.201 640.991C312.128 640.631 313.401 640.95 313.73 641.824C314.06 642.699 313.321 643.798 312.394 644.158C311.468 644.518 309.814 644.348 309.485 643.473ZM448.999 575.336C448.072 575.695 446.952 576.942 447.281 577.817C447.611 578.692 449.265 578.862 450.191 578.502C451.118 578.142 451.858 577.043 451.528 576.169C451.198 575.294 449.925 574.975 448.999 575.336ZM478.335 585.227C478.005 584.353 479.126 583.105 480.052 582.746C480.979 582.386 482.252 582.704 482.581 583.579C482.911 584.453 482.171 585.552 481.245 585.913C480.318 586.272 478.664 586.102 478.335 585.227ZM315.919 563.746C316.845 563.386 317.585 562.286 317.255 561.411C316.926 560.537 315.653 560.219 314.726 560.579C313.799 560.939 312.678 562.186 313.008 563.061C313.338 563.935 314.992 564.106 315.919 563.746ZM391.622 641.818C391.951 642.693 391.212 643.793 390.285 644.152C389.358 644.513 387.705 644.342 387.375 643.467C387.046 642.593 388.166 641.345 389.093 640.985C390.019 640.625 391.293 640.943 391.622 641.818ZM321.057 675.846C320.13 676.207 319.01 677.454 319.34 678.328C319.669 679.203 321.323 679.373 322.25 679.013C323.176 678.654 323.916 677.555 323.587 676.679C323.257 675.805 321.984 675.487 321.057 675.846ZM316.592 616.314C317.519 615.954 318.792 616.272 319.122 617.147C319.451 618.021 318.711 619.121 317.785 619.481C316.858 619.841 315.204 619.67 314.875 618.796C314.545 617.922 315.666 616.673 316.592 616.314ZM392.152 699.887C393.078 699.528 393.817 698.428 393.488 697.553C393.159 696.678 391.885 696.361 390.959 696.72C390.032 697.08 388.912 698.327 389.242 699.202C389.571 700.076 391.225 700.248 392.152 699.887ZM388.884 586.352C389.213 587.227 388.473 588.326 387.547 588.686C386.62 589.046 384.966 588.876 384.637 588C384.308 587.126 385.428 585.879 386.354 585.519C387.281 585.159 388.554 585.478 388.884 586.352ZM323.711 554.592C323.06 555.331 322.685 556.915 323.421 557.506C324.159 558.096 325.73 557.469 326.381 556.73C327.032 555.992 327.141 554.71 326.404 554.12C325.667 553.53 324.362 553.853 323.711 554.592ZM397.788 637.912C397.051 637.321 397.427 635.737 398.078 634.998C398.729 634.259 400.033 633.936 400.771 634.527C401.508 635.116 401.399 636.398 400.747 637.136C400.097 637.876 398.525 638.503 397.788 637.912ZM332.712 671.998C333.363 671.259 333.472 669.978 332.735 669.388C331.998 668.797 330.693 669.121 330.043 669.86C329.392 670.597 329.015 672.183 329.753 672.773C330.49 673.363 332.062 672.737 332.712 671.998ZM325.288 613.241C324.551 612.65 324.927 611.066 325.578 610.327C326.229 609.588 327.533 609.265 328.27 609.855C329.008 610.445 328.898 611.727 328.248 612.465C327.597 613.204 326.025 613.831 325.288 613.241ZM402.614 692.872C403.265 692.133 403.374 690.852 402.637 690.261C401.9 689.671 400.595 689.995 399.945 690.734C399.294 691.472 398.917 693.057 399.654 693.647C400.392 694.237 401.964 693.61 402.614 692.872ZM395.05 582.446C394.313 581.855 394.689 580.271 395.339 579.533C395.991 578.794 397.295 578.47 398.033 579.06C398.77 579.651 398.661 580.931 398.01 581.67C397.359 582.409 395.787 583.036 395.05 582.446ZM322.949 539.642C322.299 540.381 321.923 541.965 322.659 542.556C323.397 543.146 324.968 542.519 325.619 541.78C326.27 541.042 326.379 539.76 325.642 539.17C324.904 538.579 323.6 538.903 322.949 539.642ZM400.009 619.577C400.745 620.167 400.636 621.448 399.986 622.187C399.336 622.925 397.763 623.553 397.026 622.962C396.289 622.371 396.665 620.786 397.316 620.048C397.966 619.31 399.272 618.986 400.009 619.577ZM328.991 657.824C329.729 658.413 331.299 657.787 331.951 657.048C332.602 656.309 332.711 655.028 331.973 654.438C331.236 653.847 329.932 654.171 329.281 654.91C328.63 655.648 328.253 657.232 328.991 657.824ZM327.508 594.905C328.246 595.495 328.136 596.777 327.486 597.516C326.835 598.254 325.263 598.882 324.526 598.291C323.789 597.7 324.165 596.115 324.816 595.377C325.467 594.638 326.771 594.315 327.508 594.905ZM401.852 677.922C402.503 677.183 402.613 675.902 401.875 675.312C401.138 674.721 399.833 675.045 399.182 675.784C398.532 676.522 398.155 678.107 398.893 678.697C399.63 679.287 401.202 678.661 401.852 677.922ZM397.248 566.721C396.597 567.459 395.025 568.086 394.288 567.496C393.55 566.905 393.928 565.321 394.578 564.583C395.229 563.844 396.533 563.52 397.27 564.11C398.008 564.701 397.899 565.982 397.248 566.721ZM340.435 568.141C341.418 568.069 341.997 566.869 341.971 565.926C341.943 564.983 341.051 564.323 340.068 564.395C339.084 564.467 338.383 565.243 338.41 566.186C338.437 567.129 339.452 568.213 340.435 568.141ZM414.801 648.547C413.818 648.62 412.804 647.537 412.777 646.593C412.75 645.651 413.451 644.874 414.434 644.802C415.418 644.73 416.31 645.389 416.337 646.332C416.364 647.275 415.784 648.476 414.801 648.547ZM496.165 603.253C496.192 604.196 497.207 605.279 498.19 605.207C499.173 605.135 499.752 603.935 499.725 602.992C499.698 602.049 498.805 601.389 497.823 601.462C496.84 601.533 496.138 602.31 496.165 603.253ZM348.302 681.193C348.329 682.136 347.75 683.337 346.766 683.409C345.783 683.481 344.769 682.397 344.741 681.454C344.715 680.511 345.415 679.735 346.399 679.663C347.382 679.59 348.275 680.25 348.302 681.193ZM342.301 623.876C343.285 623.805 343.864 622.604 343.837 621.661C343.81 620.718 342.917 620.058 341.934 620.131C340.951 620.203 340.25 620.979 340.277 621.922C340.304 622.865 341.318 623.948 342.301 623.876ZM418.204 702.067C418.231 703.01 417.651 704.211 416.668 704.282C415.685 704.355 414.671 703.271 414.644 702.328C414.617 701.386 415.318 700.609 416.301 700.536C417.284 700.464 418.177 701.124 418.204 702.067ZM274.266 658.737C275.249 658.665 275.828 657.465 275.802 656.522C275.774 655.579 274.883 654.919 273.899 654.992C272.916 655.063 272.215 655.84 272.241 656.783C272.269 657.726 273.283 658.809 274.266 658.737ZM411.696 589.336C412.679 589.264 413.573 589.924 413.599 590.866C413.626 591.809 413.046 593.01 412.064 593.081C411.08 593.153 410.066 592.07 410.039 591.128C410.012 590.184 410.713 589.408 411.696 589.336ZM372.204 592.094C373.187 592.022 373.767 590.822 373.739 589.878C373.713 588.935 372.82 588.275 371.837 588.348C370.854 588.42 370.153 589.196 370.18 590.139C370.207 591.082 371.221 592.166 372.204 592.094ZM448.106 670.285C448.134 671.228 447.554 672.429 446.571 672.5C445.587 672.572 444.573 671.489 444.546 670.546C444.519 669.603 445.22 668.827 446.204 668.754C447.186 668.682 448.079 669.342 448.106 670.285ZM469.288 668.247C469.315 669.19 470.329 670.274 471.313 670.202C472.296 670.13 472.875 668.929 472.848 667.986C472.821 667.043 471.928 666.384 470.946 666.456C469.963 666.528 469.261 667.304 469.288 668.247ZM305.704 624.74C305.731 625.682 305.151 626.883 304.169 626.955C303.186 627.027 302.171 625.943 302.144 625C302.118 624.057 302.818 623.281 303.802 623.209C304.785 623.137 305.677 623.797 305.704 624.74ZM374.071 647.829C375.054 647.757 375.633 646.557 375.606 645.614C375.579 644.67 374.687 644.01 373.703 644.083C372.72 644.155 372.02 644.931 372.046 645.874C372.073 646.817 373.088 647.901 374.071 647.829ZM443.833 617.035C442.85 617.106 441.835 616.023 441.808 615.08C441.781 614.137 442.483 613.36 443.465 613.288C444.449 613.216 445.342 613.876 445.368 614.819C445.395 615.762 444.816 616.962 443.833 617.035ZM481.781 625.548C482.764 625.476 483.344 624.276 483.316 623.333C483.289 622.39 482.397 621.73 481.414 621.802C480.431 621.874 479.729 622.65 479.756 623.593C479.783 624.536 480.797 625.62 481.781 625.548ZM360.637 544.179C359.653 544.252 358.639 543.168 358.611 542.225C358.585 541.282 359.286 540.505 360.269 540.433C361.252 540.362 362.144 541.021 362.172 541.964C362.198 542.907 361.62 544.108 360.637 544.179ZM432.978 622.631C433.005 623.574 434.02 624.658 435.003 624.586C435.986 624.514 436.565 623.313 436.539 622.37C436.511 621.427 435.619 620.768 434.636 620.84C433.652 620.912 432.952 621.688 432.978 622.631ZM366.6 655.701C367.583 655.629 368.476 656.29 368.503 657.232C368.53 658.176 367.951 659.375 366.967 659.447C365.984 659.518 364.97 658.435 364.944 657.493C364.916 656.549 365.617 655.773 366.6 655.701ZM360.479 597.96C360.505 598.903 361.519 599.987 362.503 599.914C363.486 599.843 364.066 598.642 364.038 597.699C364.012 596.756 363.119 596.096 362.135 596.168C361.153 596.24 360.451 597.017 360.479 597.96ZM300.404 594.35C299.421 594.422 298.407 593.338 298.38 592.396C298.353 591.452 299.054 590.676 300.037 590.605C301.02 590.532 301.913 591.192 301.939 592.135C301.967 593.078 301.388 594.278 300.404 594.35ZM436.502 676.575C435.519 676.647 434.818 677.424 434.845 678.367C434.872 679.31 435.886 680.393 436.869 680.321C437.852 680.25 438.432 679.049 438.405 678.106C438.379 677.163 437.485 676.503 436.502 676.575ZM461.611 678.022C460.628 678.095 459.614 677.011 459.587 676.068C459.56 675.125 460.261 674.348 461.244 674.276C462.227 674.205 463.121 674.864 463.147 675.807C463.174 676.75 462.595 677.951 461.611 678.022ZM292.443 632.821C292.47 633.764 293.485 634.847 294.467 634.776C295.45 634.704 296.03 633.504 296.003 632.561C295.976 631.618 295.084 630.958 294.1 631.03C293.117 631.101 292.416 631.878 292.443 632.821ZM432.265 569.12C431.282 569.192 430.268 568.108 430.24 567.165C430.214 566.223 430.915 565.446 431.898 565.374C432.881 565.302 433.773 565.962 433.801 566.905C433.827 567.848 433.248 569.048 432.265 569.12ZM466.639 583.592C466.666 584.535 467.681 585.619 468.664 585.547C469.647 585.474 470.226 584.275 470.199 583.332C470.172 582.389 469.28 581.728 468.296 581.801C467.313 581.872 466.613 582.649 466.639 583.592ZM347.649 580.312C346.665 580.384 345.651 579.3 345.623 578.357C345.597 577.415 346.298 576.638 347.281 576.566C348.265 576.493 349.156 577.153 349.184 578.097C349.21 579.039 348.632 580.24 347.649 580.312ZM419.99 658.764C420.018 659.707 421.032 660.791 422.015 660.718C422.999 660.646 423.577 659.446 423.551 658.503C423.524 657.56 422.631 656.9 421.648 656.972C420.665 657.044 419.964 657.821 419.99 658.764ZM469.151 643.766C468.167 643.838 467.153 642.755 467.126 641.811C467.099 640.869 467.8 640.092 468.783 640.02C469.767 639.948 470.659 640.607 470.686 641.55C470.713 642.493 470.133 643.694 469.151 643.766ZM483.813 635.965C483.841 636.908 484.855 637.992 485.838 637.92C486.821 637.848 487.4 636.648 487.373 635.705C487.346 634.762 486.454 634.102 485.47 634.174C484.488 634.246 483.787 635.023 483.813 635.965ZM353.612 691.834C354.595 691.762 355.489 692.422 355.515 693.364C355.543 694.308 354.963 695.508 353.98 695.58C352.996 695.651 351.982 694.568 351.955 693.626C351.928 692.682 352.629 691.906 353.612 691.834ZM347.491 634.092C347.517 635.035 348.531 636.119 349.515 636.047C350.498 635.974 351.078 634.775 351.05 633.832C351.024 632.889 350.131 632.228 349.147 632.301C348.165 632.373 347.464 633.149 347.491 634.092ZM423.882 716.453C422.898 716.525 421.884 715.442 421.858 714.499C421.83 713.556 422.532 712.779 423.515 712.707C424.497 712.635 425.391 713.295 425.417 714.238C425.445 715.181 424.865 716.382 423.882 716.453ZM279.455 668.954C279.482 669.897 280.497 670.98 281.48 670.909C282.462 670.837 283.042 669.636 283.015 668.693C282.988 667.75 282.096 667.09 281.112 667.163C280.129 667.234 279.428 668.011 279.455 668.954ZM419.277 605.253C418.294 605.325 417.28 604.241 417.252 603.298C417.226 602.355 417.927 601.578 418.91 601.506C419.893 601.434 420.785 602.094 420.813 603.037C420.839 603.98 420.26 605.18 419.277 605.253ZM453.652 619.725C453.679 620.668 454.693 621.751 455.676 621.679C456.659 621.607 457.238 620.407 457.211 619.464C457.184 618.521 456.292 617.861 455.308 617.933C454.326 618.005 453.625 618.782 453.652 619.725Z" fill="#F8F0E5"/>
</g>
<path fill-rule="evenodd" clip-rule="evenodd" d="M525.019 590.559C525.374 590.705 525.523 591.106 525.353 591.455L519.602 603.27C519.432 603.619 519.008 603.783 518.653 603.636C518.298 603.49 518.148 603.089 518.317 602.74L524.069 590.925C524.239 590.576 524.664 590.413 525.019 590.559ZM517.676 589.311C517.895 588.987 517.809 588.566 517.483 588.371C517.157 588.175 516.715 588.279 516.495 588.602L508.73 600.036C508.51 600.36 508.597 600.78 508.923 600.976C509.249 601.172 509.692 601.068 509.911 600.745L517.676 589.311ZM446.509 646.234C446.247 646.528 446.272 646.959 446.566 647.196C446.859 647.434 447.309 647.389 447.571 647.095L452.765 641.265C453.027 640.971 453.001 640.54 452.708 640.302C452.415 640.065 451.964 640.11 451.703 640.404L446.509 646.234ZM556.429 683.504C556.547 683.858 556.947 684.039 557.322 683.908C557.697 683.777 557.905 683.384 557.787 683.029L555.067 674.866C554.949 674.512 554.548 674.33 554.174 674.462C553.799 674.593 553.59 674.987 553.708 675.341L556.429 683.504ZM489.585 681.977C489.877 681.711 490.327 681.713 490.59 681.981L496.521 688.026C496.784 688.295 496.76 688.728 496.468 688.995C496.176 689.261 495.725 689.259 495.462 688.991L489.532 682.946C489.269 682.677 489.293 682.244 489.585 681.977ZM534.438 594.377C534.571 594.015 534.378 593.634 534.008 593.523C533.638 593.414 533.23 593.618 533.098 593.98L528.572 606.341C528.44 606.703 528.633 607.084 529.003 607.195C529.373 607.304 529.78 607.1 529.913 606.738L534.438 594.377ZM544.613 597.744C544.999 597.792 545.257 598.135 545.188 598.51L542.853 611.171C542.785 611.545 542.415 611.81 542.028 611.762C541.64 611.714 541.383 611.372 541.452 610.996L543.786 598.336C543.856 597.961 544.225 597.696 544.613 597.744Z" fill="#D59064"/>
<path fill-rule="evenodd" clip-rule="evenodd" d="M570.624 685.519L420.68 635.913L402.628 721.011L528.606 762.688L570.624 685.519Z" fill="#C9B192"/>
<path fill-rule="evenodd" clip-rule="evenodd" d="M490.092 700.954C490.027 699.032 490.022 697.187 490.087 695.453C490.23 691.616 490.698 688.508 491.576 686.288L491.486 686.338C489.94 687.19 488.349 688.152 486.805 689.205C484.192 690.986 481.985 692.836 480.375 694.705C479.41 695.824 478.682 696.928 478.213 698.006C478.192 698.054 478.165 698.1 478.135 698.142C480.679 699.246 481.954 702.311 481.017 705.426C479.978 708.877 476.616 711.082 473.507 710.351C470.399 709.62 468.721 706.23 469.76 702.78C470.754 699.483 473.867 697.323 476.854 697.775C476.858 697.695 476.876 697.612 476.911 697.533C477.441 696.313 478.249 695.09 479.302 693.867C481.009 691.886 483.311 689.956 486.023 688.107C487.611 687.026 489.242 686.038 490.827 685.164C491.382 684.859 491.892 684.589 492.347 684.357C492.621 684.217 492.817 684.12 492.923 684.069C493.587 683.751 494.215 684.469 493.784 685.053C492.427 686.885 491.685 690.527 491.502 695.436C491.438 697.137 491.443 698.951 491.508 700.844C491.58 703.01 491.726 705.166 491.917 707.21C491.983 707.925 492.051 708.574 492.116 709.147C492.154 709.488 492.183 709.728 492.2 709.852C492.223 710.028 492.172 710.2 492.071 710.339C492.205 710.372 492.338 710.411 492.47 710.455C495.736 711.534 497.275 715.177 495.905 718.593C494.536 722.009 490.778 723.904 487.511 722.825C484.244 721.746 482.706 718.102 484.075 714.686C485.216 711.839 488.016 710.05 490.808 710.156C490.802 710.133 490.798 710.109 490.794 710.084C490.79 710.05 490.782 709.987 490.771 709.894C490.752 709.741 490.731 709.561 490.708 709.358C490.643 708.778 490.574 708.12 490.506 707.396C490.314 705.328 490.166 703.148 490.092 700.954Z" fill="#F8F0E5"/>
<path d="M127.093 592.581L125.682 592.05L125.012 593.835L126.922 594.065L127.093 592.581ZM215.81 359.452C215.464 358.699 214.571 358.363 213.815 358.701L201.496 364.214C200.74 364.553 200.408 365.437 200.754 366.19C201.1 366.943 201.993 367.279 202.749 366.941L213.699 362.041L218.711 372.948C219.057 373.701 219.95 374.037 220.706 373.699C221.462 373.36 221.794 372.476 221.448 371.723L215.81 359.452ZM323.554 614.765L127.264 591.097L126.922 594.065L323.211 617.733L323.554 614.765ZM128.504 593.112L215.852 360.596L213.03 359.534L125.682 592.05L128.504 593.112Z" fill="#875B40"/>
</g>
<defs>
<filter id="filter0_d_47_2509" x="-4" y="0" width="792" height="1008" filterUnits="userSpaceOnUse" color-interpolation-filters="sRGB">
<feFlood flood-opacity="0" result="BackgroundImageFix"/>
<feColorMatrix in="SourceAlpha" type="matrix" values="0 0 0 0 0 0 0 0 0 0 0 0 0 0 0 0 0 0 127 0" result="hardAlpha"/>
<feOffset dy="4"/>
<feGaussianBlur stdDeviation="2"/>
<feComposite in2="hardAlpha" operator="out"/>
<feColorMatrix type="matrix" values="0 0 0 0 0 0 0 0 0 0 0 0 0 0 0 0 0 0 0.25 0"/>
<feBlend mode="normal" in2="BackgroundImageFix" result="effect1_dropShadow_47_2509"/>
<feBlend mode="normal" in="SourceGraphic" in2="effect1_dropShadow_47_2509" result="shape"/>
</filter>
</defs>
</svg>
