<svg width="75" height="75" viewBox="0 0 75 75" fill="none" xmlns="http://www.w3.org/2000/svg">
<path d="M64.4531 22.7051H53.6426C54.6387 21.1377 55.2246 19.2773 55.2246 17.2852C55.2246 11.7114 50.6909 7.17773 45.1172 7.17773C42.085 7.17773 39.353 8.52539 37.5 10.6494C35.647 8.52539 32.915 7.17773 29.8828 7.17773C24.3091 7.17773 19.7754 11.7114 19.7754 17.2852C19.7754 19.2773 20.354 21.1377 21.3574 22.7051H10.5469C9.25049 22.7051 8.20312 23.7524 8.20312 25.0488V39.6973C8.20312 40.0195 8.4668 40.2832 8.78906 40.2832H11.7188V65.4785C11.7188 66.7749 12.7661 67.8223 14.0625 67.8223H60.9375C62.2339 67.8223 63.2812 66.7749 63.2812 65.4785V40.2832H66.2109C66.5332 40.2832 66.7969 40.0195 66.7969 39.6973V25.0488C66.7969 23.7524 65.7495 22.7051 64.4531 22.7051ZM39.9902 17.2852C39.9902 14.458 42.29 12.1582 45.1172 12.1582C47.9443 12.1582 50.2441 14.458 50.2441 17.2852C50.2441 20.1123 47.9443 22.4121 45.1172 22.4121H39.9902V17.2852ZM29.8828 12.1582C32.71 12.1582 35.0098 14.458 35.0098 17.2852V22.4121H29.8828C27.0557 22.4121 24.7559 20.1123 24.7559 17.2852C24.7559 14.458 27.0557 12.1582 29.8828 12.1582ZM13.1836 35.3027V27.6855H35.0098V35.3027H13.1836ZM16.6992 40.2832H35.0098V62.8418H16.6992V40.2832ZM58.3008 62.8418H39.9902V40.2832H58.3008V62.8418ZM61.8164 35.3027H39.9902V27.6855H61.8164V35.3027Z" fill="#875B40"/>
</svg>
