<svg width="75" height="75" viewBox="0 0 75 75" fill="none" xmlns="http://www.w3.org/2000/svg">
<path d="M12.5531 55.7531C13.0397 56.2415 13.4125 56.8313 13.645 57.4802C13.8776 58.1292 13.9641 58.8215 13.8984 59.5078C13.569 62.684 12.9444 65.8225 12.0328 68.8828C18.5719 67.3687 22.5656 65.6156 24.3797 64.6969C25.4086 64.1757 26.5935 64.0522 27.7078 64.35C30.902 65.2016 34.1942 65.6302 37.5 65.625C56.2313 65.625 70.3125 52.4672 70.3125 37.5C70.3125 22.5375 56.2313 9.375 37.5 9.375C18.7687 9.375 4.6875 22.5375 4.6875 37.5C4.6875 44.3813 7.57969 50.7656 12.5531 55.7531ZM10.2422 74.0578C9.13157 74.278 8.01735 74.4796 6.9 74.6625C5.9625 74.8125 5.25 73.8375 5.62031 72.9656C6.03652 71.9841 6.41801 70.9881 6.76406 69.9797L6.77812 69.9328C7.94062 66.5578 8.8875 62.6766 9.23438 59.0625C3.48281 53.2969 0 45.75 0 37.5C0 19.3781 16.7906 4.6875 37.5 4.6875C58.2094 4.6875 75 19.3781 75 37.5C75 55.6219 58.2094 70.3125 37.5 70.3125C33.7859 70.3175 30.0871 69.8353 26.4984 68.8781C24.0609 70.1109 18.8156 72.3562 10.2422 74.0578V74.0578Z" fill="#875B40"/>
</svg>
