<svg width="75" height="75" viewBox="0 0 75 75" fill="none" xmlns="http://www.w3.org/2000/svg">
<path d="M31.25 16.6666H50V20.8333H31.25V16.6666Z" fill="#875B40"/>
<path d="M31.25 25H50V29.1667H31.25V25Z" fill="#875B40"/>
<path d="M31.25 33.3334H50V37.5H31.25V33.3334Z" fill="#875B40"/>
<path d="M31.25 41.6666H50V45.8333H31.25V41.6666Z" fill="#875B40"/>
<path d="M31.25 50H50V54.1667H31.25V50Z" fill="#875B40"/>
<path d="M22.9165 16.6666H27.0832V20.8333H22.9165V16.6666Z" fill="#875B40"/>
<path d="M22.9165 25H27.0832V29.1667H22.9165V25Z" fill="#875B40"/>
<path d="M22.9165 33.3334H27.0832V37.5H22.9165V33.3334Z" fill="#875B40"/>
<path d="M22.9165 41.6666H27.0832V45.8333H22.9165V41.6666Z" fill="#875B40"/>
<path d="M22.9165 50H27.0832V54.1667H22.9165V50Z" fill="#875B40"/>
<path d="M58.3333 4.16663H16.6667C15.5616 4.16663 14.5018 4.60561 13.7204 5.38701C12.939 6.16842 12.5 7.22822 12.5 8.33329V66.6666C12.5 67.7717 12.939 68.8315 13.7204 69.6129C14.5018 70.3943 15.5616 70.8333 16.6667 70.8333H58.3333C59.4384 70.8333 60.4982 70.3943 61.2796 69.6129C62.061 68.8315 62.5 67.7717 62.5 66.6666V8.33329C62.5 7.22822 62.061 6.16842 61.2796 5.38701C60.4982 4.60561 59.4384 4.16663 58.3333 4.16663ZM58.3333 66.6666H16.6667V8.33329H58.3333V66.6666Z" fill="#875B40"/>
</svg>
