<svg width="75" height="75" viewBox="0 0 75 75" fill="none" xmlns="http://www.w3.org/2000/svg">
<path d="M37.5002 59.55L36.6002 58.8C17.2502 43.05 12.0002 37.5 12.0002 28.5C12.0002 21 18.0002 15 25.5002 15C31.6502 15 35.1002 18.45 37.5002 21.15C39.9002 18.45 43.3502 15 49.5002 15C57.0002 15 63.0002 21 63.0002 28.5C63.0002 37.5 57.7502 43.05 38.4002 58.8L37.5002 59.55ZM25.5002 18C19.6502 18 15.0002 22.65 15.0002 28.5C15.0002 36.15 19.8002 41.25 37.5002 55.65C55.2002 41.25 60.0002 36.15 60.0002 28.5C60.0002 22.65 55.3502 18 49.5002 18C44.2502 18 41.4002 21.15 39.1502 23.7L37.5002 25.65L35.8502 23.7C33.6002 21.15 30.7502 18 25.5002 18Z" fill="#875B40"/>
</svg>
