<svg width="75" height="75" viewBox="0 0 75 75" fill="none" xmlns="http://www.w3.org/2000/svg">
<path d="M38.8194 52.7097C35.3612 49.9406 29.7538 49.9406 26.2956 52.7097C22.8409 55.48 22.8409 59.9695 26.2956 62.7398C29.7526 65.5101 35.3601 65.5101 38.8194 62.7398C42.2753 59.9695 42.2753 55.48 38.8194 52.7097Z" fill="#875B40"/>
<path d="M25.5302 48.7148C28.2103 45.3855 27.3032 41.1797 23.5064 39.3234C19.7083 37.4683 14.4595 38.6625 11.7794 41.9918C9.10283 45.3211 10.0075 49.5269 13.8032 51.3832C17.6024 53.2406 22.8524 52.0453 25.5302 48.7148" fill="#875B40"/>
<path d="M21.8939 32.8336C24.4591 29.9672 23.8392 26.1387 20.5075 24.2824C17.1771 22.425 12.3993 23.243 9.83294 26.1094C7.26653 28.9758 7.88763 32.8031 11.2181 34.6594C14.5486 36.5168 19.3286 35.6988 21.8939 32.8336Z" fill="#875B40"/>
<path d="M24.2575 22.6265C27.4427 24.4805 32.0728 23.775 34.597 21.0551C37.1224 18.334 36.5892 14.6273 33.4052 12.7746C30.2212 10.9207 25.5911 11.625 23.0669 14.3449C20.5404 17.066 21.0736 20.7726 24.2575 22.6265" fill="#875B40"/>
<path d="M51.1475 17.8957C53.9834 16.4461 54.2986 13.5985 51.8506 11.5324C49.4049 9.46642 45.117 8.96603 42.2799 10.4145C39.4416 11.8629 39.1275 14.7117 41.5756 16.7778C44.0236 18.8438 48.3115 19.3442 51.1475 17.8957Z" fill="#875B40"/>
<path d="M61.4938 38.9051C58.9579 38.1598 56.77 37.5152 56.1688 36.0234C55.8208 35.1586 55.9567 33.8883 56.5473 32.2488C62.8356 26.366 72.2434 16.8867 71.9786 13.0348C71.8731 11.4949 69.4192 9.28945 67.8102 9.28945L67.6837 9.29414C65.9423 9.41367 63.2809 11.7176 60.438 14.8371C60.1995 14.1216 59.893 13.4305 59.5227 12.7734C56.5403 7.63476 49.9837 4.6875 41.5356 4.6875C34.9673 4.6875 27.6536 6.49805 20.3891 9.92344C11.0645 14.3203 4.10007 23.4891 2.64694 33.2836C1.56647 40.5563 2.85788 51.5555 15.1368 62.6684C20.5813 67.5984 29.1548 70.3125 39.2739 70.3125H39.2774C47.4008 70.3125 55.6309 68.5043 61.8606 65.3555C68.8227 61.834 72.6559 56.9637 72.6559 51.6398C72.6559 42.1875 66.2036 40.2902 61.4938 38.9051ZM67.8102 11.0473C68.5497 11.0473 70.1856 12.5824 70.2243 13.1543C70.4481 16.4156 58.8301 27.975 51.0641 34.868L49.7399 33.716L48.8739 32.9602C54.6536 24.3375 64.5372 11.2699 67.8102 11.0473V11.0473ZM46.0145 36.3984L47.7981 34.3535L49.8266 36.123L48.0465 38.1668L46.0145 36.3984V36.3984ZM60.8036 63.2625C54.8903 66.2531 47.0458 67.9688 39.2774 67.9688H39.2751C29.736 67.9688 21.7227 65.4691 16.7094 60.9305C5.19694 50.5137 3.96764 40.3336 4.96257 33.627C6.30554 24.5871 12.7532 16.1156 21.3911 12.0434C28.3438 8.76445 35.3106 7.03125 41.5356 7.03125C49.0157 7.03125 54.9805 9.61758 57.4942 13.95C58.0356 14.8816 58.3989 15.8777 58.6098 16.9207C53.3622 23.1117 48.0325 31.0453 47.0141 32.5758L43.7598 36.307C42.0512 36.2895 40.3403 37.0359 39.813 38.8395C37.87 45.4664 33.5423 49.5762 33.5423 49.5762C33.5423 49.5762 44.5122 47.4082 46.611 44.9449C47.7477 43.6113 48.2985 42.0176 48.2856 40.5645L51.6934 36.6574C52.1481 36.2578 52.8243 35.6566 53.6575 34.9043C53.6528 35.6355 53.7536 36.3035 53.9926 36.8988C55.018 39.4441 57.8411 40.2738 60.8305 41.1527C65.4911 42.5238 70.311 43.9406 70.311 51.6398C70.3122 56.0344 66.9337 60.1617 60.8036 63.2625" fill="#875B40"/>
<path d="M63.4228 46.6488C59.9658 43.8797 54.3572 43.8797 50.9002 46.6488C47.4432 49.418 47.4443 53.9086 50.9002 56.6789C54.3561 59.4492 59.9646 59.448 63.4228 56.6789C66.881 53.9098 66.8799 49.418 63.4228 46.6488ZM61.7201 55.3137C59.2041 57.3305 55.1189 57.3305 52.6041 55.3137C50.0881 53.2969 50.0881 50.0285 52.6041 48.0129C55.1189 45.9961 59.2041 45.9961 61.7201 48.0129C64.2361 50.0297 64.2361 53.2969 61.7201 55.3137" fill="#875B40"/>
</svg>
