<svg width="75" height="75" viewBox="0 0 75 75" fill="none" xmlns="http://www.w3.org/2000/svg">
<path d="M70.2187 16.25C68.75 15.5 67.2187 14.875 65.625 14.3438V51.9375C62.0625 50.6563 58.4063 50 54.6875 50C48.75 50 42.875 51.6875 37.5 54.9375V17.125C32.4375 14.2188 26.5937 12.5 20.3125 12.5C14.7188 12.5 9.4375 13.875 4.78125 16.25C3.75 16.75 3.125 17.8437 3.125 19V56.75C3.125 58.5625 4.59375 59.8437 6.25 59.8437C6.75 59.8437 7.25 59.7188 7.75 59.4688C11.5313 57.5 15.7812 56.25 20.3125 56.25C26.7812 56.25 32.75 58.8125 37.5 62.5C42.25 58.8125 48.2188 56.25 54.6875 56.25C59.2188 56.25 63.4688 57.5 67.25 59.5C67.75 59.75 68.25 59.875 68.75 59.875C70.375 59.875 71.875 58.5938 71.875 56.7813V19C71.875 17.8437 71.25 16.75 70.2187 16.25ZM31.25 51.9375C27.6875 50.6563 24.0313 50 20.3125 50C16.5937 50 12.9375 50.6563 9.375 51.9375V20.9688C12.8438 19.5 16.5 18.75 20.3125 18.75C24.0625 18.75 27.7812 19.5312 31.25 21V51.9375ZM59.375 1.5625L43.75 17.1875V46.875L59.375 32.8125V1.5625Z" fill="#875B40"/>
</svg>
