<svg width="75" height="75" viewBox="0 0 75 75" fill="none" xmlns="http://www.w3.org/2000/svg">
<path d="M29.7434 68.75C28.2121 63.7562 25.9028 60.0344 22.8137 57.5828C18.1809 53.9063 10.82 56.1922 8.1012 52.3984C5.38245 48.6047 10.0059 41.6297 11.6278 37.5141C13.2512 33.3984 5.40901 31.9437 6.32464 30.775C6.93401 29.9953 10.8981 27.7484 18.2137 24.0313C20.2918 12.1766 27.9684 6.25 41.2465 6.25C61.1621 6.25 68.7496 23.1344 68.7496 33.875C68.7496 44.6141 59.5621 56.1828 46.4746 58.6781C45.3043 60.3813 46.9918 63.7406 51.5371 68.7516" stroke="#875B40" stroke-width="2.3335" stroke-linecap="round" stroke-linejoin="round"/>
<path d="M30.4684 22.6562C29.4465 26.6156 29.7497 29.3969 31.3794 30.9969C33.0075 32.5984 35.7825 33.6453 39.7044 34.1375C38.8137 39.2469 39.8997 41.6422 42.959 41.3265C46.0184 41.0109 47.8575 39.7406 48.4747 37.5141C53.2559 38.8578 55.8481 37.7328 56.2497 34.1391C56.8512 28.7484 53.945 24.45 52.7528 24.45C51.5622 24.45 48.4747 24.3047 48.4747 22.6562C48.4747 21.0078 44.8684 20.0781 41.6137 20.0781C38.359 20.0781 40.3169 17.8828 35.8481 18.75C32.8684 19.3281 31.0747 20.6297 30.4684 22.6562V22.6562Z" stroke="#875B40" stroke-width="2" stroke-linejoin="round"/>
<path d="M47.6558 39.8438C46.0667 40.8297 43.887 42.4688 42.9683 43.75C40.6729 46.9531 38.812 48.9016 38.4058 50.95" stroke="#875B40" stroke-width="2" stroke-linecap="round"/>
</svg>
