<svg width="75" height="75" viewBox="0 0 75 75" fill="none" xmlns="http://www.w3.org/2000/svg">
<path d="M49.1777 48.4512C55.9175 43.8721 60.9375 36.8174 60.9375 28.125C60.9375 21.909 58.4682 15.9476 54.0728 11.5522C49.6774 7.1568 43.716 4.6875 37.5 4.6875C31.284 4.6875 25.3226 7.1568 20.9272 11.5522C16.5318 15.9476 14.0625 21.909 14.0625 28.125V58.3843C14.0625 64.8677 19.2979 70.3125 25.7812 70.3125C32.2646 70.3125 35.5708 66.5127 37.103 64.4531C39.2666 61.5513 43.2129 52.5059 49.1777 48.4512Z" stroke="#875B40" stroke-width="2" stroke-linecap="round" stroke-linejoin="round"/>
<path d="M23.4375 44.5312V26.9531C23.4375 19.8633 29.7656 14.0625 37.5 14.0625C45.2344 14.0625 51.5625 19.8633 51.5625 26.9531" stroke="#875B40" stroke-width="2" stroke-linecap="round" stroke-linejoin="round"/>
<path d="M23.4375 35.0098C27.0996 32.373 35.1299 32.8125 35.1299 32.8125C38.9385 32.8125 41.1606 37.1221 38.9385 40.2246C38.9385 40.2246 33.5391 46.4355 32.8066 49.2188" stroke="#875B40" stroke-width="2" stroke-linecap="round" stroke-linejoin="round"/>
</svg>
