<svg width="75" height="75" viewBox="0 0 75 75" fill="none" xmlns="http://www.w3.org/2000/svg">
<path d="M21.0938 16.4062C13.3594 16.4062 7.03125 22.7344 7.03125 30.4688C7.03125 35.1187 9.32109 39.2578 12.818 41.8219C6.6375 44.8875 2.34375 51.2438 2.34375 58.5938H7.03125C7.03125 50.8031 13.3031 44.5312 21.0938 44.5312C28.8844 44.5312 35.1562 50.8031 35.1562 58.5938H39.8438C39.8438 50.8031 46.1156 44.5312 53.9062 44.5312C61.6969 44.5312 67.9688 50.8031 67.9688 58.5938H72.6562C72.6562 51.2414 68.3625 44.8875 62.182 41.8219C63.9715 40.5179 65.4281 38.8103 66.4336 36.8376C67.4391 34.8649 67.965 32.6829 67.9688 30.4688C67.9688 22.7344 61.6406 16.4062 53.9062 16.4062C46.1719 16.4062 39.8438 22.7344 39.8438 30.4688C39.8438 35.1187 42.1336 39.2578 45.6305 41.8219C42.2061 43.5055 39.3716 46.1864 37.5 49.5117C35.6284 46.1864 32.7939 43.5055 29.3695 41.8219C31.159 40.5179 32.6156 38.8103 33.6211 36.8376C34.6266 34.8649 35.1525 32.6829 35.1562 30.4688C35.1563 22.7344 28.8281 16.4062 21.0938 16.4062ZM21.0938 21.0938C26.3039 21.0938 30.4688 25.2586 30.4688 30.4688C30.4688 35.6789 26.3039 39.8438 21.0938 39.8438C15.8836 39.8438 11.7188 35.6789 11.7188 30.4688C11.7188 25.2586 15.8836 21.0938 21.0938 21.0938ZM53.9062 21.0938C59.1164 21.0938 63.2812 25.2586 63.2812 30.4688C63.2812 35.6789 59.1164 39.8438 53.9062 39.8438C48.6961 39.8438 44.5312 35.6789 44.5312 30.4688C44.5312 25.2586 48.6961 21.0938 53.9062 21.0938Z" fill="#875B40"/>
</svg>
