<svg width="75" height="75" viewBox="0 0 75 75" fill="none" xmlns="http://www.w3.org/2000/svg">
<path d="M24.6326 27.1219C24.6262 27.2733 24.6508 27.4243 24.7049 27.5659C24.7591 27.7074 24.8416 27.8363 24.9474 27.9448C25.0532 28.0532 25.1801 28.1389 25.3202 28.1965C25.4603 28.2541 25.6108 28.2824 25.7623 28.2797H29.6295C30.2763 28.2797 30.792 27.75 30.8763 27.1078C31.2982 24.0328 33.4076 21.7922 37.167 21.7922C40.3826 21.7922 43.3263 23.4 43.3263 27.2672C43.3263 30.2437 41.5732 31.6125 38.8029 33.6938C35.6482 35.9859 33.1498 38.6625 33.3279 43.0078L33.342 44.025C33.3469 44.3325 33.4725 44.6258 33.6918 44.8415C33.911 45.0573 34.2063 45.1782 34.5138 45.1781H38.3154C38.6262 45.1781 38.9243 45.0547 39.144 44.8349C39.3638 44.6151 39.4873 44.317 39.4873 44.0062V43.5141C39.4873 40.1484 40.767 39.1687 44.2216 36.5484C47.0763 34.3781 50.0529 31.9688 50.0529 26.9109C50.0529 19.8281 44.0716 16.4062 37.5232 16.4062C31.5842 16.4062 25.0779 19.1719 24.6326 27.1219V27.1219ZM31.931 54.1359C31.931 56.6344 33.9232 58.4812 36.6654 58.4812C39.5201 58.4812 41.4842 56.6344 41.4842 54.1359C41.4842 51.5484 39.5154 49.7297 36.6607 49.7297C33.9232 49.7297 31.931 51.5484 31.931 54.1359Z" fill="#875B40"/>
</svg>
