<svg width="75" height="75" viewBox="0 0 75 75" fill="none" xmlns="http://www.w3.org/2000/svg">
<path d="M52.6992 2.34375H22.3008C19.9395 2.34375 17.5781 4.6125 17.5793 6.88008L17.5781 68.1199C17.5781 70.3875 19.9395 72.6562 22.3008 72.6562H52.6992C55.0617 72.6562 57.4219 70.3875 57.4219 68.1199V6.88008C57.4219 4.6125 55.0605 2.34375 52.6992 2.34375ZM50.2266 6.18867C50.8371 6.18867 51.334 6.67969 51.334 7.28789C51.334 7.89375 50.8371 8.38711 50.2266 8.38711C49.616 8.38711 49.1215 7.89375 49.1215 7.28789C49.1218 7.14313 49.1506 6.99985 49.2063 6.86625C49.2621 6.73264 49.3436 6.61133 49.4462 6.50924C49.5488 6.40715 49.6706 6.32629 49.8045 6.27129C49.9384 6.21628 50.0818 6.18821 50.2266 6.18867V6.18867ZM34.5105 6.77695H40.4895C40.6734 6.77695 40.8199 7.0207 40.8199 7.32422C40.8199 7.62891 40.6734 7.87617 40.4895 7.87617H34.5105C34.3289 7.87617 34.1801 7.62891 34.1801 7.32422C34.1801 7.02188 34.3289 6.77695 34.5105 6.77695V6.77695ZM41.6508 68.5359C41.6505 68.6446 41.6287 68.7522 41.5868 68.8525C41.5448 68.9527 41.4835 69.0437 41.4063 69.1203C41.3291 69.1968 41.2376 69.2574 41.137 69.2985C41.0364 69.3395 40.9286 69.3604 40.8199 69.3598H34.1801C34.0714 69.3604 33.9636 69.3395 33.863 69.2985C33.7624 69.2574 33.6709 69.1968 33.5937 69.1203C33.5165 69.0437 33.4552 68.9527 33.4132 68.8525C33.3713 68.7522 33.3495 68.6446 33.3492 68.5359V66.8883C33.3492 66.4324 33.7207 66.0645 34.1801 66.0645H40.8199C41.2793 66.0645 41.6508 66.4324 41.6508 66.8883V68.5359ZM54.102 63.8672H20.898V11.1328H54.1008V63.8672H54.102Z" fill="#875B40"/>
<path d="M24.1323 19.3722H27.7944C27.9147 19.3726 28.0338 19.3491 28.145 19.3033C28.2561 19.2575 28.3572 19.1903 28.4423 19.1054C28.5274 19.0204 28.595 18.9196 28.641 18.8085C28.6871 18.6975 28.7108 18.5784 28.7108 18.4582V14.7961C28.7108 14.553 28.6143 14.3199 28.4424 14.1481C28.2706 13.9762 28.0375 13.8797 27.7944 13.8797H24.1323C24.0121 13.8797 23.893 13.9034 23.782 13.9495C23.6709 13.9956 23.5701 14.0631 23.4852 14.1482C23.4002 14.2333 23.333 14.3344 23.2872 14.4456C23.2414 14.5567 23.218 14.6758 23.2183 14.7961V18.4582C23.2183 18.9633 23.6272 19.3722 24.1323 19.3722Z" fill="#875B40"/>
<path d="M31.8223 19.3722H35.4844C35.6046 19.3726 35.7237 19.3491 35.8349 19.3033C35.9461 19.2575 36.0471 19.1903 36.1322 19.1054C36.2174 19.0204 36.2849 18.9196 36.331 18.8085C36.3771 18.6975 36.4008 18.5784 36.4008 18.4582V14.7961C36.4008 14.553 36.3042 14.3199 36.1324 14.1481C35.9605 13.9762 35.7274 13.8797 35.4844 13.8797H31.8223C31.702 13.8797 31.583 13.9034 31.4719 13.9495C31.3609 13.9956 31.26 14.0631 31.1751 14.1482C31.0902 14.2333 31.0229 14.3344 30.9771 14.4456C30.9313 14.5567 30.9079 14.6758 30.9082 14.7961V18.4582C30.9082 18.9633 31.3184 19.3722 31.8223 19.3722Z" fill="#875B40"/>
<path d="M39.5132 19.3722H43.1753C43.2955 19.3726 43.4146 19.3491 43.5258 19.3033C43.637 19.2575 43.738 19.1903 43.8232 19.1054C43.9083 19.0204 43.9758 18.9196 44.0219 18.8085C44.068 18.6975 44.0917 18.5784 44.0917 18.4582V14.7961C44.0917 14.553 43.9952 14.3199 43.8233 14.1481C43.6514 13.9762 43.4183 13.8797 43.1753 13.8797H39.5132C39.393 13.8797 39.2739 13.9034 39.1628 13.9495C39.0518 13.9956 38.9509 14.0631 38.866 14.1482C38.7811 14.2333 38.7138 14.3344 38.668 14.4456C38.6222 14.5567 38.5988 14.6758 38.5991 14.7961V18.4582C38.5991 18.9633 39.0081 19.3722 39.5132 19.3722Z" fill="#875B40"/>
<path d="M47.2031 19.3722H50.8652C50.9855 19.3726 51.1046 19.3491 51.2158 19.3033C51.3269 19.2575 51.428 19.1903 51.5131 19.1054C51.5982 19.0204 51.6658 18.9196 51.7118 18.8085C51.7579 18.6975 51.7816 18.5784 51.7816 18.4582V14.7961C51.7816 14.553 51.6851 14.3199 51.5132 14.1481C51.3414 13.9762 51.1083 13.8797 50.8652 13.8797H47.2031C47.0829 13.8797 46.9638 13.9034 46.8528 13.9495C46.7417 13.9956 46.6409 14.0631 46.556 14.1482C46.471 14.2333 46.4038 14.3344 46.358 14.4456C46.3122 14.5567 46.2888 14.6758 46.2891 14.7961V18.4582C46.2891 18.9633 46.6992 19.3722 47.2031 19.3722Z" fill="#875B40"/>
<path d="M24.1323 61.6699H27.7944C27.9147 61.6702 28.0338 61.6468 28.145 61.601C28.2561 61.5552 28.3572 61.4879 28.4423 61.403C28.5274 61.3181 28.595 61.2172 28.641 61.1062C28.6871 60.9951 28.7108 60.8761 28.7108 60.7559V57.0926C28.7108 56.9723 28.6871 56.8532 28.6411 56.7421C28.595 56.6309 28.5275 56.53 28.4424 56.445C28.3573 56.36 28.2562 56.2926 28.145 56.2467C28.0339 56.2007 27.9147 56.1772 27.7944 56.1773H24.1323C24.0122 56.1773 23.8932 56.201 23.7823 56.247C23.6713 56.293 23.5705 56.3605 23.4856 56.4455C23.4007 56.5305 23.3334 56.6314 23.2875 56.7424C23.2416 56.8535 23.2181 56.9724 23.2183 57.0926V60.7559C23.2183 61.2598 23.6272 61.6699 24.1323 61.6699Z" fill="#875B40"/>
<path d="M31.8223 61.6699H35.4844C35.6046 61.6702 35.7237 61.6468 35.8349 61.601C35.9461 61.5552 36.0471 61.4879 36.1322 61.403C36.2174 61.3181 36.2849 61.2172 36.331 61.1062C36.3771 60.9951 36.4008 60.8761 36.4008 60.7559V57.0926C36.4008 56.9723 36.3771 56.8532 36.331 56.7421C36.2849 56.6309 36.2174 56.53 36.1323 56.445C36.0472 56.36 35.9462 56.2926 35.835 56.2467C35.7238 56.2007 35.6047 56.1772 35.4844 56.1773H31.8223C31.7021 56.1773 31.5832 56.201 31.4722 56.247C31.3612 56.293 31.2604 56.3605 31.1755 56.4455C31.0906 56.5305 31.0233 56.6314 30.9774 56.7424C30.9316 56.8535 30.908 56.9724 30.9082 57.0926V60.7559C30.9082 61.2598 31.3184 61.6699 31.8223 61.6699Z" fill="#875B40"/>
<path d="M39.5132 61.6699H43.1753C43.2955 61.6702 43.4146 61.6468 43.5258 61.601C43.637 61.5552 43.738 61.4879 43.8231 61.403C43.9083 61.3181 43.9758 61.2172 44.0219 61.1062C44.068 60.9951 44.0917 60.8761 44.0917 60.7559V57.0926C44.0917 56.9723 44.068 56.8532 44.0219 56.7421C43.9759 56.6309 43.9083 56.53 43.8232 56.445C43.7381 56.36 43.6371 56.2926 43.5259 56.2467C43.4147 56.2007 43.2956 56.1772 43.1753 56.1773H39.5132C39.393 56.1773 39.2741 56.201 39.1631 56.247C39.0521 56.293 38.9513 56.3605 38.8664 56.4455C38.7815 56.5305 38.7142 56.6314 38.6684 56.7424C38.6225 56.8535 38.599 56.9724 38.5991 57.0926V60.7559C38.5991 61.2598 39.0081 61.6699 39.5132 61.6699Z" fill="#875B40"/>
<path d="M47.2031 61.6699H50.8652C50.9855 61.6702 51.1046 61.6468 51.2158 61.601C51.3269 61.5552 51.428 61.4879 51.5131 61.403C51.5982 61.3181 51.6658 61.2172 51.7118 61.1062C51.7579 60.9951 51.7816 60.8761 51.7816 60.7559V57.0926C51.7816 56.9723 51.7579 56.8532 51.7119 56.7421C51.6658 56.6309 51.5983 56.53 51.5132 56.445C51.428 56.36 51.327 56.2926 51.2158 56.2467C51.1047 56.2007 50.9855 56.1772 50.8652 56.1773H47.2031C47.083 56.1773 46.964 56.201 46.8531 56.247C46.7421 56.293 46.6413 56.3605 46.5564 56.4455C46.4715 56.5305 46.4042 56.6314 46.3583 56.7424C46.3124 56.8535 46.2889 56.9724 46.2891 57.0926V60.7559C46.2891 61.2598 46.6992 61.6699 47.2031 61.6699Z" fill="#875B40"/>
<path d="M24.1323 40.5211H27.7944C27.9147 40.5214 28.0338 40.498 28.145 40.4522C28.2561 40.4064 28.3572 40.3391 28.4423 40.2542C28.5274 40.1693 28.595 40.0684 28.641 39.9574C28.6871 39.8463 28.7108 39.7273 28.7108 39.6071V35.9438C28.7108 35.8235 28.6871 35.7044 28.6411 35.5933C28.595 35.4821 28.5275 35.3812 28.4424 35.2962C28.3573 35.2112 28.2562 35.1438 28.145 35.0979C28.0339 35.0519 27.9147 35.0284 27.7944 35.0285H24.1323C24.0122 35.0285 23.8932 35.0522 23.7823 35.0982C23.6713 35.1442 23.5705 35.2117 23.4856 35.2967C23.4007 35.3817 23.3334 35.4826 23.2875 35.5936C23.2416 35.7046 23.2181 35.8236 23.2183 35.9438V39.6071C23.2183 40.1121 23.6272 40.5211 24.1323 40.5211Z" fill="#875B40"/>
<path d="M31.8223 40.5211H35.4844C35.6046 40.5214 35.7237 40.498 35.8349 40.4522C35.9461 40.4064 36.0471 40.3391 36.1322 40.2542C36.2174 40.1693 36.2849 40.0684 36.331 39.9574C36.3771 39.8463 36.4008 39.7273 36.4008 39.6071V35.9438C36.4008 35.8235 36.3771 35.7044 36.331 35.5933C36.2849 35.4821 36.2174 35.3812 36.1323 35.2962C36.0472 35.2112 35.9462 35.1438 35.835 35.0979C35.7238 35.0519 35.6047 35.0284 35.4844 35.0285H31.8223C31.7021 35.0285 31.5832 35.0522 31.4722 35.0982C31.3612 35.1442 31.2604 35.2117 31.1755 35.2967C31.0906 35.3817 31.0233 35.4826 30.9774 35.5936C30.9316 35.7046 30.908 35.8236 30.9082 35.9438V39.6071C30.9082 40.1121 31.3184 40.5211 31.8223 40.5211Z" fill="#875B40"/>
<path d="M39.5132 40.5211H43.1753C43.2955 40.5214 43.4146 40.498 43.5258 40.4522C43.637 40.4064 43.738 40.3391 43.8231 40.2542C43.9083 40.1693 43.9758 40.0684 44.0219 39.9574C44.068 39.8463 44.0917 39.7273 44.0917 39.6071V35.9438C44.0917 35.8235 44.068 35.7044 44.0219 35.5933C43.9759 35.4821 43.9083 35.3812 43.8232 35.2962C43.7381 35.2112 43.6371 35.1438 43.5259 35.0979C43.4147 35.0519 43.2956 35.0284 43.1753 35.0285H39.5132C39.393 35.0285 39.2741 35.0522 39.1631 35.0982C39.0521 35.1442 38.9513 35.2117 38.8664 35.2967C38.7815 35.3817 38.7142 35.4826 38.6684 35.5936C38.6225 35.7046 38.599 35.8236 38.5991 35.9438V39.6071C38.5991 40.1121 39.0081 40.5211 39.5132 40.5211Z" fill="#875B40"/>
<path d="M24.1323 33.4723H27.7944C28.3019 33.4723 28.7108 33.0621 28.7108 32.557V28.8961C28.7108 28.653 28.6143 28.4199 28.4424 28.2481C28.2706 28.0762 28.0375 27.9797 27.7944 27.9797H24.1323C24.0121 27.9797 23.893 28.0034 23.782 28.0495C23.6709 28.0956 23.5701 28.1631 23.4852 28.2482C23.4002 28.3334 23.333 28.4344 23.2872 28.5456C23.2414 28.6567 23.218 28.7758 23.2183 28.8961V32.557C23.2181 32.6772 23.2416 32.7961 23.2875 32.9072C23.3334 33.0182 23.4007 33.1191 23.4856 33.2041C23.5705 33.2891 23.6713 33.3566 23.7823 33.4026C23.8932 33.4486 24.0122 33.4723 24.1323 33.4723" fill="#875B40"/>
<path d="M31.8223 33.4723H35.4844C35.9918 33.4723 36.4008 33.0621 36.4008 32.557V28.8961C36.4008 28.653 36.3042 28.4199 36.1324 28.2481C35.9605 28.0762 35.7274 27.9797 35.4844 27.9797H31.8223C31.702 27.9797 31.583 28.0034 31.4719 28.0495C31.3609 28.0956 31.26 28.1631 31.1751 28.2482C31.0902 28.3334 31.0229 28.4344 30.9771 28.5456C30.9313 28.6567 30.9079 28.7758 30.9082 28.8961V32.557C30.9082 33.0621 31.3184 33.4723 31.8223 33.4723Z" fill="#875B40"/>
<path d="M39.5132 33.4723H43.1753C43.6827 33.4723 44.0917 33.0621 44.0917 32.557V28.8961C44.0917 28.653 43.9952 28.4199 43.8233 28.2481C43.6514 28.0762 43.4183 27.9797 43.1753 27.9797H39.5132C39.393 27.9797 39.2739 28.0034 39.1628 28.0495C39.0518 28.0956 38.9509 28.1631 38.866 28.2482C38.7811 28.3334 38.7138 28.4344 38.668 28.5456C38.6222 28.6567 38.5988 28.7758 38.5991 28.8961V32.557C38.599 32.6772 38.6225 32.7961 38.6684 32.9072C38.7142 33.0182 38.7815 33.1191 38.8664 33.2041C38.9513 33.2891 39.0521 33.3566 39.1631 33.4026C39.2741 33.4486 39.3931 33.4723 39.5132 33.4723" fill="#875B40"/>
<path d="M47.2031 33.4723H50.8652C51.3727 33.4723 51.7816 33.0621 51.7816 32.557V28.8961C51.7816 28.653 51.6851 28.4199 51.5132 28.2481C51.3414 28.0762 51.1083 27.9797 50.8652 27.9797H47.2031C47.0829 27.9797 46.9638 28.0034 46.8528 28.0495C46.7417 28.0956 46.6409 28.1631 46.556 28.2482C46.471 28.3334 46.4038 28.4344 46.358 28.5456C46.3122 28.6567 46.2888 28.7758 46.2891 28.8961V32.557C46.2891 33.0621 46.6992 33.4723 47.2031 33.4723Z" fill="#875B40"/>
<path d="M24.1323 26.4234H27.7944C28.3019 26.4234 28.7108 26.0133 28.7108 25.507V21.8449C28.7108 21.341 28.3007 20.9308 27.7944 20.9308H24.1323C23.8899 20.9308 23.6574 21.0271 23.486 21.1986C23.3146 21.37 23.2183 21.6025 23.2183 21.8449V25.507C23.218 25.6273 23.2414 25.7464 23.2872 25.8575C23.333 25.9687 23.4002 26.0697 23.4852 26.1549C23.5701 26.24 23.6709 26.3075 23.782 26.3536C23.893 26.3997 24.0121 26.4234 24.1323 26.4234" fill="#875B40"/>
<path d="M31.8223 26.4234H35.4844C35.9918 26.4234 36.4008 26.0133 36.4008 25.507V21.8449C36.4008 21.341 35.9906 20.9308 35.4844 20.9308H31.8223C31.5798 20.9308 31.3473 21.0271 31.1759 21.1986C31.0045 21.37 30.9082 21.6025 30.9082 21.8449V25.507C30.9082 26.0133 31.3184 26.4234 31.8223 26.4234Z" fill="#875B40"/>
<path d="M39.5132 26.4234H43.1753C43.6827 26.4234 44.0917 26.0133 44.0917 25.507V21.8449C44.0917 21.341 43.6815 20.9308 43.1753 20.9308H39.5132C39.2708 20.9308 39.0383 21.0271 38.8668 21.1986C38.6954 21.37 38.5991 21.6025 38.5991 21.8449V25.507C38.5988 25.6273 38.6222 25.7464 38.668 25.8575C38.7138 25.9687 38.7811 26.0697 38.866 26.1549C38.9509 26.24 39.0518 26.3075 39.1628 26.3536C39.2739 26.3997 39.393 26.4234 39.5132 26.4234" fill="#875B40"/>
<path d="M47.2031 26.4234H50.8652C51.3727 26.4234 51.7816 26.0133 51.7816 25.507V21.8449C51.7816 21.341 51.3715 20.9308 50.8652 20.9308H47.2031C46.9607 20.9308 46.7282 21.0271 46.5568 21.1986C46.3854 21.37 46.2891 21.6025 46.2891 21.8449V25.507C46.2891 26.0133 46.6992 26.4234 47.2031 26.4234Z" fill="#875B40"/>
</svg>
