<svg width="75" height="75" viewBox="0 0 75 75" fill="none" xmlns="http://www.w3.org/2000/svg">
<path fill-rule="evenodd" clip-rule="evenodd" d="M53.125 6.25C44.4953 6.25 37.5 13.2453 37.5 21.875V35.9375C37.5 36.3519 37.6646 36.7493 37.9576 37.0424C38.2507 37.3354 38.6481 37.5 39.0625 37.5H53.125C61.7547 37.5 68.75 30.5047 68.75 21.875C68.75 13.2453 61.7547 6.25 53.125 6.25ZM40.625 21.875C40.625 19.4027 41.3581 16.986 42.7316 14.9304C44.1051 12.8748 46.0574 11.2726 48.3415 10.3265C50.6255 9.38041 53.1389 9.13287 55.5636 9.61518C57.9884 10.0975 60.2157 11.288 61.9638 13.0362C63.712 14.7843 64.9025 17.0116 65.3848 19.4364C65.8671 21.8611 65.6196 24.3745 64.6735 26.6585C63.7274 28.9426 62.1252 30.8949 60.0696 32.2684C58.014 33.6419 55.5973 34.375 53.125 34.375H40.625V21.875ZM10.9375 18.4031C10.9375 17.7375 11.4875 17.1875 12.1531 17.1875H21.875C22.5391 17.1875 23.0906 17.7375 23.0906 18.4031C23.0906 22.0375 23.6719 25.5313 24.7469 28.7969C24.8164 29.0134 24.8243 29.245 24.7697 29.4658C24.715 29.6866 24.6 29.8878 24.4375 30.0469L17.5234 36.9609L18.0391 37.9719C22.1891 46.1313 28.8734 52.7844 37.0234 56.9594L38.0359 57.4781L44.9516 50.5625C45.1083 50.4056 45.3055 50.2953 45.5212 50.2437C45.7369 50.1922 45.9627 50.2014 46.1734 50.2703L46.1891 50.275C49.5479 51.379 53.0613 51.9402 56.5969 51.9375C57.2625 51.9375 57.8125 52.4875 57.8125 53.1531V62.8469C57.8105 63.1686 57.6817 63.4767 57.4542 63.7042C57.2267 63.9317 56.9186 64.0605 56.5969 64.0625C31.3781 64.0625 10.9375 43.6234 10.9375 18.4031ZM12.1531 14.0625C11.0026 14.0646 9.8997 14.5225 9.08612 15.3361C8.27254 16.1497 7.81457 17.2526 7.8125 18.4031C7.8125 45.3484 29.6516 67.1875 56.5969 67.1875C57.7474 67.1854 58.8503 66.7275 59.6639 65.9139C60.4775 65.1003 60.9354 63.9974 60.9375 62.8469V53.1531C60.9354 52.0026 60.4775 50.8997 59.6639 50.0861C58.8503 49.2725 57.7474 48.8146 56.5969 48.8125C53.3975 48.8153 50.2181 48.3084 47.1781 47.3109C46.415 47.0546 45.5955 47.0163 44.8118 47.2005C44.0281 47.3846 43.3113 47.7838 42.7422 48.3531L37.4469 53.6484C30.6541 49.9316 25.0682 44.3467 21.35 37.5547L26.6469 32.2578C27.2148 31.6938 27.6161 30.984 27.8066 30.2066C27.9971 29.4292 27.9694 28.6143 27.7266 27.8516L27.7234 27.8406L27.7203 27.8297C26.7188 24.788 26.2108 21.6055 26.2156 18.4031C26.2136 17.2526 25.7556 16.1497 24.942 15.3361C24.1284 14.5225 23.0256 14.0646 21.875 14.0625H12.1531ZM45.3125 20.3125H51.5625V14.0625H54.6875V20.3125H60.9375V23.4375H54.6875V29.6875H51.5625V23.4375H45.3125V20.3125Z" fill="#875B40"/>
</svg>
