<svg width="75" height="75" viewBox="0 0 75 75" fill="none" xmlns="http://www.w3.org/2000/svg">
<path fill-rule="evenodd" clip-rule="evenodd" d="M43.75 25C43.75 28.4531 40.9531 31.25 37.5 31.25C34.0469 31.25 31.25 28.4531 31.25 25C31.25 21.5469 34.0469 18.75 37.5 18.75C40.9531 18.75 43.75 21.5469 43.75 25ZM40.625 25C40.625 25.8288 40.2958 26.6237 39.7097 27.2097C39.1237 27.7958 38.3288 28.125 37.5 28.125C36.6712 28.125 35.8763 27.7958 35.2903 27.2097C34.7042 26.6237 34.375 25.8288 34.375 25C34.375 24.1712 34.7042 23.3763 35.2903 22.7903C35.8763 22.2042 36.6712 21.875 37.5 21.875C38.3288 21.875 39.1237 22.2042 39.7097 22.7903C40.2958 23.3763 40.625 24.1712 40.625 25Z" fill="#875B40"/>
<path fill-rule="evenodd" clip-rule="evenodd" d="M28.125 27.3438C28.125 31.2281 24.9781 34.375 21.0938 34.375C20.1703 34.3752 19.2559 34.1935 18.4028 33.8402C17.5496 33.4869 16.7744 32.969 16.1214 32.3161C15.4685 31.6631 14.9506 30.8879 14.5973 30.0347C14.244 29.1816 14.0623 28.2672 14.0625 27.3438C14.0625 23.4594 17.2094 20.3125 21.0938 20.3125C24.9781 20.3125 28.125 23.4594 28.125 27.3438ZM25 27.3438C25 29.5031 23.2531 31.25 21.0938 31.25C20.5807 31.2502 20.0727 31.1493 19.5986 30.9531C19.1246 30.7568 18.6939 30.4691 18.3312 30.1063C17.9684 29.7436 17.6807 29.3129 17.4844 28.8388C17.2882 28.3648 17.1873 27.8568 17.1875 27.3438C17.1875 25.1844 18.9344 23.4375 21.0938 23.4375C23.2531 23.4375 25 25.1844 25 27.3438Z" fill="#875B40"/>
<path fill-rule="evenodd" clip-rule="evenodd" d="M6.25 46.0219C6.25 40.3563 16.6594 37.5 21.875 37.5C23.1266 37.5 24.6781 37.6641 26.3125 37.9937C28.3328 36.4219 32.3016 34.375 37.5 34.375C42.6984 34.375 46.6672 36.4219 48.6875 37.9937C50.3219 37.6641 51.8734 37.5 53.125 37.5C58.3391 37.5 68.75 40.3547 68.75 46.0219V56.25H6.25V46.0219ZM9.375 46.0219C9.375 45.6531 9.52188 45.1609 10.175 44.5016C10.8578 43.8141 11.9375 43.1203 13.3578 42.5C16.2187 41.25 19.6953 40.625 21.875 40.625C24.0547 40.625 27.5344 41.25 30.3906 42.5C31.8125 43.1203 32.8922 43.8156 33.575 44.5016C34.2281 45.1609 34.375 45.6531 34.375 46.0219V53.125H9.375V46.0219ZM44.6094 39.1328C42.3951 38.0534 39.9633 37.4949 37.5 37.5C34.5703 37.5 32.1375 38.2734 30.3906 39.1328C34.2031 40.5344 37.5 42.8328 37.5 46.0234C37.5 42.8328 40.7969 40.5344 44.6094 39.1328ZM41.425 44.5016C40.7719 45.1609 40.625 45.6531 40.625 46.0219V53.125H65.625V46.0219C65.625 45.6531 65.4781 45.1609 64.825 44.5016C64.1422 43.8141 63.0625 43.1203 61.6422 42.5C58.7813 41.25 55.3047 40.625 53.125 40.625C50.9453 40.625 47.4656 41.25 44.6094 42.5C43.1875 43.1203 42.1078 43.8156 41.425 44.5016V44.5016Z" fill="#875B40"/>
<path fill-rule="evenodd" clip-rule="evenodd" d="M53.9062 34.375C57.7906 34.375 60.9375 31.2281 60.9375 27.3438C60.9375 23.4594 57.7906 20.3125 53.9062 20.3125C52.9828 20.3123 52.0684 20.494 51.2153 20.8473C50.3621 21.2006 49.5869 21.7185 48.9339 22.3714C48.281 23.0244 47.7631 23.7996 47.4098 24.6528C47.0565 25.5059 46.8748 26.4203 46.875 27.3438C46.875 31.2281 50.0219 34.375 53.9062 34.375ZM53.9062 31.25C56.0656 31.25 57.8125 29.5031 57.8125 27.3438C57.8125 25.1844 56.0656 23.4375 53.9062 23.4375C53.3932 23.4373 52.8852 23.5382 52.4112 23.7344C51.9371 23.9307 51.5064 24.2184 51.1437 24.5812C50.7809 24.9439 50.4932 25.3746 50.2969 25.8487C50.1007 26.3227 49.9998 26.8307 50 27.3438C50 29.5031 51.7469 31.25 53.9062 31.25Z" fill="#875B40"/>
</svg>
