<svg width="75" height="75" viewBox="0 0 75 75" fill="none" xmlns="http://www.w3.org/2000/svg">
<path d="M37.5 7.03125C20.7 7.03125 7.03125 20.7 7.03125 37.5C7.03125 54.3 20.7 67.9688 37.5 67.9688C54.3 67.9688 67.9688 54.3 67.9688 37.5C67.9688 20.7 54.3 7.03125 37.5 7.03125ZM34.8633 11.8664C34.957 11.8547 35.0602 11.8734 35.1562 11.8664V14.0625H39.8438V11.8641C45.8406 12.4005 51.4584 15.0269 55.7158 19.2842C59.9731 23.5416 62.5995 29.1594 63.1359 35.1562H60.9375V39.8438H63.1359C62.5995 45.8406 59.9731 51.4584 55.7158 55.7158C51.4584 59.9731 45.8406 62.5995 39.8438 63.1359V60.9375H35.1562V63.1359C29.1594 62.5995 23.5416 59.9731 19.2842 55.7158C15.0269 51.4584 12.4005 45.8406 11.8641 39.8438H14.0625V35.1562H11.8641C12.9703 22.868 22.6148 13.1016 34.8633 11.8641V11.8664ZM51.7852 23.2172L31.8633 31.8609L23.2148 51.7828L43.1367 43.1391L51.7852 23.2172V23.2172ZM37.5 33.9844C39.375 33.9844 41.0156 35.625 41.0156 37.5C41.0156 39.375 39.375 41.0156 37.5 41.0156C35.625 41.0156 33.9844 39.375 33.9844 37.5C33.9844 35.625 35.625 33.9844 37.5 33.9844Z" fill="#875B40"/>
</svg>
