<svg width="75" height="75" viewBox="0 0 75 75" fill="none" xmlns="http://www.w3.org/2000/svg">
<path d="M25.3433 60.7813C21.8881 59.5086 18.8132 57.3781 16.4079 54.5901C14.0026 51.8021 12.3458 48.4482 11.5933 44.8438L6.40584 20.4375C5.65584 17.0625 7.81209 13.75 11.1871 13.0313L41.7183 6.5625L41.8121 6.53125C45.1558 5.875 48.4371 8.03126 49.1246 11.3438L50.2183 16.5625L63.8121 19.4688H63.9058C67.1871 20.2188 69.3121 23.5313 68.6246 26.8438L63.4371 51.2813C62.8383 54.0885 61.6924 56.7502 60.0648 59.1145C58.4372 61.4788 56.3597 63.4993 53.9511 65.0605C51.5425 66.6218 48.8499 67.6932 46.0271 68.2137C43.2043 68.7341 40.3066 68.6934 37.4996 68.0938C32.7376 67.0999 28.4527 64.5224 25.3433 60.7813V60.7813ZM62.4996 25.5625L31.9683 19.0625L26.7808 43.5V43.5938C24.9996 51.9688 30.4058 60.2188 38.8121 62C47.2183 63.7813 55.5308 58.4063 57.3121 50L62.4996 25.5625ZM49.9996 51.5625C49.0124 53.2338 47.5247 54.5525 45.747 55.332C43.9693 56.1115 41.9915 56.3124 40.0933 55.9063C38.2011 55.5013 36.4825 54.5158 35.1772 53.0873C33.872 51.6588 33.0451 49.8585 32.8121 47.9375L49.9996 51.5625ZM26.4683 16.1563L12.4996 19.1563L17.6871 43.5625L17.7183 43.6563C18.1871 45.875 19.1246 47.875 20.4058 49.5938C20.0933 47.1875 20.1558 44.6875 20.6871 42.1875L22.0308 35.9375C20.6246 35.6875 19.4058 34.9063 18.7496 33.7813C18.9371 31.875 20.4996 30.1875 22.6558 29.6875H23.4371L25.8746 17.7813C25.9996 17.1875 26.1871 16.6563 26.4683 16.1563V16.1563ZM46.9683 38.2188C47.9683 36.5625 50.0933 35.6875 52.2496 36.1563C54.4058 36.5938 55.9683 38.25 56.2496 40.1875C55.2183 41.8125 53.1246 42.6875 50.9371 42.1875C48.7808 41.7813 47.2183 40.125 46.9683 38.2188V38.2188ZM31.7183 34.9688C32.7183 33.3125 34.8121 32.4375 36.9683 32.9063C39.0621 33.3438 40.7183 35.0313 40.9683 36.9375C39.9371 38.5625 37.8433 39.4688 35.6871 39.0625C33.5308 38.5313 31.9683 36.875 31.7183 34.9688V34.9688ZM37.4058 13.8438L43.5308 15.1563L43.0308 12.6563L37.4058 13.8438Z" fill="#875B40"/>
</svg>
