<svg viewBox="81.97115384615392 0 687.5000000000001 1017.3625000000001" xmlns="http://www.w3.org/2000/svg" xmlns:xlink="http://www.w3.org/1999/xlink" overflow="visible" width="687.5000000000001px" height="1017.3625000000001px"><defs><path d="M642.944213,0 L642.944213,1053 L131.02602,1053 L131.02602,902.717955 L39.2422987,906.134272 C31.6560495,906.399443 25.2914211,900.458648 25.0265035,892.865133 L0.265466928,183.122784 C0.000549267379,175.52927 5.93566118,169.158547 13.5219104,168.893376 L25.7990012,0 L642.944213,0 Z" id="mastercompsphone-path-1"/></defs><g id="Master/Comps/Phone" stroke="none" stroke-width="1" fill="none" fill-rule="evenodd"><g id="Small Elements" opacity=".739" transform="translate(510.000000, 281.000000) scale(0.5481481481481482 0.5481481481481482)"><g id="Small Elements/Donut" stroke="none" stroke-width="1" fill="none" fill-rule="evenodd"><path d="M135,0 C209.558441,0 270,60.4415588 270,135 C270,209.558441 209.558441,270 135,270 C60.4415588,270 0,209.558441 0,135 C0,60.4415588 60.4415588,0 135,0 Z M135,64 C95.7877828,64 64,95.7877828 64,135 C64,174.212217 95.7877828,206 135,206 C174.212217,206 206,174.212217 206,135 C206,95.7877828 174.212217,64 135,64 Z" id="Combined-Shape" fill="#f1b99e"/></g></g><g id="Small Elements" transform="translate(58.000000, 759.000000) scale(0.9481481481481482 0.9481481481481482)"><g id="Small Elements/Grid" stroke="none" stroke-width="1" fill="none" fill-rule="evenodd"><path d="M61.638852,-1.5 L102.361148,-1.5 C111.276335,-1.5 114.509198,-0.571743889 117.768457,1.17132704 C121.027716,2.91439796 123.585602,5.47228371 125.328673,8.73154296 C127.071744,11.9908022 128,15.2236646 128,24.138852 L128,98.861148 C128,107.776335 127.071744,111.009198 125.328673,114.268457 C123.585602,117.527716 121.027716,120.085602 117.768457,121.828673 C114.509198,123.571744 111.276335,124.5 102.361148,124.5 L61.638852,124.5 C52.7236646,124.5 49.4908022,123.571744 46.231543,121.828673 C42.9722837,120.085602 40.414398,117.527716 38.671327,114.268457 C36.9282561,111.009198 36,107.776335 36,98.861148 L36,24.138852 C36,15.2236646 36.9282561,11.9908022 38.671327,8.73154296 C40.414398,5.47228371 42.9722837,2.91439796 46.231543,1.17132704 C49.4908022,-0.571743889 52.7236646,-1.5 61.638852,-1.5 Z" id="Rectangle-2-Copy-7" fill="#f4f0cb" opacity=".906"/><path d="M61.638852,144.5 L102.361148,144.5 C111.276335,144.5 114.509198,145.428256 117.768457,147.171327 C121.027716,148.914398 123.585602,151.472284 125.328673,154.731543 C127.071744,157.990802 128,161.223665 128,170.138852 L128,244.861148 C128,253.776335 127.071744,257.009198 125.328673,260.268457 C123.585602,263.527716 121.027716,266.085602 117.768457,267.828673 C114.509198,269.571744 111.276335,270.5 102.361148,270.5 L61.638852,270.5 C52.7236646,270.5 49.4908022,269.571744 46.231543,267.828673 C42.9722837,266.085602 40.414398,263.527716 38.671327,260.268457 C36.9282561,257.009198 36,253.776335 36,244.861148 L36,170.138852 C36,161.223665 36.9282561,157.990802 38.671327,154.731543 C40.414398,151.472284 42.9722837,148.914398 46.231543,147.171327 C49.4908022,145.428256 52.7236646,144.5 61.638852,144.5 Z" id="Rectangle-2-Copy-10" fill="#f4f0cb" opacity=".866"/><path d="M167.638852,105.5 L208.361148,105.5 C217.276335,105.5 220.509198,106.428256 223.768457,108.171327 C227.027716,109.914398 229.585602,112.472284 231.328673,115.731543 C233.071744,118.990802 234,122.223665 234,131.138852 L234,177.861148 C234,186.776335 233.071744,190.009198 231.328673,193.268457 C229.585602,196.527716 227.027716,199.085602 223.768457,200.828673 C220.509198,202.571744 217.276335,203.5 208.361148,203.5 L167.638852,203.5 C158.723665,203.5 155.490802,202.571744 152.231543,200.828673 C148.972284,199.085602 146.414398,196.527716 144.671327,193.268457 C142.928256,190.009198 142,186.776335 142,177.861148 L142,131.138852 C142,122.223665 142.928256,118.990802 144.671327,115.731543 C146.414398,112.472284 148.972284,109.914398 152.231543,108.171327 C155.490802,106.428256 158.723665,105.5 167.638852,105.5 Z" id="Rectangle-2-Copy-11" fill="#f2efca"/></g></g><path d="M623.765826,605.166321 C638.695353,600.281758 650.273803,592.740736 660.608276,583.080394 C662.404744,581.401153 662.614639,579.966695 661.899664,577.800335 C657.633267,564.877318 651.238559,553.185882 642.000253,543.145002 C632.541894,532.862812 621.251119,525.448433 607.547407,522.20566 C593.848768,518.961238 581.067134,521.15042 569.670133,529.690145 C551.959328,542.960564 547.081271,566.690447 558.227,585.355562 C564.062505,595.127404 572.800653,601.345638 583.424966,604.95213 C597.342341,609.6769 611.288835,609.134775 623.765826,605.166321 Z M716.412404,495.266205 C714.466836,499.506282 712.606032,503.787421 710.562686,507.980865 C703.937201,521.56641 697.477412,535.239521 690.507078,548.647303 C684.396866,560.400768 676.705684,571.146068 667.496669,580.724085 C666.267355,582.003353 666.385921,583.14441 666.704659,584.564279 L666.749256,584.759665 C670.387763,600.466224 670.53222,616.160029 666.52093,631.843271 C661.52229,651.379644 650.892147,667.329017 635.680799,680.367962 C622.303138,691.835273 607.074064,699.940608 590.164502,704.748834 C558.102171,713.867272 525.912268,714.365063 493.761824,705.277903 C475.854412,700.217999 459.009177,692.530895 442.704897,683.616587 C427.153924,675.111338 412.677445,665.008121 398.679016,654.190958 C397.758716,653.479146 396.890966,652.670458 396.145111,651.784362 C395.920543,651.519917 396.061512,650.768489 396.280164,650.376834 C396.4151,650.136984 397.102916,649.969501 397.391692,650.099679 C398.155618,650.442285 398.872626,650.916339 399.54517,651.421642 C413.66535,662.070441 428.112404,672.22102 443.656155,680.734216 C461.270986,690.38474 479.52277,698.482859 498.985643,703.649184 C514.958535,707.888601 531.245138,709.119587 547.711384,708.511343 C558.58566,708.109984 569.349339,706.807929 579.943785,704.342818 C605.844876,698.316926 628.395495,686.358426 645.638618,665.750079 C661.252813,647.089252 667.774603,625.284116 666.179226,601.077634 C665.86492,596.317391 664.901227,591.601541 664.20765,586.867927 C664.133122,586.371325 663.850732,585.90306 663.513338,585.028452 L661.699952,586.560009 C661.47823,586.749021 661.262561,586.935147 661.050581,587.122218 L660.73508,587.404013 C649.744311,597.329949 637.332936,604.780167 622.959069,608.634291 C605.975226,613.188043 589.329356,612.450403 573.665146,603.937145 C558.342776,595.609626 549.772485,582.499536 549.461811,564.975273 C549.148195,547.230759 557.271374,533.595399 572.512173,524.621025 C585.730138,516.838728 599.833405,516.522245 614.114475,521.519976 C630.172809,527.13868 642.476992,537.603307 652.054913,551.461236 C656.852941,558.403516 660.691595,565.836147 663.444666,573.811336 L663.769816,574.770967 C664.099148,575.762998 664.504072,576.729068 665.078325,578.24214 C666.378233,576.962945 667.470735,576.03675 668.39296,574.961474 C674.993462,567.26425 680.763672,558.981375 685.870391,550.221057 C693.33985,537.414125 699.441877,523.92866 705.738604,510.538139 L712.826575,495.52268 C713.307396,494.502622 713.726946,493.45347 714.458889,491.762398 C710.44342,492.791293 707.220941,493.997946 703.997315,495.244172 C701.599985,496.170117 699.165901,497.006889 696.720051,497.801464 L694.648933,498.466839 C693.6843,498.761526 692.588926,498.956183 692.158566,497.78037 C691.627905,496.330036 693.045582,495.958556 694.118168,495.578319 L694.235808,495.535979 C700.534199,493.231899 706.835058,490.935417 713.140443,488.652865 C713.939966,488.363683 714.76437,488.125219 715.597502,487.956722 L715.981218,487.884416 C717.754118,487.580788 718.366181,487.961871 718.86829,489.894281 C719.9111,493.905402 720.821792,497.95385 721.722383,502.001379 C722.460408,505.315836 723.16412,508.637709 723.87514,511.958451 L724.952357,516.937647 C725.199779,518.065497 725.330197,519.182361 723.95241,519.523628 C722.56431,519.868299 722.170072,518.780724 721.939679,517.760294 L721.912765,517.638261 C720.904987,512.959135 719.938124,508.272316 718.970848,503.584231 C718.399514,500.812967 717.856427,498.038125 717.299438,495.2636 L716.412404,495.266205 L716.412404,495.266205 Z" id="arrow" fill="#aba98f"/><g id="Phone" transform="translate(153.256932, 151.000000)"><path d="M24.0378358,18.3137908 L349.500243,6.93237522 C362.909824,6.46105422 374.18224,16.8419689 374.865952,30.1924464 L374.88342,30.5979071 C374.883448,30.5987103 374.883476,30.5995134 374.881095,30.6004006 L400.056668,752.550537 C400.526568,766.094842 389.930408,777.457833 376.386317,777.933883 L50.9239098,789.315298 C37.5143289,789.786619 26.241913,779.405704 25.5582017,766.055227 L25.540733,765.649766 C25.5407049,765.648963 25.5406768,765.64816 25.5430582,765.647273 L0.367485065,43.697136 C-0.102414332,30.1528309 10.4937455,18.7898399 24.0378358,18.3137908 Z" id="base" fill="#a9826f"/><path d="M33.2868154,11.5876761 L358.749223,0.206260571 C372.158804,-0.265060427 383.43122,10.1158543 384.114931,23.4663317 L384.1324,23.8717925 C384.132428,23.8725956 384.132456,23.8733988 384.130075,23.874286 L409.305648,745.824423 C409.775547,759.368728 399.179387,770.731719 385.635297,771.207768 L60.1728894,782.589183 C46.7633084,783.060504 35.4908926,772.67959 34.8071813,759.329112 L34.7897126,758.923652 C34.7896845,758.922848 34.7896564,758.922045 34.7920378,758.921158 L9.61646466,36.9710213 C9.14656526,23.4267163 19.7427251,12.0637253 33.2868154,11.5876761 Z" id="base" fill="#241c18"/><path d="M105.922433,44.4963838 C106.069881,48.7227923 109.552741,52.0454665 113.750399,52.0182944 L113.975942,52.0136203 L281.6821,46.1515638 C285.904451,46.0039743 289.223935,42.5177666 289.196789,38.3160747 L289.192119,38.0903146 L288.534964,19.2537599 L352.767903,17.0085405 C360.352167,16.7434376 366.71513,22.6826989 366.979978,30.2742519 L391.734535,739.833293 C391.999384,747.424846 386.065825,753.793924 378.481561,754.059027 L65.718232,764.99146 C58.133968,765.256562 51.7710052,759.317301 51.5061569,751.725748 L26.7515999,42.1667072 C26.4867516,34.5751542 32.4203103,28.2060762 40.0045744,27.9409733 L105.265277,25.6598291 L105.922433,44.4963838 Z" id="Path" fill="#392b25"/></g><g id="Character" transform="translate(180.000000, 10.000000)"><mask id="mastercompsphone-mask-2" fill="#ffffff"><use xlink:href="#mastercompsphone-path-1" fill="#ffffff"/></mask><g id="Mask"/><g mask="url(#mastercompsphone-mask-2)"><g transform="translate(-304.000000, 66.000000) scale(1.081858407079646 1.081490104772992)" id="Master/Character/Standing"><g id="Master/Character/Standing" stroke="none" stroke-width="1" fill="none" fill-rule="evenodd"><g id="Legs" transform="translate(50.000000, 263.000000) scale(1 1)"><g id="Legs/Pants Leg Back" stroke="none" stroke-width="1" fill="none" fill-rule="evenodd"><g id="Right-Leg" transform="translate(179.999200, 0.493900)"><path d="M13.9038,395.1605 L1.2658,329.8845 C0.9008,328.3355 0.6658,326.7345 0.8538,325.2865 C1.5028,321.4465 7.7188,322.1605 11.1908,320.3325 C34.6588,312.6805 57.7488,303.5475 80.8848,294.2645 C127.3888,275.2805 173.7818,255.3815 218.5188,232.6845 C221.2448,230.8845 221.5908,231.8065 226.1268,234.5035 C234.6938,238.2655 264.3858,267.0275 272.4148,273.0165 C276.0698,276.1505 278.0118,280.3305 277.0168,284.9785 C276.2618,291.4195 267.3528,297.2035 260.8798,300.1765 C250.3428,305.7385 239.4918,311.1135 228.7958,316.2235 C176.1328,341.1615 122.7838,363.8285 68.2848,384.4475 C57.4638,388.4785 46.4858,392.4385 35.3568,396.0095 C29.0758,397.4715 17.3558,404.2275 13.9038,395.1605" id="SKIN-DARKER" fill="#e3ae94"/><path d="M265.4839,1.0565 L174.9749,24.0355 C172.0499,24.7235 170.4789,28.4415 171.4519,32.3195 C185.3239,88.9225 198.9899,146.0005 210.3559,203.0385 C210.9529,206.3355 212.6999,215.1105 213.2439,218.3175 C213.1579,218.7015 214.2919,221.8725 213.3989,221.8685 C156.6269,250.0095 96.8719,275.2245 37.6199,297.6305 L75.2719,398.0785 C131.7079,376.4375 186.4469,352.9995 240.8449,326.7345 C267.1259,312.4875 303.8069,299.3175 318.3819,271.7825 C318.1889,271.6405 318.7129,271.8425 318.6769,271.7755 C328.8529,244.2505 318.4149,210.6925 313.7179,182.4375 C301.6839,123.9805 285.4758,57.6081 271.0008,0.0061" id="Fill-3" fill="#14100d"/><path d="M32.4565,396.9261 L8.8985,321.0591 C17.0035,318.5281 25.5995,315.4931 33.8105,312.4941 L61.0835,387.1071 C51.7685,390.5021 42.4235,393.8091 32.4565,396.9261" id="Fill-6" fill="#ffffff"/><path d="M34.375,350.218 C19.202,356.027 10.211,323.529 23.874,320.098 C23.078,317.817 22.62,316.5 22.62,316.5 C14.881,319.152 7.354,321.776 0,323.539 C0.009,323.536 0.051,323.521 0.059,323.52 C1.69,332.659 4.947,428.793 5.234,438.464 C13.275,438.446 21.333,437.085 29.116,435.125 C31.829,434.367 35.219,434.046 36.983,431.584 C44.11,421.081 38.935,399.246 48.771,391.513 C47.6873886,388.404888 36.8065784,357.193676 34.375,350.218 Z" id="Fill-8" fill="#241c18"/></g><path d="M243,0 C243,55.228475 289.562386,100 347,100 C404.437614,100 451,55.228475 451,0" id="Waist" fill="#241c18"/><g id="Left-Leg" transform="translate(241.149190, -0.007983)"><path d="M178.51651,590.531331 C175.64851,589.552184 105.07451,596.238332 105.99251,590.97064 C104.89751,589.27573 105.24351,586.27194 104.92251,584.350841 C104.55451,581.021338 103.96551,575.605869 103.53651,572.301499 C97.3595095,525.23407 88.9285095,478.699443 80.7165095,431.596829 L62.5165095,330.282229 C60.7285095,320.388218 67.1275095,310.936531 76.8095095,309.168235 L119.91251,301.302888 C129.59351,299.535598 138.89051,306.119207 140.67751,316.009198 L158.92751,417.600251 C165.78751,456.47863 172.66451,495.864678 178.59951,535.169299 C180.80051,550.792428 183.21651,566.503017 184.50451,582.701168 C184.88751,586.303103 182.26251,590.398633 178.51651,590.531331" id="SKIN" fill="#fcdaca"/><path d="M1.85080952,0.016098182 C0.738866484,5.49889779 0.476943295,9.9722216 1.06503995,13.4360696 C2.19177968,31.9286569 4.5374834,50.8361389 6.97741623,69.1510585 C29.2365406,226.400134 63.6542291,391.126396 87.5082315,548.016098 L193.85081,531.940196 C167.94983,364.621599 128.726456,191.477318 106.903392,23.8720305 C106.470339,19.8805632 105.820759,13.3290652 105.575162,9.35475889 C105.49597,5.11193207 105.118051,0.230107054 99.6828347,0.016098182 C37.1393293,0.222031247 4.52865418,0.222031247 1.85080952,0.016098182 Z" id="Fill-15" fill="#241c18"/><path d="M183.89051,575.946372 L104.85651,584.016098 C103.89251,574.988896 102.54551,564.511916 101.20251,555.359127 L179.83651,544.016098 C181.35251,554.396627 182.77651,565.473411 183.89051,575.946372" id="Fill-17" fill="#ffffff"/><path d="M181.61711,557.016098 C176.17611,557.730096 156.55511,560.304271 138.26011,562.704179 C140.61411,578.236862 108.58611,582.049828 106.63511,566.85373 C104.23911,567.167411 102.85711,567.348648 102.85711,567.348648 C104.09011,576.688374 105.36411,586.623595 105.74111,596.016098 L221.04211,596.016098 C220.91111,590.572987 220.73511,584.908806 220.21011,579.474657 C216.71911,566.42553 187.98311,569.98556 181.61711,557.016098" id="Fill-19" fill="#241c18"/><path d="M53.8603661,1.01609818 L51.8508095,1.02315663 C52.061813,13.1848573 53.3248193,25.9495509 54.744571,38.0215085 C76.6316562,203.370624 114.544955,375.149982 139.863358,540.016098 L141.85081,539.716618 C116.529392,374.829327 78.6341793,203.141728 56.7390558,37.7885798 C55.3313615,25.7972901 54.0713695,13.0971309 53.8603661,1.01609818" id="Fill-21" fill="#ffffff"/></g></g></g><g id="Body" transform="translate(17.000000, -31.000000) scale(1 1)"><g id="Body/Bomber Jacket Wave" stroke="none" stroke-width="1" fill="none" fill-rule="evenodd"><g id="Group-43" transform="translate(28.000000, -40.000000)"><g id="Group" transform="translate(388.290761, 188.739200)"><path d="M335.476139,131.1262 C350.494139,129.9812 358.966139,136.5402 363.328139,142.1492 C365.509139,144.9402 364.830139,148.4802 362.633139,150.9912 C360.440139,153.4992 356.740139,154.9402 353.034139,153.5142 C349.322139,152.0702 345.758139,149.1922 340.798139,147.0872 C335.843139,144.9902 329.559139,143.7582 320.362139,145.3782 C315.772139,146.2092 313.486139,145.7002 312.902139,144.5872 C312.310139,143.4552 313.414139,141.7122 315.510139,139.8012 C319.736139,136.0212 327.953139,131.6752 335.476139,131.1262" id="SKIN-DARKER" fill="#e3ae94"/><path d="M309.483939,150.4426 C305.727939,142.1326 299.014939,136.0976 291.454939,132.8686 C283.852939,129.5806 275.413939,129.1316 267.532939,131.9916 L264.612939,133.0796 L261.684939,134.0926 C259.733939,134.7616 257.784939,135.4656 255.832939,136.1096 C251.923939,137.3436 248.019939,138.6576 244.114939,139.7356 C234.567939,142.4936 225.016939,144.8416 215.617939,146.4276 C206.224939,148.0106 196.973939,148.9346 188.127939,149.0036 C179.284939,149.0756 170.859939,148.2736 163.245939,146.4806 C161.400939,145.9426 159.541939,145.4486 157.685939,144.9596 L155.022939,144.0486 L152.386939,143.0256 C148.889939,141.5886 145.456939,139.8596 142.087939,137.8406 C128.604939,129.8056 116.225939,116.9356 105.727939,101.5326 C95.2009387,86.1166 86.4589387,68.3216 79.3089387,49.6706 C76.0109387,41.0736 69.9039387,34.3116 62.3619387,30.0626 C54.8329387,25.8476 45.8419387,24.1386 37.0449387,26.5326 C28.2569387,28.9216 21.3759387,35.1756 17.7279387,43.6956 C14.0729387,52.1776 13.6959387,62.9036 17.6749387,73.2776 C26.2999387,95.6956 36.9409387,117.7746 51.2329387,138.7646 C58.3949387,149.2366 66.5059387,159.4166 75.9079387,168.9116 C85.2989387,178.3896 96.0309387,187.1906 108.193939,194.4726 C114.266939,198.1116 120.685939,201.3586 127.372939,204.1006 L132.432939,206.0626 L137.581939,207.8226 C141.024939,208.8196 144.479939,209.7576 147.940939,210.6806 C161.768939,213.9446 175.424939,215.0936 188.576939,215.0026 C201.743939,214.8976 214.456939,213.5566 226.766939,211.4796 C239.078939,209.3906 250.939939,206.4636 262.535939,203.1126 C267.302939,201.7836 271.936939,200.2416 276.607939,198.7556 C278.928939,197.9896 281.213939,197.1696 283.518939,196.3776 L286.967939,195.1776 L290.375939,193.9126 C299.626939,190.5476 306.397939,183.6866 309.806939,175.7766 C313.204939,167.7966 313.233939,158.7396 309.483939,150.4426" id="Fill-3" fill="#e3ae94"/><path d="M287.348239,195.0383 C281.686239,197.0223 276.744239,185.1023 273.013239,170.8563 C271.138239,163.7353 269.531239,156.0413 268.278239,149.2063 C267.029239,142.3713 266.137239,136.3993 265.802239,132.6373 L271.229239,130.6143 C279.296239,127.5083 286.764239,124.9423 293.666239,122.7203 C300.581239,120.5523 306.941239,118.7963 312.820239,117.4793 C324.562239,114.8073 334.351239,113.7913 342.403239,113.7543 C358.484239,113.6453 367.654239,117.5243 370.425239,118.1843 C373.160239,118.8273 375.230239,121.3503 375.708239,124.1633 C376.230239,126.9423 375.282239,129.8933 372.372239,131.0713 C369.607239,132.2123 356.199239,134.0773 343.556239,137.6383 C330.900239,141.2833 318.891239,146.7173 318.218239,157.4323 C317.823239,163.9133 320.298239,167.4303 324.012239,169.3073 C327.730239,171.2083 332.610239,171.3923 336.846239,171.3953 C341.885239,171.3753 345.023239,174.9313 345.800239,178.8353 C346.583239,182.7353 344.945239,186.9773 340.532239,188.0943 C336.845239,189.0653 332.437239,189.6683 327.789239,190.1903 C323.091239,190.6433 318.168239,191.0303 313.245239,191.3293 C303.466239,192.0403 293.909239,192.6193 287.348239,195.0383" id="SKIN-DARKER" fill="#e3ae94"/><path d="M269.716839,124.7722 C261.106839,128.0832 252.465839,130.9872 243.858839,133.5612 C243.208839,133.2612 242.538839,132.9832 241.609839,132.8002 C240.690839,132.6122 239.659839,132.4762 238.524839,132.3872 C236.253839,132.2102 233.580839,132.0742 230.542839,132.1782 C229.039839,132.2192 227.439839,132.2632 225.747839,132.3092 C224.069839,132.3642 222.309839,132.4602 220.475839,132.5882 C216.860839,132.6452 212.889839,133.0222 208.823839,133.0802 C200.642839,133.3932 191.687839,133.5122 183.133839,132.7282 C178.889839,132.2982 174.673839,131.7742 170.825839,130.8922 C169.868839,130.6662 168.902839,130.4582 167.927839,130.2662 C167.417839,130.1962 167.014839,130.0042 166.561839,129.8732 L165.225839,129.4602 C164.345839,129.1782 163.393839,128.9882 162.543839,128.6842 C161.704839,128.3572 160.840839,128.1142 159.999839,127.7382 C156.604839,126.3912 153.155839,124.7452 149.648839,122.5822 C146.139839,120.4492 142.551839,117.9092 138.971839,114.8802 C135.383839,111.8842 131.793839,108.4602 128.295839,104.6772 C124.788839,100.9172 121.362839,96.8292 118.087839,92.5242 C111.507839,83.9482 105.521839,74.5812 100.210839,65.4812 C94.8988387,56.3652 89.5932594,46.4320397 84.9158387,38.6076823 C80.2384181,30.7833248 73.8929146,19.604165 60.1410854,10.1052942 C46.3892562,0.606423435 36.2389387,4.26325641e-14 36.2389387,4.26325641e-14 C24.2979387,2.25 9.76983872,17.6282 4.48183872,29.0232 C-0.824161279,40.3852 -1.72016128,55.0342 3.42383872,69.3532 C7.04683872,83.7192 12.0808387,98.6722 18.8128387,113.7752 C25.5778387,128.8632 34.0658387,144.1282 44.8898387,158.7722 C55.7058387,173.3782 68.9568387,187.4292 84.9158387,199.0872 C92.8928387,204.8892 101.449839,210.1172 110.502839,214.3642 C112.776839,215.4092 115.019839,216.4682 117.343839,217.3882 C118.497839,217.8552 119.647839,218.3212 120.796839,218.7862 C121.964839,219.2112 123.131839,219.6362 124.294839,220.0582 C128.946839,221.7432 133.694839,223.1292 138.297839,224.1882 C140.609839,224.7472 142.910839,225.2842 145.194839,225.7972 C147.448839,226.1862 149.682839,226.5352 151.903839,226.8772 C154.115839,227.1922 156.346839,227.5872 158.493839,227.7862 C160.633839,227.9562 162.757839,228.1262 164.862839,228.2922 C165.914839,228.3662 166.962839,228.4402 168.005839,228.5132 C169.051839,228.5932 170.084839,228.6502 171.084839,228.6442 C173.098839,228.6572 175.094839,228.6712 177.073839,228.6842 C178.060839,228.6842 179.043839,228.6812 180.020839,228.6812 C181.001839,228.6842 181.971839,228.6752 182.905839,228.6062 C184.787839,228.4942 186.650839,228.3832 188.495839,228.2722 C190.331839,228.1452 192.164839,228.0482 193.936839,227.8782 C195.683839,227.6672 197.411839,227.4572 199.118839,227.2502 C200.819839,227.0292 202.499839,226.8112 204.157839,226.5972 C205.816839,226.3802 207.378839,226.0462 208.955839,225.7742 C210.518839,225.4812 212.061839,225.1922 213.583839,224.9082 C215.101839,224.6192 216.601839,224.3402 218.020839,223.9782 C220.886839,223.2952 223.651839,222.6132 226.308839,221.9362 C236.803839,219.0302 245.385839,215.9192 251.891839,212.9792 C255.134839,211.4932 257.954839,210.1862 260.174839,208.8702 C261.290839,208.2232 262.283839,207.6102 263.146839,207.0342 C264.011839,206.4572 264.590839,205.9632 265.142839,205.4772 C275.825839,202.2892 286.285839,198.7502 296.488839,194.8322 L269.716839,124.7722 Z" id="Fill-7" fill="#836456"/><path d="M244.142139,133.4807 L265.922139,206.8147 C276.521139,203.6367 286.902139,200.1217 297.025139,196.2347 L269.717139,124.7747 C261.201139,128.0467 252.656139,130.9227 244.142139,133.4807" id="Fill-10" fill="#755a4d"/></g><path d="M460.7796,337.8517 L246.2986,337.8517 L246.2986,230.7897 C246.2986,207.3217 265.3236,188.2957 288.7926,188.2957 L418.2856,188.2957 C441.7546,188.2957 460.7796,207.3217 460.7796,230.7897 L460.7796,337.8517 Z" id="Fill-12" fill="#e0dcba"/><path d="M392.2982,188.296 C392.2982,204.852 384.2982,225.852 357.7982,225.852 C326.2982,225.852 313.2982,207.933 313.2982,188.296 L392.2982,188.296 Z" id="SKIN" fill="#fcdaca"/><path d="M399.433,400.2619 C425.298,400.8519 447.298,398.8519 470.744,391.0079 C472.908,390.2829 474.748,388.9049 474.549,386.6299 L471.393,350.5429 C447.312,351.5899 422.164,356.2669 395.695,360.4159 C395.197,373.3359 394.689,385.2619 394.222,395.6089 C394.094,398.4589 396.58,400.1969 399.433,400.2619" id="Fill-16" fill="#836456"/><path d="M233.8499,351.6945 L230.9879,384.4175 C230.6509,388.2635 232.9809,391.8695 236.6489,393.0745 C261.2359,401.1525 296.4499,405.2985 319.5659,406.9185 C323.2269,407.1745 326.4479,404.5725 326.9999,400.9435 C328.5669,390.6565 329.6969,379.2315 330.4719,367.0805 C305.7649,366.1185 260.9409,361.8095 233.8499,351.6945" id="Fill-18" fill="#836456"/><path d="M274.6615,190.0988 C257.1695,195.3618 244.4255,211.5838 244.4255,230.7898 L233.8495,351.6948 C260.9405,361.8098 305.7655,366.1188 330.4725,367.0798 C333.5245,319.1748 337.2985,222.8518 308.2985,207.8518 C308.2985,207.8518 287.2985,185.8518 274.6615,190.0988" id="Fill-20" fill="#a17c69"/><path d="M395.6947,360.4162 C423.2987,361.8522 446.2987,359.8522 471.3927,350.5432 L460.9187,230.7902 C460.9187,209.3952 445.1047,191.7012 424.5297,188.7392 C421.8627,199.1042 412.1937,202.3552 398.2987,208.8522 C398.9517,253.2532 397.4197,315.7292 395.6947,360.4162" id="Fill-22" fill="#a17c69"/><path d="M33.7972,32.049 C24.7392,32.914 16.8602,37.44 11.6402,44.313 C6.3882,51.163 3.8662,60.356 5.3782,69.939 C8.6792,90.938 13.2602,111.929 19.5592,132.879 C23.1052,144.478 27.2492,156.061 32.2192,167.567 C37.1972,179.066 43.0032,190.502 50.0952,201.656 C57.1792,212.794 65.7102,223.66 76.0612,233.516 C76.7002,234.134 77.3082,234.769 77.9792,235.369 L80.0372,237.144 L84.1812,240.664 L86.2642,242.41 L88.4572,244.07 C89.9212,245.179 91.4002,246.266 92.9202,247.281 C98.9472,251.438 105.2732,255.07 111.7392,258.17 C124.6892,264.384 138.1382,268.459 151.3772,270.981 C164.6382,273.503 177.7282,274.515 190.5102,274.556785 C203.2982,274.588 215.7942,273.64 228.0272,272.037 C240.2632,270.431 252.2322,268.149 263.9922,265.362 C274.8662,262.791 283.5692,256.422 288.5582,248.611 C293.5812,240.787 294.8972,231.57 291.9232,222.964 C288.9462,214.346 282.4462,207.887 274.6812,204.053 C266.8802,200.228 257.7952,199.008 248.7732,201.141 C229.2022,205.778 209.4432,208.594 190.6872,208.556 C171.9602,208.529 154.3252,205.445 140.2822,198.661 C136.7642,196.974 133.4592,195.066 130.3682,192.935 C129.5792,192.422 128.8322,191.861 128.0902,191.295 L126.9672,190.455 L125.8862,189.511 L123.7002,187.651 L122.5952,186.734 C122.2312,186.415 121.8942,186.033 121.5412,185.688 C115.8432,180.268 110.4842,173.656 105.6982,166.1 C96.1022,150.963 88.5632,132.79 82.6982,113.66 C77.4842,96.299 73.4662,78.132 70.5672,59.619 C69.2392,51.199 64.5682,44.028 58.0062,39.008 C51.4202,34.016 42.8812,31.182 33.7972,32.049" id="SKIN" fill="#fcdaca"/><path d="M8.3509,14.546 C3.3859,14.829 -0.3851,19.377 0.0319,24.657 C1.8409,47.584 4.9169,70.281 9.5409,93.033 C10.6439,98.267 15.5089,101.609 20.3489,100.499 C25.1999,99.389 28.2329,94.436 27.1769,89.43 C22.7199,67.507 19.7279,45.457 17.9769,23.255 C17.5759,18.176 13.3109,14.268 8.3509,14.546" id="SKIN" fill="#fcdaca"/><path d="M23.7933,2.3634 C18.8253,2.4884 14.9233,6.8964 15.2143,12.0574 C15.7863,22.0654 16.6243,31.9844 17.7353,41.8864 C18.3063,46.9924 22.8323,50.6014 27.7713,49.9554 C32.6893,49.3114 36.1753,44.8114 35.6253,39.8944 C34.5483,30.3054 33.7373,20.6864 33.1873,11.0564 C32.9073,6.1284 28.7643,2.2444 23.7933,2.3634" id="SKIN" fill="#fcdaca"/><path d="M39.7376,0.0041 C34.7606,-0.0219 30.8236,4.1801 31.0856,9.1661 C31.5856,18.8421 32.3876,28.4951 33.4176,38.1251 C33.9716,43.0881 38.4436,46.6011 43.3876,45.9721 C48.3056,45.3471 51.8476,40.9711 51.3136,36.1971 C50.3186,26.8861 49.5416,17.5241 49.0616,8.2501 C48.8116,3.4961 44.7026,-0.1439 39.7376,0.0041" id="SKIN" fill="#fcdaca"/><path d="M66.933,31.6769 C61.988,32.1679 58.355,36.4139 58.924,41.1509 C60.016,50.3339 61.35,59.4789 62.928,68.5469 C63.352,70.8759 66.027,73.3019 68.689,75.0629 C71.329,76.8359 73.849,77.9959 73.849,77.9959 C72.782,72.5079 81.923,72.6539 80.181,62.7499 C78.881,54.8999 77.747,46.9829 76.799,39.0299 C76.252,34.4829 71.88,31.1859 66.933,31.6769" id="SKIN" fill="#fcdaca"/><path d="M56.0052,6.9533 C51.0392,7.1723 47.1922,11.2463 47.5302,16.0783 C48.6592,32.2153 50.4902,48.3853 53.0952,64.3513 C53.8412,69.1393 58.5602,72.2533 63.4262,71.3593 C68.3362,70.4533 71.5752,66.0553 70.8622,61.4683 C68.3512,46.0813 66.5762,30.4013 65.4882,14.8513 C65.1652,10.2303 60.9702,6.7283 56.0052,6.9533" id="SKIN" fill="#fcdaca"/><path d="M5.0241,100.6072 C7.3921,111.3502 10.0471,122.0962 13.2961,132.8522 C13.1621,133.2292 13.0421,133.6432 12.9371,134.0892 C12.8261,134.5342 12.7391,135.0022 12.7001,135.5942 C12.6061,136.7332 12.5761,138.0232 12.6111,139.4592 C12.6901,142.3302 12.9531,145.7712 13.6701,149.7432 C14.0071,151.7272 14.4071,153.8422 14.8701,156.0762 C15.3611,158.3122 15.9911,160.6762 16.6461,163.1482 C16.9861,164.3852 17.3331,165.6502 17.6891,166.9432 C18.0561,168.2352 18.5131,169.5602 18.9471,170.9072 C19.8531,173.6052 20.7471,176.4032 21.8511,179.3052 C22.9861,182.2072 24.1921,185.2052 25.4661,188.2872 C26.8271,191.3732 28.3501,194.5472 29.8981,197.7922 C30.6391,199.4142 31.5761,201.0582 32.4611,202.7172 C33.3691,204.3732 34.2881,206.0482 35.2181,207.7422 C36.1141,209.4342 37.2051,211.1372 38.2751,212.8532 C39.3601,214.5662 40.4541,216.2952 41.5601,218.0412 C42.6231,219.7862 43.9541,221.5232 45.2001,223.2782 C46.4811,225.0242 47.7711,226.7862 49.0711,228.5602 C50.4001,230.3272 51.9371,232.0722 53.3951,233.8372 C54.8931,235.5942 56.3511,237.3682 57.9461,239.1172 C59.6101,240.8512 61.3001,242.5842 63.0141,244.3142 C64.7301,246.0442 66.4201,247.7882 68.3861,249.4362 C72.2121,252.7692 76.0351,256.1332 80.3391,259.2232 C88.8201,265.4272 98.0521,270.6612 107.5181,274.9242 C116.9951,279.1502 126.7041,282.3422 136.2971,284.6722 C155.5131,289.2712 174.1281,290.4372 191.2041,289.8352 C208.3081,289.2112 223.9871,286.8422 237.9901,283.7622 C252.0031,280.6842 264.3451,276.8502 274.8101,272.9812 C289.5471,269.1622 301.1551,260.1682 307.5561,249.3872 C313.9951,238.6002 315.2971,226.0322 310.4041,214.9092 C305.5501,203.7732 296.7501,195.6012 286.4321,190.8552 C276.0861,186.1272 264.990174,186.1272 252.6951,187.8062 C240.400026,189.4852 229.0451,190.6872 217.1771,191.4412 C205.3231,192.1802 193.6041,192.3222 182.8391,191.4782 C180.1321,191.2972 177.5291,190.9882 174.9501,190.6972 C172.4161,190.3412 169.8991,190.0052 167.5201,189.5392 C162.7061,188.6782 158.2811,187.5422 154.2321,186.2372 C150.1581,184.9522 146.5511,183.4102 143.2321,181.7552 C142.3711,181.3712 141.6251,180.8812 140.8031,180.4772 C140.0291,180.0252 139.2601,179.5742 138.4941,179.1272 L137.3881,178.4162 C137.0121,178.1952 136.6401,177.9582 136.2831,177.6612 C135.5601,177.1072 134.8241,176.5732 134.0771,176.0542 C128.1491,171.7202 122.2221,165.6762 116.9331,159.0302 C111.6231,152.3892 106.9251,145.2602 102.8181,138.7502 C101.8081,137.1002 100.8121,135.5092 99.8341,133.9812 C98.9141,132.3942 98.0131,130.8722 97.1301,129.4212 C95.3221,126.5602 93.8141,123.7812 92.3041,121.4262 C91.9271,120.8342 91.5611,120.2602 91.2071,119.7062 C90.8611,119.1422 90.5251,118.5972 90.2021,118.0712 C89.5451,117.0252 88.9131,116.0682 88.3111,115.2052 C87.7081,114.3432 87.1331,113.5742 86.5901,112.9042 C86.0371,112.2382 85.6041,111.7752 85.1471,111.3462 C82.5161,102.6612 80.3021,93.6902 78.3001,84.6222 L5.0241,100.6072 Z" id="Fill-39" fill="#a17c69"/><path d="M302.2982,147.8517 C261.2982,152.8517 257.4012,187.6157 274.6612,191.0987 C288.2982,193.8517 297.0422,209.8597 309.0022,216.0087 C311.6702,217.3807 314.8122,215.2797 314.6032,212.2867 C314.5442,211.4387 314.4852,210.5957 314.4262,209.7597 C313.7692,200.4887 315.1552,188.6307 324.4492,188.7017 C341.1122,188.8257 366.0632,188.8067 382.0942,188.6657 C390.7902,188.5887 397.9532,196.4937 398.1642,205.1877 C398.1992,206.6147 398.2322,208.0587 398.2612,209.5167 C398.3192,212.4557 401.5062,214.2617 404.0572,212.8007 C414.8662,206.6097 422.2432,198.6227 424.5292,189.7397 C425.0252,187.8147 425.2982,185.8507 425.2982,183.8517 C425.2982,160.6557 343.9662,142.7707 302.2982,147.8517" id="Fill-24" fill="#836456"/><path d="M13.1966,132.4992 L86.5036,110.6292 C83.9096,102.0832 81.7436,93.2352 79.7676,84.3032 L5.0256,100.6072 C7.3726,111.2312 9.9786,121.8602 13.1966,132.4992" id="Fill-41" fill="#836456"/></g></g></g><g id="Head" transform="translate(338.000000, -61.000000) scale(1 1)"><g id="Head/Bald" stroke="none" stroke-width="1" fill="none" fill-rule="evenodd"><g id="Head" transform="translate(22.000000, 72.000000)"><g id="head" transform="translate(0.000000, 0.000100)" fill="#fcdaca"><path d="M13,62 L58,62 L58,113.633 C58,127.538 47.926,138.81 35.5,138.81 C23.074,138.81 13,127.538 13,113.633 L13,62 Z" id="SKIN"/><path d="M60.0525,94 L55.0655,94 C31.8335,94 13.0005,75.167 13.0005,51.935 L13.0005,32.203 C13.0005,14.418 27.4175,0 45.2035,0 L50.7965,0 C68.5825,0 83.0005,14.418 83.0005,32.203 L83.0005,71.052 C83.0005,83.726 72.7265,94 60.0525,94" id="SKIN"/><path d="M25,58.5 C25,65.403 19.404,71 12.5,71 C5.596,71 0,65.403 0,58.5 C0,51.597 5.596,46 12.5,46 C19.404,46 25,51.597 25,58.5" id="SKIN"/></g><path d="M10.067,53.1685 C10.9718309,53.1685 12.2239875,53.3771928 13.5088204,54.0196092 C15.6553998,55.0928989 17.0130325,57.055328 17.10411,59.9021045 L17.109,60.2105 L14.109,60.2105 C14.109,58.3751144 13.4076866,57.3231443 12.1671796,56.7028908 C11.7065142,56.4725581 11.1976823,56.3199085 10.686339,56.2346846 C10.4347302,56.1927498 10.2385731,56.1747448 10.1250097,56.169908 L10.067,56.1685 L10.067,53.1685 Z" id="ear-line" fill="#000000"/><path d="M34.7507501,96.3317762 C25.4557924,93.0436693 20.8185822,84.7387742 18.9822222,73.5681961 C26.2532122,85.6702724 39.4406226,93.8133264 54.5439426,93.9968331 L55.0655,94 L58,94 C50.0632106,98.2298391 42.3134606,99.0070978 34.7507501,96.3317762 Z" id="SHADOW" fill="#000000" opacity=".12"/></g></g></g><g id="Expression" transform="translate(385.000000, 34.000000) scale(1 1)" fill="#000000"><defs><filter id="expressionwink-filter-1"><feColorMatrix in="SourceGraphic" values="0 0 0 0 0.000000 0 0 0 0 0.000000 0 0 0 0 0.000000 0 0 0 1.000000 0"/></filter></defs><g id="Expression/Wink" stroke="none" stroke-width="1" fill="none" fill-rule="evenodd"><g filter="url(#expressionwink-filter-1)" id="Group-17"><g transform="translate(9.000000, 3.000000)"><path d="M37.6862,19.0627 C37.6862,17.4057 36.3432,16.0627 34.6862,16.0627 C33.0292,16.0627 31.6862,17.4057 31.6862,19.0627 C31.6862,20.7197 33.0292,22.0627 34.6862,22.0627 C36.3432,22.0627 37.6862,20.7197 37.6862,19.0627" id="Fill-1" fill="#000000"/><path d="M13.0473,38.6487 C13.0473,42.3229625 16.7893817,45.7208933 20.8069435,45.8527329 L21.0483,45.8567 L21.0483,48.8567 C15.4506295,48.8567 10.2215019,44.2907163 10.0515594,38.9179911 L10.0473,38.6487 L13.0473,38.6487 Z" id="Stroke-5" fill="#000000" fill-rule="nonzero"/><path d="M2.57564697,9.21147847 C6.2616177,8.06796663 10.3535814,7.81561498 14.5680667,8.99954871 L15.0368326,9.13703524 L14.1597674,12.0059648 C10.4145271,10.8610011 6.75307649,11.056551 3.46455381,12.0767611 C2.87639473,12.2592278 2.35407493,12.4536573 1.90571976,12.6462124 L1.67798076,12.7466018 L1.40843093,12.875962 L0.000169065366,10.227038 C0.505632486,9.95831572 1.38329457,9.5813862 2.57564697,9.21147847 Z" id="Stroke-7" fill="#000000" fill-rule="nonzero"/><path d="M27.4327673,1.61074391 C31.7294847,0.539609121 35.85137,0.927023851 39.5454285,2.22070874 C40.6627133,2.61198958 41.5287224,3.00892816 42.1054952,3.32415386 L42.3911858,3.48746626 L40.8460142,6.05893374 L40.6830708,5.96779273 C40.5848397,5.91521377 40.4526078,5.84736079 40.2880352,5.76752086 C39.7889686,5.52540617 39.2078998,5.28115198 38.5538553,5.05210108 C35.5067759,3.98499275 32.1271224,3.6348104 28.6169983,4.41363387 L28.1584327,4.52165609 L27.4327673,1.61074391 Z" id="Stroke-9" fill="#000000" fill-rule="nonzero"/><path d="M2.29348496,21.505614 C4.78316311,15.2814186 15.5765131,15.2055138 17.1047395,21.5313094 L17.157071,21.7685258 L14.215329,22.3568742 C13.5401751,18.9811049 6.8011145,18.9218809 5.16179365,22.4285178 L5.07891504,22.619786 L2.29348496,21.505614 Z" id="Stroke-15" fill="#000000" fill-rule="nonzero"/></g></g><polygon id="Stroke-5" fill="#000000" fill-rule="nonzero" points="33.1977829 19.396766 36.1476171 18.850434 40.4350211 41.9996 30.5607 41.9996 30.5607 38.9996 36.828 38.999"/></g></g><g id="Accessories" transform="translate(372.000000, 56.000000) scale(1 1)" fill="#000000"><g id="Accessories/N65" stroke="none" stroke-width="1" fill="none" fill-rule="evenodd"><path d="M55.1977784,0.766509801 C61.8672688,0.766509801 65.5931791,6.91877559 68.3190852,9.67622448 C68.5366389,9.86933778 68.7500465,10.0676638 68.9593821,10.2698541 C69.0753941,10.3682311 69.1897807,10.4565674 69.3026336,10.535583 L69.2915753,10.5973925 C73.2112403,14.5427001 75.6165684,19.8776287 75.6165684,25.7499259 C75.6165684,37.9001904 65.3191176,47.7499259 52.6165684,47.7499259 C39.9140192,47.7499259 29.6165684,37.9001904 29.6165684,25.7499259 C29.6165684,17.6330728 34.2120776,10.5428914 41.0501479,6.73002773 L41.0440543,6.69219525 L41.0440543,6.69219525 C46.4836096,4.14573474 47.6906867,0.766509801 55.1977784,0.766509801 Z" id="Clothe" fill="#ddd9b8"/><path d="M32.6165684,20.7333421 C32.6165684,32.8836066 42.9140192,42.7333421 55.6165684,42.7333421 C63.0741024,42.7333421 69.702661,39.3383929 73.9051908,34.0761112 C70.4693708,42.0893844 62.2320375,47.7333421 52.6165684,47.7333421 C39.9140192,47.7333421 29.6165684,37.8836066 29.6165684,25.7333421 C29.6165684,20.7166936 31.3720069,16.0922234 34.3273758,12.3912869 C33.2246542,14.9640107 32.6165684,17.7807509 32.6165684,20.7333421 Z" id="SHADOW" fill="#000000" opacity=".12"/><line x1="0" y1="0" x2="34.913" y2="14.229" id="Path-4" stroke="#2d231e" stroke-width="2"/><line x1="33.673" y1="28.173" x2="0" y2="28.173" id="Path-5" stroke="#2d231e" stroke-width="2"/></g></g><g id="Glasses" transform="translate(364.000000, 42.000000) scale(1 1)" fill="#000000"><g id="Glasses/None" stroke="none" stroke-width="1" fill="none" fill-rule="evenodd" fill-opacity="0"/></g></g></g></g></g></g></svg>