<svg viewBox="95.19230769230762 39.637500000000045 1004.8076923076924 1255.1875000000002" xmlns="http://www.w3.org/2000/svg" overflow="visible" xmlns:xlink="http://www.w3.org/1999/xlink" width="1004.8076923076924px" height="1255.1875000000002px"><g id="Master/Comps/Chat" stroke="none" stroke-width="1" fill="none" fill-rule="evenodd"><g id="Blob" opacity=".288" transform="translate(2.000000, 147.891534) scale(1.5335892514395393 1.532934131736527)"><g id="Blob/5" stroke="none" stroke-width="1" fill="none" fill-rule="evenodd"><path d="M424.246417,106.725225 C457.994937,159.279427 463.519606,224.220548 447.78631,280.623113 C432.053015,336.905417 394.821552,384.649167 335.371312,430.588996 C275.800972,476.528826 193.771652,520.544474 159.422625,493.365412 C125.073597,466.186351 138.524965,367.572057 119.548929,278.217886 C100.572893,188.863715 49.2895551,108.649406 68.3856925,59.3422591 C87.48183,10.1553736 177.077544,-8.24461047 252.741485,2.81943223 C328.525527,13.7632136 390.497898,54.0507604 424.246417,106.725225 Z" id="blobs-burgers" fill="#fdb492"/></g></g><g id="Small Elements" transform="translate(88.000000, 691.000000) scale(1 1)"><g id="Small Elements/Bars" stroke="none" stroke-width="1" fill="none" fill-rule="evenodd"><g id="Graph" transform="translate(49.000000, 56.000000)"><rect id="Value" fill="#ede2c0" x="0" y="89" width="17" height="70" rx="3.5"/><rect id="Value" fill="#ede2c0" x="39" y="45" width="17" height="114" rx="3.5"/><rect id="Value" fill="#ede2c0" x="78" y="22" width="17" height="137" rx="3.5"/><rect id="Value" fill="#ede2c0" x="116" y="45" width="17" height="114" rx="3.5"/><rect id="Value" fill="#d7cdaf" x="155" y="0" width="17" height="159" rx="3.5"/></g></g></g><g id="Small Elements" transform="translate(514.000000, 128.000000) scale(0.5481481481481482 0.5481481481481482)"><g id="Small Elements/Grid" stroke="none" stroke-width="1" fill="none" fill-rule="evenodd"><path d="M61.638852,-1.5 L102.361148,-1.5 C111.276335,-1.5 114.509198,-0.571743889 117.768457,1.17132704 C121.027716,2.91439796 123.585602,5.47228371 125.328673,8.73154296 C127.071744,11.9908022 128,15.2236646 128,24.138852 L128,98.861148 C128,107.776335 127.071744,111.009198 125.328673,114.268457 C123.585602,117.527716 121.027716,120.085602 117.768457,121.828673 C114.509198,123.571744 111.276335,124.5 102.361148,124.5 L61.638852,124.5 C52.7236646,124.5 49.4908022,123.571744 46.231543,121.828673 C42.9722837,120.085602 40.414398,117.527716 38.671327,114.268457 C36.9282561,111.009198 36,107.776335 36,98.861148 L36,24.138852 C36,15.2236646 36.9282561,11.9908022 38.671327,8.73154296 C40.414398,5.47228371 42.9722837,2.91439796 46.231543,1.17132704 C49.4908022,-0.571743889 52.7236646,-1.5 61.638852,-1.5 Z" id="Rectangle-2-Copy-7" fill="#f7eed2" opacity=".906"/><path d="M61.638852,144.5 L102.361148,144.5 C111.276335,144.5 114.509198,145.428256 117.768457,147.171327 C121.027716,148.914398 123.585602,151.472284 125.328673,154.731543 C127.071744,157.990802 128,161.223665 128,170.138852 L128,244.861148 C128,253.776335 127.071744,257.009198 125.328673,260.268457 C123.585602,263.527716 121.027716,266.085602 117.768457,267.828673 C114.509198,269.571744 111.276335,270.5 102.361148,270.5 L61.638852,270.5 C52.7236646,270.5 49.4908022,269.571744 46.231543,267.828673 C42.9722837,266.085602 40.414398,263.527716 38.671327,260.268457 C36.9282561,257.009198 36,253.776335 36,244.861148 L36,170.138852 C36,161.223665 36.9282561,157.990802 38.671327,154.731543 C40.414398,151.472284 42.9722837,148.914398 46.231543,147.171327 C49.4908022,145.428256 52.7236646,144.5 61.638852,144.5 Z" id="Rectangle-2-Copy-10" fill="#f7eed2" opacity=".866"/><path d="M167.638852,105.5 L208.361148,105.5 C217.276335,105.5 220.509198,106.428256 223.768457,108.171327 C227.027716,109.914398 229.585602,112.472284 231.328673,115.731543 C233.071744,118.990802 234,122.223665 234,131.138852 L234,177.861148 C234,186.776335 233.071744,190.009198 231.328673,193.268457 C229.585602,196.527716 227.027716,199.085602 223.768457,200.828673 C220.509198,202.571744 217.276335,203.5 208.361148,203.5 L167.638852,203.5 C158.723665,203.5 155.490802,202.571744 152.231543,200.828673 C148.972284,199.085602 146.414398,196.527716 144.671327,193.268457 C142.928256,190.009198 142,186.776335 142,177.861148 L142,131.138852 C142,122.223665 142.928256,118.990802 144.671327,115.731543 C146.414398,112.472284 148.972284,109.914398 152.231543,108.171327 C155.490802,106.428256 158.723665,105.5 167.638852,105.5 Z" id="Rectangle-2-Copy-11" fill="#f6edcf"/></g></g><g id="Character" transform="translate(300.500000, 202.378906) rotate(-9.000000) translate(-300.500000, -202.378906) translate(25.000000, 20.378906)"><path d="M176.98248,211.288638 C178.702347,231.829347 181.758469,246.927654 186.150847,256.583559 C204.748401,297.467153 229.832827,313.54465 235.244766,346.693427 C242.573995,391.585843 265.581758,348.337452 304.268054,216.948252 L280.862948,195.187504 L176.98248,211.288638 Z" id="Path-15" fill="#291a14"/><g id="Body" transform="translate(0.050544, 19.705400) scale(0.6373117033603708 0.6382575757575758)"><g id="Body/Sweats Holding Hands" stroke="none" stroke-width="1" fill="none" fill-rule="evenodd"><g id="Body" transform="translate(238.000000, 149.000000)"><path d="M278.106708,192.298647 C205.538716,197.378937 1.44114734,174.139406 3.75109927,161.20524 C8.33256874,135.552114 16.2642525,95.4663653 27.5461506,40.9479927 C27.5461506,18.3333745 47.7038086,-0.000770909091 72.5687342,-0.000770909091 L211.895593,-0.000770909091 C236.760519,-0.000770909091 256.917117,18.3333745 256.917117,40.9479927 C266.870755,93.2351517 274.102974,132.007446 278.613775,157.264876 C280.224412,166.283349 280.055389,177.961273 278.106708,192.298647 Z" id="Sweat-Body" fill="#c2ba9e"/><path d="M0.000317843866,195.189749 C100.650875,230.844295 209.77727,197.117022 284.463162,195.189749 L279.673255,156.30124 C206.510894,158.917513 101.819481,190.863022 3.67459294,157.11744 L0.000317843866,195.189749 Z" id="Bottom" fill="#a69f87"/></g><g id="Left-Arm" transform="translate(210.000000, 148.000000)"><path d="M167.0149,188.4875 C122.8529,184.3195 63.0539,163.9905 89.1189,108.5835 C94.4809,94.4315 105.6519,80.4165 114.8899,66.4825 C120.2469,53.4765 116.5779,37.7905 106.1429,27.5315 C96.4849,18.2165 81.8359,16.4955 70.0459,22.1485 C57.5169,29.3365 51.1629,43.2615 42.8739,54.9505 C31.4479,73.5265 22.3519,93.4945 18.5879,115.9255 C9.1929,164.0435 36.8319,210.8645 79.9639,231.8015 C104.2269,244.4385 131.3849,250.9035 157.9049,253.8745 C181.5869,256.5175 205.2599,256.5115 228.9199,254.7605 C237.7139,254.3975 240.9469,242.7675 233.5919,238.3475 L239.1149,237.8225 C248.1429,237.2445 250.2999,224.5565 242.4299,220.8815 C252.4679,215.8635 245.9869,200.9965 235.4419,204.0175 C241.1189,198.7665 236.3639,187.5795 228.6629,188.5885 C223.1289,189.0335 217.5999,189.4215 212.0969,189.6445 C210.5339,175.0255 190.5349,183.0065 180.8079,180.5535 C172.4099,179.4105 173.0889,187.9175 167.0149,188.4875" id="SKIN" fill="#bd7a5a"/><path d="M150.4187,259.0001 C138.9227,257.4341 127.2317,255.2151 115.5787,252.0011 C93.8367,256.0211 68.1477,243.7591 48.8257,230.6081 C15.3077,207.5201 -4.4923,164.0391 0.8727,123.3471 C5.7257,81.2051 28.5517,46.0091 56.8357,18.4321 C72.1697,-0.2989 95.8457279,1 118.069576,1 C133.011576,16.609 137.7547,56.8081 124.9007,74.2111 C114.3337,92.8051 101.0107,115.3241 99.8257,135.7671 C98.5577,157.5811 122.8357,166.8501 135.5207,179.7011 C143.3747,181.8711 151.8247,183.4981 160.4427,184.6731 L150.4187,259.0001 Z" id="Fill-5" fill="#c2ba9e"/><path d="M116.3186,250.6516 L136.1466,178.3196 C143.9146,180.4376 152.1606,182.0316 160.6426,183.1846 L150.6186,257.5116 C139.2886,255.9696 127.8486,253.7966 116.3186,250.6516" id="Fill-8" fill="#a69f87"/></g><g id="Right-Arm" transform="translate(419.000000, 148.000000)"><path d="M73.9465406,185.601608 C109.478541,176.222608 63.0185406,117.436608 51.0095406,100.904608 C42.8775406,90.570608 34.1035406,80.455608 24.8955406,70.595608 C22.8205406,68.383608 21.4935406,65.663608 20.8025406,62.638608 C19.3265406,51.041608 21.5705406,38.152608 30.5415406,29.096608 C39.4555406,19.859608 53.0525406,17.724608 64.7715406,20.370608 C80.6515406,28.526608 90.7175406,46.903608 102.929541,60.155608 C123.923541,87.344608 143.999541,117.561608 151.477541,152.309608 C161.781541,196.212608 137.049541,236.776608 93.7195406,248.577608 C69.7745406,255.934608 42.3405406,256.288608 18.6395406,254.658608 C9.9535406,254.471608 6.2795406,242.746608 13.8335406,238.244608 L8.2715406,237.714608 C-0.804459398,237.129608 -2.9194594,224.424608 4.9715406,220.767608 C-5.0304594,215.737608 1.4775406,200.889608 11.9745406,203.913608 C6.3635406,198.683608 11.1005406,187.505608 18.6815406,188.469608 C23.8985406,188.892608 29.5245406,189.252608 34.7565406,189.370608 C35.4825406,175.514608 54.0885406,181.925608 62.2615406,178.974608 C68.1425406,177.149608 69.5905406,185.830608 73.9465406,185.601608" id="SKIN" fill="#bd7a5a"/><path d="M107.167441,250.037008 C123.559441,243.122008 138.135441,231.803008 147.583441,216.665008 C167.276441,202.905008 170.478441,172.298008 166.545441,148.051008 C157.662441,94.987008 115.686441,45.181008 76.7734406,14.816008 C59.9964406,-0.34599201 36.3999301,0.999229091 16.4958359,1 C-3.40825837,1.00077091 0.138440602,58.640008 12.9434406,75.397008 C25.8074406,95.113008 41.4264406,115.434008 54.5944406,134.943008 C62.0804406,146.000008 67.7744406,155.165008 73.5574406,166.246008 C73.9794406,166.881008 74.1604406,167.963008 74.8854406,168.281008 C78.4234406,169.840008 80.2964406,173.633008 82.5514406,176.608008 C81.0674406,178.988008 78.5954406,180.705008 75.9904406,181.751008 L107.167441,250.037008 Z" id="Fill-12" fill="#c2ba9e"/><path d="M146.080241,216.219708 L81.1842406,175.837708 C79.8442406,177.971708 77.6702406,179.448708 75.3652406,180.382708 L106.543241,248.670708 C122.527241,241.928708 136.805241,230.931708 146.080241,216.219708" id="Fill-14" fill="#a69f87"/></g></g></g><g id="Head" transform="translate(204.559406, 0.528013) scale(0.6377952755905512 0.6350710900473934)"><g id="Head/Afro" stroke="none" stroke-width="1" fill="none" fill-rule="evenodd"><path d="M60,44 C14.0627304,44 -9,67.357571 -9,114.051992 C-9,160.746412 14.0627304,172 60,172 C105.93727,172 129,160.746412 129,114.051992 C129,67.357571 105.93727,44 60,44 Z" id="Fill-3" fill="#000000"/><g id="head" transform="translate(22.000000, 72.000000)"><g fill="#bd7a5a" id="SKIN"><path d="M13,62 L58,62 L58,113.633 C58,127.538 47.926,138.81 35.5,138.81 C23.074,138.81 13,127.538 13,113.633 L13,62 Z"/><path d="M60.0525,94 L55.0655,94 C31.8335,94 13.0005,75.167 13.0005,51.935 L13.0005,32.203 C13.0005,14.418 27.4175,0 45.2035,0 L50.7965,0 C68.5825,0 83.0005,14.418 83.0005,32.203 L83.0005,71.052 C83.0005,83.726 72.7265,94 60.0525,94"/><path d="M25,58.5 C25,65.403 19.404,71 12.5,71 C5.596,71 0,65.403 0,58.5 C0,51.597 5.596,46 12.5,46 C19.404,46 25,51.597 25,58.5"/></g><path d="M10.067,53.1685 C10.9718309,53.1685 12.2239875,53.3771928 13.5088204,54.0196092 C15.6553998,55.0928989 17.0130325,57.055328 17.10411,59.9021045 L17.109,60.2105 L14.109,60.2105 C14.109,58.3751144 13.4076866,57.3231443 12.1671796,56.7028908 C11.7065142,56.4725581 11.1976823,56.3199085 10.686339,56.2346846 C10.4347302,56.1927498 10.2385731,56.1747448 10.1250097,56.169908 L10.067,56.1685 L10.067,53.1685 Z" id="ear-line" fill="#000000"/><path d="M34.7507501,96.3316762 C25.4557924,93.0435693 20.8185822,84.7386742 18.9822222,73.5680961 C26.2532122,85.6701724 39.4406226,93.8132264 54.5439426,93.9967331 L55.0655,93.9999 L58,93.9999 C50.0632106,98.2297391 42.3134606,99.0069978 34.7507501,96.3316762 Z" id="SHADOW" fill="#000000" opacity=".12"/></g><path d="M19.0235388,90.2974915 C18.0946008,77.6615932 44.8808128,67 60.3367811,67 L94.3260463,67 L110,94.0239492 L60.0298015,94.0239492 C53.2572536,108.828644 43.3389157,118 34.3395164,118 C25.3401171,118 19.7014935,99.5172542 19.0235388,90.2974915 Z" id="Fill-17" fill="#000000"/></g></g><g id="Expression" transform="translate(235.697043, 61.191581) scale(0.6229508196721312 0.6229508196721312)" fill="#000000"><defs><filter id="expressionwink-filter-1"><feColorMatrix in="SourceGraphic" values="0 0 0 0 0.000000 0 0 0 0 0.000000 0 0 0 0 0.000000 0 0 0 1.000000 0"/></filter></defs><g id="Expression/Wink" stroke="none" stroke-width="1" fill="none" fill-rule="evenodd"><g filter="url(#expressionwink-filter-1)" id="Group-17"><g transform="translate(9.000000, 3.000000)"><path d="M37.6862,19.0627 C37.6862,17.4057 36.3432,16.0627 34.6862,16.0627 C33.0292,16.0627 31.6862,17.4057 31.6862,19.0627 C31.6862,20.7197 33.0292,22.0627 34.6862,22.0627 C36.3432,22.0627 37.6862,20.7197 37.6862,19.0627" id="Fill-1" fill="#000000"/><path d="M13.0473,38.6487 C13.0473,42.3229625 16.7893817,45.7208933 20.8069435,45.8527329 L21.0483,45.8567 L21.0483,48.8567 C15.4506295,48.8567 10.2215019,44.2907163 10.0515594,38.9179911 L10.0473,38.6487 L13.0473,38.6487 Z" id="Stroke-5" fill="#000000" fill-rule="nonzero"/><path d="M2.57564697,9.21147847 C6.2616177,8.06796663 10.3535814,7.81561498 14.5680667,8.99954871 L15.0368326,9.13703524 L14.1597674,12.0059648 C10.4145271,10.8610011 6.75307649,11.056551 3.46455381,12.0767611 C2.87639473,12.2592278 2.35407493,12.4536573 1.90571976,12.6462124 L1.67798076,12.7466018 L1.40843093,12.875962 L0.000169065366,10.227038 C0.505632486,9.95831572 1.38329457,9.5813862 2.57564697,9.21147847 Z" id="Stroke-7" fill="#000000" fill-rule="nonzero"/><path d="M27.4327673,1.61074391 C31.7294847,0.539609121 35.85137,0.927023851 39.5454285,2.22070874 C40.6627133,2.61198958 41.5287224,3.00892816 42.1054952,3.32415386 L42.3911858,3.48746626 L40.8460142,6.05893374 L40.6830708,5.96779273 C40.5848397,5.91521377 40.4526078,5.84736079 40.2880352,5.76752086 C39.7889686,5.52540617 39.2078998,5.28115198 38.5538553,5.05210108 C35.5067759,3.98499275 32.1271224,3.6348104 28.6169983,4.41363387 L28.1584327,4.52165609 L27.4327673,1.61074391 Z" id="Stroke-9" fill="#000000" fill-rule="nonzero"/><path d="M2.29348496,21.505614 C4.78316311,15.2814186 15.5765131,15.2055138 17.1047395,21.5313094 L17.157071,21.7685258 L14.215329,22.3568742 C13.5401751,18.9811049 6.8011145,18.9218809 5.16179365,22.4285178 L5.07891504,22.619786 L2.29348496,21.505614 Z" id="Stroke-15" fill="#000000" fill-rule="nonzero"/></g></g><polygon id="Stroke-5" fill="#000000" fill-rule="nonzero" points="33.1977829 19.396766 36.1476171 18.850434 40.4350211 41.9996 30.5607 41.9996 30.5607 38.9996 36.828 38.999"/></g></g><g id="Accessories" transform="translate(226.007043, 75.665067) scale(0.6447368421052632 0.625)" fill="#000000"><g id="Accessories/N65" stroke="none" stroke-width="1" fill="none" fill-rule="evenodd"><path d="M55.1977784,0.766509801 C61.8672688,0.766509801 65.5931791,6.91877559 68.3190852,9.67622448 C68.5366389,9.86933778 68.7500465,10.0676638 68.9593821,10.2698541 C69.0753941,10.3682311 69.1897807,10.4565674 69.3026336,10.535583 L69.2915753,10.5973925 C73.2112403,14.5427001 75.6165684,19.8776287 75.6165684,25.7499259 C75.6165684,37.9001904 65.3191176,47.7499259 52.6165684,47.7499259 C39.9140192,47.7499259 29.6165684,37.9001904 29.6165684,25.7499259 C29.6165684,17.6330728 34.2120776,10.5428914 41.0501479,6.73002773 L41.0440543,6.69219525 L41.0440543,6.69219525 C46.4836096,4.14573474 47.6906867,0.766509801 55.1977784,0.766509801 Z" id="Clothe" fill="#e2d8b8"/><path d="M32.6165684,20.7333421 C32.6165684,32.8836066 42.9140192,42.7333421 55.6165684,42.7333421 C63.0741024,42.7333421 69.702661,39.3383929 73.9051908,34.0761112 C70.4693708,42.0893844 62.2320375,47.7333421 52.6165684,47.7333421 C39.9140192,47.7333421 29.6165684,37.8836066 29.6165684,25.7333421 C29.6165684,20.7166936 31.3720069,16.0922234 34.3273758,12.3912869 C33.2246542,14.9640107 32.6165684,17.7807509 32.6165684,20.7333421 Z" id="SHADOW" fill="#000000" opacity=".12"/><line x1="0" y1="0" x2="34.913" y2="14.229" id="Path-4" stroke="#332118" stroke-width="2"/><line x1="33.673" y1="28.173" x2="0" y2="28.173" id="Path-5" stroke="#332118" stroke-width="2"/></g></g><g id="Glasses" transform="translate(221.137375, 66.596623) scale(0.631578947368421 0.65625)" fill="#000000"><g id="Glasses/Round Big" stroke="none" stroke-width="1" fill="none" fill-rule="evenodd"><path d="M59,16 C59,25.3888407 51.3888407,33 42,33 C32.719077,33 25.175204,25.5628044 25.0030079,16.3230397 L25,16 L0,16 L0,14 L25.1163521,14.0004624 C26.106,5.55389893 33.2876275,-1 42,-1 C50.7123725,-1 57.894,5.55389893 58.8836479,14.0004624 L61.1163521,14.0004624 C62.106,5.55389893 69.2876275,-1 78,-1 C87.3888407,-1 95,6.61115925 95,16 C95,25.3888407 87.3888407,33 78,33 C68.719077,33 61.175204,25.5628044 61.0030079,16.3230397 L61,16 L59,16 Z M42,1 C33.7157288,1 27,7.71572875 27,16 C27,24.2842712 33.7157288,31 42,31 C50.2842712,31 57,24.2842712 57,16 C57,7.71572875 50.2842712,1 42,1 Z M78,1 C69.7157288,1 63,7.71572875 63,16 C63,24.2842712 69.7157288,31 78,31 C86.2842712,31 93,24.2842712 93,16 C93,7.71572875 86.2842712,1 78,1 Z" id="Shape" fill="#000000"/></g></g></g><g id="Phone-Message" transform="translate(213.000000, 234.000000)"><rect id="Phone" fill="#8e5c44" x="0" y="21" width="388" height="688" rx="35"/><rect id="Phone" fill="#ca8260" x="0" y="0" width="388" height="688" rx="35"/><rect id="Screen" fill="#ffffff" x="15" y="15" width="356" height="579" rx="18"/><circle id="Button" fill="#8e5c44" cx="194.5" cy="640.5" r="24.5"/><g id="Group-8" transform="translate(38.000000, 38.000000)"><rect id="Rectangle" fill="#e5dbba" x="0" y="0" width="221.47" height="131.852" rx="11"/><rect id="Rectangle" fill="#ca8260" x="22.618" y="26.37" width="175.291" height="10.36" rx="4"/><rect id="Rectangle-Copy-24" fill="#ca8260" x="22.618" y="48.032" width="175.291" height="10.36" rx="4"/><rect id="Rectangle-Copy-25" fill="#ca8260" x="22.618" y="69.693" width="175.291" height="10.36" rx="4"/><rect id="Rectangle-Copy-31" fill="#ca8260" x="22.618" y="91.354" width="100.839" height="10.36" rx="4"/><rect id="Rectangle" fill="#e5dbba" x="0" y="327.746" width="221.47" height="131.852" rx="11"/><rect id="Rectangle" fill="#ca8260" x="22.618" y="354.116" width="175.291" height="10.36" rx="4"/><rect id="Rectangle-Copy-24" fill="#ca8260" x="22.618" y="375.778" width="175.291" height="10.36" rx="4"/><rect id="Rectangle-Copy-25" fill="#ca8260" x="22.618" y="397.439" width="175.291" height="10.36" rx="4"/><rect id="Rectangle-Copy-31" fill="#ca8260" x="22.618" y="419.101" width="100.839" height="10.36" rx="4"/><g id="Group-9" transform="translate(89.530303, 163.873016)"><rect id="Rectangle" fill="#f7efd5" x="0" y="0" width="221.47" height="131.852" rx="11"/><rect id="Rectangle" fill="#beb69a" x="22.618" y="26.37" width="175.291" height="10.36" rx="4"/><rect id="Rectangle-Copy-24" fill="#beb69a" x="22.618" y="48.032" width="175.291" height="10.36" rx="4"/><rect id="Rectangle-Copy-25" fill="#beb69a" x="22.618" y="69.693" width="175.291" height="10.36" rx="4"/><rect id="Rectangle-Copy-31" fill="#beb69a" x="22.618" y="91.354" width="100.839" height="10.36" rx="4"/></g><g id="Group-10" transform="translate(0.000000, 498.211640)"><rect id="Rectangle" fill="#f7efd5" x="0" y="0" width="243.145" height="35.788" rx="8"/><rect id="Rectangle-Copy-32" fill="#ca8260" x="250.685" y="0" width="60.315" height="35.788" rx="8"/></g></g></g><g transform="translate(711.000000, 848.500000) scale(-1, 1) translate(-711.000000, -848.500000) translate(259.000000, 419.000000) scale(1 1)" id="Master/Character/Standing"><g id="Master/Character/Standing" stroke="none" stroke-width="1" fill="none" fill-rule="evenodd"><g id="Legs" transform="translate(50.000000, 263.000000) scale(1 1)"><g id="Legs/Pants Jump" stroke="none" stroke-width="1" fill="none" fill-rule="evenodd"><g id="Right-Leg" transform="translate(192.361100, 0.266500)"><path d="M32.217,212.4536 C32.218,212.4536 75.304,161.8156 75.304,161.8156 C77.621,159.0936 81.342,158.4546 83.74,160.4206 C111.7,182.8306 145.359,205.7406 179.536,214.5166 C225.788,225.0046 201.053,189.4856 235.179,202.3186 C243.27,207.2226 282.471,217.9666 285.212,228.5136 C289.951,239.0206 278.971,249.8736 273.475,258.1316 C248.285,292.4936 200.759,302.5906 161.337,291.8426 C128.121,283.7276 99.412,268.2026 71.693,250.1016 C58.413,241.2976 45.736,231.9576 33.395,221.8706 C30.422,219.4346 29.893,215.1746 32.217,212.4536" id="SKIN-DARKER" fill="#e0916b"/><path d="M158.6135,1.645 C152.2185,3.967 153.6755,12.52 154.4545,18.314 C158.3415,48.804 175.0645,80.505 188.2565,106.319 C203.0295,136.971 224.8765,173.462 200.3055,202.879 C179.9245,209.076 141.9945,185.749 123.6855,174.113 L64.8905,263.837 C133.8085,310.74 236.6015,342.038 291.6165,257.943 C305.4175,236.609 314.4845,211.832 316.5685,186.448 C323.1575,122.68 283.2995,68.781 260.4135,14.039 C259.5695,11.713 258.2025,2.392 257.7505,-1.42108547e-13 L158.6135,1.645 Z" id="Fill-3" fill="#170f0b"/><path d="M40.3576,227.4565 L89.4646,165.0125 C96.1556,170.2685 103.0696,175.3555 110.0576,180.1615 L65.0766,245.6415 C56.6286,239.8305 48.4096,233.7815 40.3576,227.4565" id="Fill-6" fill="#ffffff"/><path d="M54.094,237.8637 C57.33,233.4297 68.996,217.4437 79.874,202.5387 C66.774,194.5547 87.684,167.3887 98.678,176.7717 C100.103,174.8197 100.924,173.6937 100.924,173.6937 C92.746,167.7047 84.699,161.4257 77.072,154.7847 L0,240.5417 C3.483,243.6187 7.49,247.0237 11.053,249.9237 C21.188,256.0237 42.609,232.7487 54.094,237.8637" id="Fill-8" fill="#291a14"/></g><path d="M243,0 C243,55.228475 289.562386,100 347,100 C404.437614,100 451,55.228475 451,0" id="Waist" fill="#291a14"/><g id="Left-Leg" transform="translate(80.000400, 0.000221)"><path d="M32.1969,228.973779 C106.8339,144.540779 51.7819,175.729779 161.2309,226.742779 C181.0439,234.596779 201.6439,244.225779 220.7839,235.444779 C224.6319,233.033779 227.5429,227.622779 233.6349,229.694779 C242.8429,229.652779 274.6659,253.056779 282.9799,257.205779 C287.1639,259.782779 289.8849,263.838779 290.6239,268.601779 C292.0189,287.082779 263.6029,303.165779 248.7199,310.172779 C193.0029,332.421779 132.8719,304.857779 85.7699,276.074779 C67.3869,264.603779 50.0909,252.101779 33.3409,238.375779 C30.3849,235.946779 29.8679,231.690779 32.1969,228.973779" id="SKIN" fill="#fdb18e"/><path d="M265.5543,1.71647902 L172.1893,-2.84217094e-13 C170.6893,-0.0315209789 169.3113,1.54147902 168.3563,4.19947902 C163.4843,50.001479 200.6923,101.205479 217.4083,141.411479 C229.7863,168.040479 237.9553,201.561479 215.2483,224.664479 C190.8123,233.683479 145.9303,205.383479 124.0593,191.227479 L64.3633,280.355479 C110.8693,310.812479 167.3883,339.506479 225.3533,331.726479 C295.7713,322.699479 338.3143,248.374479 335.1733,181.891479 C334.0523,152.883479 324.9603,124.455479 313.3893,98.798479 C299.6173,65.997479 279.1913,38.853479 271.3943,6.52847902 C271.3953,6.52847902 271.2313,5.44347902 271.2303,5.44347902 C271.1773,5.08947902 271.1673,4.78247902 271.1223,4.45147902 C270.5103,2.14647902 267.8623,1.94247902 265.5543,1.71647902" id="Fill-14" fill="#291a14"/><path d="M38.6031,242.643679 L88.1801,180.571679 C95.3371,186.279679 102.7631,191.830679 110.2831,197.085679 L64.7751,262.200679 C55.8371,255.951679 47.1371,249.449679 38.6031,242.643679" id="Fill-17" fill="#ffffff"/><path d="M53.9,254.385879 C57.16,249.971879 68.918,234.052879 79.88,219.208879 C66.786,211.127879 87.802,184.037879 98.833,193.550879 C100.267,191.607879 101.095,190.485879 101.095,190.485879 C92.863,184.395879 84.775,178.028879 77.072,171.318879 L1.20792265e-13,257.074879 C1.435,258.333879 4.325,260.864879 5.775,262.079879 L10.937,266.380879 C20.994,272.446879 42.477,249.235879 53.9,254.385879" id="Fill-19" fill="#291a14"/><path d="M219.8746,1.51627902 L217.8746,1.49727902 C221.3786,63.172279 272.7616,110.752279 280.2776,171.135279 C285.4856,204.175279 274.5196,240.768279 249.7796,263.635279 C202.8726,300.892279 137.6166,262.094279 94.6986,234.915279 L93.5856,236.576279 C137.1496,264.294279 203.5066,303.209279 251.0896,265.147279 C276.3606,241.820279 287.5566,204.568279 282.2596,170.847279 C274.8326,110.445279 223.5806,62.886279 219.8746,1.51627902" id="Fill-21" fill="#ffffff"/></g></g></g><g id="Body" transform="translate(17.000000, -31.000000) scale(1 1)"><g id="Body/Short Tee Open Arms" stroke="none" stroke-width="1" fill="none" fill-rule="evenodd"><g id="Right-Arm" transform="translate(610.773762, 235.791649) rotate(-6.000000) translate(-610.773762, -235.791649) translate(420.273762, 132.791649)"><path d="M51.2848658,20.7253227 L51.7877664,20.7267019 C65.0228347,20.855282 77.5989158,28.2632147 82.7663058,40.7594347 C110.052246,106.382055 141.655209,140.389849 193.487546,139.968669 L195.629071,139.931971 C214.288364,139.445819 235.541466,134.587355 260.107306,125.229435 C264.350776,123.051945 268.721827,121.320306 273.089722,120.15391 L273.150601,120.138429 C296.238024,110.34552 323.70799,100.283572 346.768806,99.6371347 C364.750806,99.8711347 378.501806,101.187135 380.303806,108.965135 C380.932806,111.718135 380.100806,114.690135 377.247806,115.958135 C375.360119,116.811043 368.334251,118.18447 360.028373,120.281424 L360.028729,120.281394 L360.274115,120.395312 C367.861202,123.957657 372.459426,129.874765 368.266506,136.156735 C366.326306,138.324935 364.308306,139.189095 362.153434,139.237671 L361.829169,139.238901 C354.889307,139.137265 346.517631,130.934138 334.778469,130.635247 L334.225722,130.627087 L334.225722,130.627087 L333.667998,130.630872 C333.367172,130.636176 333.064174,130.646806 332.758973,130.663015 L332.757981,130.664134 L332.536754,130.815841 C327.665776,134.185887 324.391023,138.445048 324.241806,144.039135 C324.079806,150.524135 326.670806,153.956135 330.437806,155.709135 C337.372806,159.279135 350.649806,154.095135 352.487806,164.512135 C354.842806,174.841135 342.702806,175.129135 334.947806,176.441135 C322.631806,178.278135 304.931806,178.612135 294.851806,182.605135 L294.816371,182.606789 L294.816371,182.606789 L294.597499,182.711729 C281.608112,188.918696 265.834046,192.752935 253.802306,196.522435 C233.543606,202.050485 212.205586,205.817985 190.929246,205.96586 L189.768786,205.970325 C172.74981,205.982836 155.783586,203.657155 139.454306,198.041435 C112.315306,188.774435 88.5573058,170.235435 70.2703058,148.750435 C49.1723058,124.082435 33.4783058,94.8334347 21.5723058,65.4884347 C14.2883058,47.7174347 22.9833058,27.6604347 41.2203058,22.2084347 C44.5389058,21.2220347 47.9302658,20.7395147 51.2848658,20.7253227 Z" id="SKIN" fill="#fdb18e"/><path d="M51.2848658,20.7253227 L51.7877664,20.7267019 C65.0228347,20.855282 77.5989158,28.2632147 82.7663058,40.7594347 C110.052246,106.382055 141.655209,140.389849 193.487546,139.968669 L195.629071,139.931971 C214.288364,139.445819 235.541466,134.587355 260.107306,125.229435 C264.350776,123.051945 268.721827,121.320306 273.089722,120.15391 L273.150601,120.138429 C296.238024,110.34552 323.70799,100.283572 346.768806,99.6371347 C364.750806,99.8711347 378.501806,101.187135 380.303806,108.965135 C380.932806,111.718135 380.100806,114.690135 377.247806,115.958135 C375.360119,116.811043 368.334251,118.18447 360.028373,120.281424 L360.028729,120.281394 L360.274115,120.395312 C367.861202,123.957657 372.459426,129.874765 368.266506,136.156735 C366.326306,138.324935 364.308306,139.189095 362.153434,139.237671 L361.829169,139.238901 C354.889307,139.137265 346.517631,130.934138 334.778469,130.635247 L334.225722,130.627087 L334.225722,130.627087 L333.667998,130.630872 C333.367172,130.636176 333.064174,130.646806 332.758973,130.663015 L332.757981,130.664134 L332.536754,130.815841 C327.665776,134.185887 324.391023,138.445048 324.241806,144.039135 C324.079806,150.524135 326.670806,153.956135 330.437806,155.709135 C337.372806,159.279135 350.649806,154.095135 352.487806,164.512135 C354.842806,174.841135 342.702806,175.129135 334.947806,176.441135 C322.631806,178.278135 304.931806,178.612135 294.851806,182.605135 L294.816371,182.606789 L294.816371,182.606789 L294.597499,182.711729 C281.608112,188.918696 265.834046,192.752935 253.802306,196.522435 C233.543606,202.050485 212.205586,205.817985 190.929246,205.96586 L189.768786,205.970325 C172.74981,205.982836 155.783586,203.657155 139.454306,198.041435 C112.315306,188.774435 88.5573058,170.235435 70.2703058,148.750435 C49.1723058,124.082435 33.4783058,94.8334347 21.5723058,65.4884347 C14.2883058,47.7174347 22.9833058,27.6604347 41.2203058,22.2084347 C44.5389058,21.2220347 47.9302658,20.7395147 51.2848658,20.7253227 Z" id="SKIN-DARKER" fill="#e0916b"/><path d="M113.560306,79.6312347 C113.560306,79.6312347 100.68354,49.5206074 89.7863058,31.2892347 C80.9465019,16.5 60.892919,8.52651283e-14 35.2935333,8.52651283e-14 C35.2935333,8.52651283e-14 13.7891118,1.22610938 4.12511182,23.2061094 C-10.8788882,54.6701094 24.1363058,98.0652347 39.2493058,126.770235 L113.560306,79.6312347 Z" id="Fill-8" fill="#170f0b"/></g><g id="body" transform="translate(272.000000, 149.000000)"><rect id="SKIN" fill="#fdb18e" x="18" y="101" width="180" height="48"/><path d="M40,0 L176,0 C198.09139,-4.05812251e-15 216,17.90861 216,40 L216,117 L216,117 L0,117 L0,40 C-2.705415e-15,17.90861 17.90861,4.05812251e-15 40,0 Z" fill="#291a14"/></g><path d="M334,149 C334,167.225397 354.594902,182 380,182 C405.405098,182 426,167.225397 426,149" id="SKIN" fill="#fdb18e"/><g id="Left-Arm" transform="translate(86.000000, 148.000000)"><path d="M18.0802955,303.309495 C18.4982955,314.068495 25.3112955,324.542495 34.5242955,328.143495 C41.3482955,331.096495 47.2822955,322.166495 43.2452955,316.509495 C36.2042955,308.874495 28.0512955,298.122495 30.2632955,286.060495 C31.0852955,264.647495 15.3582955,293.969495 18.0802955,303.309495" id="SKIN" fill="#fdb18e"/><path d="M18.0802955,303.309495 C18.4982955,314.068495 25.3112955,324.542495 34.5242955,328.143495 C41.3482955,331.096495 47.2822955,322.166495 43.2452955,316.509495 C36.2042955,308.874495 28.0512955,298.122495 30.2632955,286.060495 C31.0852955,264.647495 15.3582955,293.969495 18.0802955,303.309495" id="SKIN-DARKER" fill="#e0916b"/><path d="M34.4591955,274.717695 C16.9091955,268.509695 9.28819552,247.021695 17.0031955,230.508695 C42.0981955,174.714695 74.9911955,122.534695 113.319196,75.5276952 C122.682196,64.0106952 132.825196,52.2356952 142.737196,41.2306952 C148.638196,35.4596952 158.006196,22.7646952 166.158196,20.1876952 C178.312196,14.7696952 192.927196,17.3696952 202.228196,27.0346952 C211.386196,36.2986952 214.296196,50.5676952 209.727196,62.6146952 C207.526196,70.1106952 196.700196,79.7416952 191.613196,85.5836952 C182.509196,95.7206952 173.155196,106.524695 164.553196,117.135695 C129.524196,160.102695 99.8821955,207.196695 77.2581955,257.440695 C70.4611955,273.433695 50.5231955,280.995695 34.4591955,274.717695" id="SKIN" fill="#fdb18e"/><path d="M112.378896,68.8128952 C112.378896,68.8128952 127.464117,48.1938254 134.757117,39.8808254 C165.878603,-2.39524957 213.76836,1 225.523649,1 C237.278939,1 230.687896,46.6348952 222.309896,59.6568952 C213.715896,70.5528952 203.058896,79.8888952 193.978896,90.3978952 C187.280896,97.8938952 177.348896,109.321895 171.098896,117.061895 L112.378896,68.8128952 Z" id="Fill-17" fill="#291a14"/><path d="M17.9008955,228.583995 C5.57789552,255.323995 -2.95510448,285.149995 2.07689552,314.143995 C5.49489552,330.932995 11.9818955,338.495995 13.3798955,340.948995 C16.1938955,345.805995 25.7238955,345.077995 26.3178955,339.145995 C26.2348955,332.379995 24.6228955,318.461995 25.8918955,310.161995 C26.9388955,299.695995 29.8768955,284.703995 42.0798955,282.936995 C53.9408955,281.349995 56.8178955,290.774995 57.8928955,299.516995 C58.6438955,307.805995 73.1728955,310.262995 74.7788955,301.870995 C76.4528955,286.901995 72.7908955,269.254995 78.4718955,254.850995 C79.2348955,241.714995 27.0058955,229.897995 17.9008955,228.583995 Z" id="SKIN" fill="#fdb18e"/></g></g></g><g id="Head" transform="translate(338.000000, -61.000000) scale(1 1)"><g id="Head/Layered" stroke="none" stroke-width="1" fill="none" fill-rule="evenodd"><path d="M130,125.5 L130,108.367 C130,104.576 127.538,101.504 124.5,101.504 C121.462,101.504 119,98.431 119,94.641 L119,86.457 C119,72.397 101.84,61 90.715,61 L79,61 L79,173 L121.072,173 C133.182,173 143,160.162 143,144.324 L143,138.5 C143,134.91 140.775,132 138.029,132 L134.971,132 C132.225,132 130,129.09 130,125.5" id="Fill-1" fill="#000000"/><path d="M57.801,173 L77,173 L77,61 L57.801,61 C29.744,61 7,83.744 7,111.801 L7,122.199 C7,150.256 29.744,173 57.801,173" id="Fill-4" fill="#000000"/><g id="head" transform="translate(22.000000, 72.000000)"><g fill="#fdb18e" id="SKIN"><path d="M13,62 L58,62 L58,113.633 C58,127.538 47.926,138.81 35.5,138.81 C23.074,138.81 13,127.538 13,113.633 L13,62 Z"/><path d="M60.0525,94 L55.0655,94 C31.8335,94 13.0005,75.167 13.0005,51.935 L13.0005,32.203 C13.0005,14.418 27.4175,0 45.2035,0 L50.7965,0 C68.5825,0 83.0005,14.418 83.0005,32.203 L83.0005,71.052 C83.0005,83.726 72.7265,94 60.0525,94"/><path d="M25,58.5 C25,65.403 19.404,71 12.5,71 C5.596,71 0,65.403 0,58.5 C0,51.597 5.596,46 12.5,46 C19.404,46 25,51.597 25,58.5"/></g><path d="M10.067,53.1685 C10.9718309,53.1685 12.2239875,53.3771928 13.5088204,54.0196092 C15.6553998,55.0928989 17.0130325,57.055328 17.10411,59.9021045 L17.109,60.2105 L14.109,60.2105 C14.109,58.3751144 13.4076866,57.3231443 12.1671796,56.7028908 C11.7065142,56.4725581 11.1976823,56.3199085 10.686339,56.2346846 C10.4347302,56.1927498 10.2385731,56.1747448 10.1250097,56.169908 L10.067,56.1685 L10.067,53.1685 Z" id="ear-line" fill="#000000"/><path d="M34.7507501,96.3317762 C25.4557924,93.0436693 20.8185822,84.7387742 18.9822222,73.5681961 C26.2532122,85.6702724 39.4406226,93.8133264 54.5439426,93.9968331 L55.0655,94 L58,94 C50.0632106,98.2298391 42.3134606,99.0070978 34.7507501,96.3317762 Z" id="SHADOW" fill="#000000" opacity=".12"/></g><path d="M34.3390489,118 L32.8032704,118 C26.9501148,112.308 24.7014391,100.708 24.0235369,89.449 C23.0946709,74.02 49.8788072,61 65.3335778,61 L83.3159838,61 L104,87 L66.0314771,87 C59.2564544,105.085 46.3373181,118 34.3390489,118" id="Fill-15" fill="#000000"/></g></g><g id="Expression" transform="translate(385.000000, 34.000000) scale(1 1)" fill="#000000"><g id="Expression/Confident" stroke="none" stroke-width="1" fill="none" fill-rule="evenodd"><polygon id="Stroke-5" fill="#000000" fill-rule="nonzero" points="33.1977829 19.396766 36.1476171 18.850434 40.4350211 41.9996 30.5607 41.9996 30.5607 38.9996 36.828 38.999"/><g id="Group-19" transform="translate(7.500000, 6.500000)" fill="#000000" fill-rule="nonzero"><path d="M15.1954,35.0725 C15.1954,38.7467625 18.9374817,42.1446933 22.9550435,42.2765329 L23.1964,42.2805 L23.1964,45.2805 C17.5987295,45.2805 12.3696019,40.7145163 12.1996594,35.3417911 L12.1954,35.0725 L15.1954,35.0725 Z" id="Stroke-1"/><polygon id="Stroke-3" points="25.4714706 12.8831993 28.4213294 12.3370007 32.7076381 35.4861 22.8344 35.4861 22.8344 32.4861 29.101 32.486"/><polygon id="Stroke-5" points="25.4714706 12.8831993 28.4213294 12.3370007 32.7076381 35.4861 22.8344 35.4861 22.8344 32.4861 29.101 32.486"/><polygon id="Stroke-7" points="25.4714706 12.8831993 28.4213294 12.3370007 32.7076381 35.4861 22.8344 35.4861 22.8344 32.4861 29.101 32.486"/><path d="M16.8347,0.0006 L16.8347,3.0006 C12.8614229,3.0006 9.23835727,4.06604738 6.03595274,5.84488405 C4.91508362,6.46749218 3.9293314,7.13343565 3.08971515,7.7961842 L2.78614068,8.04060103 C2.50740693,8.26977369 2.30354376,8.45165644 2.17768642,8.57223303 L2.12127275,8.62734759 L0.000127251271,6.50585241 C0.850658012,5.65546184 2.39872067,4.43350326 4.57919726,3.22231595 C8.05718891,1.29039915 11.9861553,0.0986291869 16.2942223,0.0063786563 L16.8347,0.0006 Z" id="Stroke-9"/><path d="M28.8944,0.3444 C32.8871281,0.3444 36.5186416,1.41233258 39.717187,3.18913498 C41.5297756,4.19603386 42.8489265,5.21247949 43.6282704,5.95899887 L43.7680602,6.09573983 L41.6467398,8.21706017 C41.5206868,8.09100715 41.2403525,7.83943052 40.815131,7.5037443 C40.087555,6.92936785 39.2326886,6.35179507 38.260363,5.81166502 C35.6146324,4.34195302 32.6384875,3.43381034 29.3845651,3.35065325 L28.8944,3.3444 L28.8944,0.3444 Z" id="Stroke-11"/><path d="M7.22711504,13.179414 C8.68074249,16.8134826 15.4334605,16.8772382 16.3216227,13.6199964 L16.363529,13.4423258 L19.305271,14.0306742 C18.0084908,20.5145751 7.22968836,20.5936471 4.53765904,14.5213 L4.44168496,14.293586 L7.22711504,13.179414 Z" id="Stroke-13"/><path d="M32.227115,13.179414 C33.6807425,16.8134826 40.4334605,16.8772382 41.3216227,13.6199964 L41.363529,13.4423258 L44.305271,14.0306742 C43.0084908,20.5145751 32.2296884,20.5936471 29.537659,14.5213 L29.441685,14.293586 L32.227115,13.179414 Z" id="Stroke-15"/></g></g></g><g id="Accessories" transform="translate(372.000000, 56.000000) scale(1 1)" fill="#000000"><g id="Accessories/None" stroke="none" stroke-width="1" fill="none" fill-rule="evenodd" fill-opacity="0"/></g><g id="Glasses" transform="translate(364.000000, 42.000000) scale(1 1)" fill="#000000"><g id="Glasses/None" stroke="none" stroke-width="1" fill="none" fill-rule="evenodd" fill-opacity="0"/></g></g></g></g></svg>